<svg width="217" height="50" viewBox="0 0 217 50" fill="none" xmlns="http://www.w3.org/2000/svg"><path d="M59.093 36.096V15.8h16.422v20.294h-4v-16.43h-8.422v16.433h-4zm31.933-14.818v14.818h-3.72v-5.127c-.702.14-1.474.281-2.386.351l-3.088 4.776h-4.21l3.648-5.338c-1.894-.842-2.947-2.247-2.947-4.424 0-3.02 2.176-5.056 6.527-5.056h6.176zm-3.72 3.09H84.99c-1.895 0-2.877.702-2.877 2.037 0 1.334.912 1.966 2.737 1.966.842 0 1.614-.07 2.386-.21v-3.793h.07zm28.914-1.826c1.123 1.124 1.684 2.598 1.684 4.635v8.919h-3.86v-8.217c0-2.247-1.193-3.44-2.947-3.44-1.895 0-3.229 1.404-3.229 3.58v8.147h-3.86v-8.287c0-2.177-1.193-3.44-3.017-3.44-1.895 0-3.229 1.404-3.229 3.58v8.077h-3.86V21.278h3.72v2.107c.842-1.545 2.597-2.528 4.492-2.528 1.824 0 3.579.913 4.351 2.598 1.052-1.615 3.088-2.598 5.263-2.598 1.895 0 3.369.562 4.492 1.685zm34.6.632c1.404 1.475 2.035 3.37 2.035 5.478 0 2.177-.702 4.002-2.105 5.477-1.404 1.475-3.158 2.247-5.194 2.247-1.824 0-3.509-.772-4.632-2.177v7.936h-3.86V21.278h3.79v1.966c1.193-1.545 2.807-2.317 4.702-2.317 2.176 0 3.86.772 5.264 2.247zm-2.948 8.567c.772-.842 1.123-1.825 1.123-3.02 0-1.193-.351-2.176-1.123-3.019s-1.754-1.194-2.947-1.194-2.176.422-2.948 1.194c-.772.843-1.123 1.826-1.123 3.02s.351 2.177 1.123 3.02c.772.842 1.755 1.193 2.948 1.193 1.263 0 2.246-.421 2.947-1.194zm8.633-8.567c1.473-1.545 3.368-2.247 5.684-2.247 2.316 0 4.211.772 5.685 2.247 1.474 1.475 2.246 3.37 2.246 5.478 0 2.177-.702 4.073-2.246 5.547-1.474 1.475-3.369 2.248-5.685 2.248-2.316 0-4.211-.773-5.684-2.248-1.474-1.474-2.246-3.37-2.246-5.547 0-2.177.772-4.003 2.246-5.478zm5.684 9.761c1.193 0 2.106-.421 2.878-1.194.772-.842 1.193-1.825 1.193-3.02 0-1.193-.421-2.176-1.193-3.019s-1.755-1.194-2.878-1.194c-1.193 0-2.175.422-2.947 1.194-.772.843-1.193 1.826-1.193 3.02s.35 2.177 1.193 3.02c.842.772 1.824 1.193 2.947 1.193zm18.738-11.657h3.86v14.818h-3.86V31.11c-1.123.632-2.316.983-3.299.983-1.754 0-3.088-.351-4.211-1.124-1.193-.843-1.824-2.388-1.824-4.705v-4.986h3.79v4.705c0 1.756.912 2.598 2.666 2.598.983 0 1.895-.14 2.878-.561v-6.742zm16.492 14.818l-5.895-6.812v6.812h-3.79V21.278h3.79v5.829l5.404-5.829h4.843l-6.597 6.882 6.948 7.936h-4.703z" fill="#fff"/><path d="M213.351 21.278H217v14.817h-3.649V34.13c-1.264 1.545-2.878 2.318-4.703 2.318-2.105 0-3.86-.703-5.263-2.248-1.404-1.474-2.035-3.37-2.035-5.618 0-2.247.701-4.073 2.105-5.477 1.404-1.475 3.158-2.177 5.264-2.177 1.824 0 3.509.843 4.702 2.317v-1.966h-.07zm-1.123 4.354c-.772-.843-1.755-1.264-2.948-1.264s-2.176.421-3.018 1.264c-.772.843-1.123 1.826-1.123 3.02 0 1.193.351 2.177 1.193 3.02.772.842 1.755 1.263 2.948 1.263s2.176-.421 2.948-1.264c.772-.842 1.193-1.826 1.193-3.02a4.433 4.433 0 00-1.193-3.02zm-77.34 4.424H123.8c.561 2.107 1.965 3.16 4.351 3.16 1.614 0 3.368-.632 4.772-1.685l1.544 2.458c-1.895 1.755-4 2.458-6.457 2.458-2.596 0-4.561-.773-5.965-2.248-1.404-1.474-2.035-3.37-2.035-5.477 0-2.247.702-4.073 2.175-5.548 1.474-1.475 3.299-2.177 5.545-2.177 2.175 0 3.93.702 5.333 2.037 1.404 1.334 2.106 3.09 2.106 5.407-.14.421-.211.983-.281 1.615zM124.852 15.38c1.264 0 2.316.983 2.316 2.247 0 1.335-.982 2.318-2.316 2.318-1.333 0-2.316-.983-2.316-2.318.07-1.264 1.053-2.247 2.316-2.247zM123.8 27.177h7.509c-.351-1.896-1.755-3.09-3.72-3.09-1.895 0-3.368 1.194-3.789 3.09zm4.702-9.62c0-1.265.982-2.248 2.316-2.248 1.263 0 2.245.983 2.245 2.247 0 1.334-.982 2.318-2.245 2.318-1.334 0-2.316-.984-2.316-2.318zM24.985 0C11.229 0 0 11.236 0 25s11.229 25 24.985 25c13.755 0 24.984-11.236 24.984-25S38.74 0 24.984 0z" fill="#fff"/><path d="M37.547 7.093c-1.895 4.915-6.246 5.899-12.563 5.899H19.65c.913-2.177 2.316-3.652 4.281-4.495 2.808-1.264 6.387-1.264 9.615-1.264 1.474-.07 2.807-.07 4-.14z" fill="#119B4A"/><path d="M39.512 8.638c-2.807 6.18-9.124 6.741-14.457 6.741h-3.37l-1.333 5.267c6.948-5.688 16.142-.07 15.16 8.497-.632 5.759-4.773 9.55-9.124 10.604-4.702 1.194-9.966-.562-12.352-5.407-.28-.492-.702-1.545-.842-2.107l4.983-1.264c.07.281.21.562.42.843 3.37 5.407 10.107 2.668 10.879-2.88.772-5.688-7.229-8.707-10.808-2.036L14.247 25h-.07l2.105-8.567c.14-.633.561-2.318.632-2.599C19.3 4.916 27.09 4.775 33.406 4.775 30.81 3.722 28.002 3.09 24.984 3.09 12.914 3.09 3.088 12.92 3.088 25s9.825 21.91 21.896 21.91c12.072 0 21.897-9.831 21.897-21.91 0-6.53-2.877-12.36-7.37-16.362z" fill="#EE312F"/></svg>