<svg width="327" height="181" viewBox="0 0 327 181" fill="none" xmlns="http://www.w3.org/2000/svg"><path d="M57.254 165.597v5.459c0 1.489.33 2.647.988 3.143.494.331 1.316.497 2.304.331.987-.165 1.81-.662 2.469-1.323.658-.662.987-1.82.987-3.309v-9.264l-5.925.993v-6.121l5.76-.827v-7.776c0-1.489-.329-2.647-.987-3.143-.658-.496-1.481-.662-2.469-.496-.987.165-1.81.662-2.468 1.323-.33.827-.659 1.82-.659 3.474v3.971l-5.925.992v-3.639c0-3.474.823-6.287 2.304-8.272 1.646-2.15 3.95-3.474 7.078-3.97 3.127-.496 5.595 0 7.241 1.654 1.646 1.655 2.469 4.136 2.469 7.61v22.168c0 3.474-.823 6.286-2.469 8.271-1.646 2.151-3.95 3.474-7.241 3.97-3.128.497-5.596 0-7.242-1.654S51 175.026 51 171.552v-5.128l6.254-.827zm25.676-5.79l-1.976 4.136v13.069l-6.418.992v-42.515l6.418-.993v18.528l8.394-19.851 6.42-.993-8.889 20.348 8.888 22.168-6.583.992-6.254-15.881zm34.398-4.467v5.625c0 3.474-.823 6.286-2.469 8.271-1.646 2.151-3.95 3.474-7.242 3.971-3.127.496-5.596 0-7.242-1.655-1.645-1.654-2.468-4.135-2.468-7.609V141.94c0-3.474.823-6.286 2.468-8.271 1.646-1.985 3.95-3.474 7.242-3.97 3.127-.497 5.596 0 7.242 1.654s2.469 4.136 2.469 7.61v4.135l-6.09.993v-4.632c0-1.489-.329-2.647-.987-3.143-.659-.496-1.482-.662-2.469-.496-.988.165-1.811.661-2.469 1.323-.658.662-.988 1.82-.988 3.474v22.995c0 1.489.33 2.647.988 3.143.658.496 1.481.662 2.469.496.987-.165 1.81-.662 2.469-1.323.658-.662.987-1.82.987-3.309v-6.286l6.09-.993zm12.344-2.977l-1.975 4.135v13.069l-6.419.993v-42.516l6.419-.992v18.528l8.393-19.852 6.419-.992-8.887 20.348 8.887 22.167-6.583.993-6.254-15.881zm13.989 8.602c.823-.166 1.317-.331 1.811-.496.493-.166.823-.331 1.152-.828.329-.33.494-.827.658-1.488.165-.662.165-1.324.329-2.316l.988-32.259 18.104-2.813v42.516l-6.583.992v-36.394l-5.596.827-.494 25.973c-.164 3.97-.987 6.782-2.304 8.767-1.481 1.82-3.786 3.143-6.913 3.64l-.987.165v-6.286h-.165zm39.336-18.363l-4.773.827v18.198l-6.419.992v-42.681l6.419-.992v18.197l4.773-.827v-8.106c0-3.474.823-6.287 2.469-8.272 1.646-2.15 4.114-3.474 7.242-3.97 3.127-.496 5.595 0 7.241 1.654 1.646 1.655 2.469 4.136 2.469 7.61V147.4c0 3.474-.823 6.286-2.469 8.271-1.646 2.151-4.114 3.474-7.241 3.97-3.128.497-5.596 0-7.242-1.654s-2.469-4.136-2.469-7.61v-7.775zm6.419 7.445c0 1.488.329 2.646.823 3.143.658.496 1.481.661 2.469.496.987-.165 1.81-.662 2.468-1.323.659-.662.823-1.82.823-3.474v-22.995c0-1.489-.329-2.647-.823-3.143-.658-.497-1.481-.662-2.468-.497-.988.166-1.811.662-2.469 1.324-.659.662-.823 1.82-.823 3.474v22.995zm29.79-27.131c0-1.985-.329-3.143-.823-3.639-.659-.497-1.481-.828-2.469-.662-.987.165-1.81.662-2.469 1.323-.658.662-.987 1.82-.987 3.474v3.474l-5.925.993v-3.143c0-3.474.823-6.121 2.304-8.272 1.646-1.985 3.95-3.308 7.077-3.805 3.127-.496 5.596 0 7.242 1.655 1.646 1.654 2.469 4.135 2.469 7.609v1.159c0 4.466-1.482 7.775-4.444 9.429 1.646.496 2.798 1.489 3.456 2.812.658 1.489.988 3.143.988 5.459v3.309c0 3.474-.823 6.286-2.469 8.272-1.646 2.15-3.95 3.474-7.242 3.97-3.127.496-5.596 0-7.242-1.654-1.646-1.655-2.468-4.136-2.468-7.61v-4.632l6.089-.993v5.128c0 1.489.329 2.647.823 3.144.658.496 1.481.661 2.469.496.987-.165 1.81-.662 2.469-1.323.658-.662.823-2.151.823-3.971v-3.308c0-1.986-.33-3.309-.988-3.971-.658-.661-1.81-.992-3.292-.661l-1.646.33v-6.12l1.976-.331c1.152-.166 2.139-.662 2.797-1.489.659-.827.988-1.985.988-3.64v-2.812h.494zm17.446 29.447l-6.584.992V110.84l5.761-.827v26.965l2.304-9.761 5.267-18.362 7.077-1.158v42.515l-5.761.993v-30.109l-2.633 10.919-5.431 20.348zm27.979-47.148c3.292-.496 5.761-.165 7.242 1.324 1.481 1.323 2.304 3.639 2.304 6.948v1.488c0 2.151-.329 3.971-.987 5.625-.659 1.489-1.646 2.812-3.128 3.64 1.811.33 2.963 1.323 3.786 2.812.658 1.489 1.152 3.308 1.152 5.624v3.474c0 3.309-.823 5.956-2.469 7.941-1.646 1.985-4.114 3.309-7.242 3.805l-10.039 1.654v-42.681l9.381-1.654zm-3.292 6.617v11.25l2.469-.331c1.152-.166 2.14-.662 2.798-1.489.658-.827.988-1.985.988-3.64v-2.316c0-1.489-.329-2.647-.823-3.143-.494-.662-1.317-.827-2.469-.662l-2.963.331zm0 17.37v13.069l3.621-.661c1.152-.166 1.975-.662 2.469-1.324.494-.662.823-1.82.823-3.474v-3.639c0-1.985-.329-3.309-.988-3.971-.658-.661-1.645-.827-3.127-.661l-2.798.661z" fill="#fff"/><path d="M10.426 133.372L0 135V66.211l10.426-1.628v29.442l11.78-1.9V62.684l10.562-1.628v68.789l-10.562 1.628V102.03l-11.78 1.9v29.442zm63.775-10.176L63.64 124.96l-1.76-12.211-12.729 2.035-1.895 12.754-9.614 1.492 10.562-70.417 15.3-2.442 10.697 67.025zm-23.83-18.045l10.019-1.628-5.01-33.92-5.01 35.548zm44.005-53.865c5.281-.814 9.208 0 11.645 2.443 2.573 2.442 3.791 6.512 3.791 12.075v8.955c0 5.563-1.218 10.04-3.791 13.296-2.573 3.256-6.5 5.292-11.645 6.241l-5.01.679v25.779l-10.426 1.628V53.729l15.436-2.443zm-5.01 10.583v23.337l4.875-.814c1.625-.271 2.843-.95 3.791-2.035.948-1.086 1.354-2.85 1.354-5.292V66.754c0-2.443-.406-4.07-1.354-4.885-.948-.814-2.166-1.085-3.791-.814l-4.875.814zm24.509 2.85c0-5.563 1.354-10.04 4.062-13.433 2.708-3.392 6.634-5.562 11.78-6.376 5.145-.814 9.072 0 11.78 2.578 2.708 2.577 4.062 6.648 4.062 12.21v35.82c0 5.562-1.354 10.04-4.062 13.432-2.708 3.392-6.635 5.563-11.78 6.377-5.146.814-9.072 0-11.78-2.578s-4.062-6.648-4.062-12.211v-35.82zm10.426 34.733c0 2.442.541 4.206 1.489 5.02.948.814 2.302 1.221 3.927.95 1.625-.271 2.979-.95 3.926-2.171.948-1.221 1.49-2.985 1.49-5.427V60.648c0-2.442-.542-4.206-1.49-5.02-.947-.814-2.301-1.221-3.926-.95-1.625.272-2.979.95-3.927 2.171-.948 1.221-1.489 2.985-1.489 5.427v37.176zm58.088 15.875V106.1l-22.206 3.528v9.226l-10.156 1.628v-18.859l4.062-.678c.948-1.357 1.49-2.714 1.896-4.07.406-1.493.542-3.121.677-5.156l2.302-50.608 29.112-4.613v59.155l4.603-.678v18.859l-10.29 1.493zm-15.572-25.508c-.135 2.578-.406 4.613-.948 5.97-.541 1.357-1.218 2.578-2.031 3.528l13.676-2.171V47.894l-8.801 1.357-1.896 40.568zm42.111 12.075l-10.426 1.629V34.869l10.426-1.628v29.442l11.78-1.9v-29.44l10.562-1.628v68.788l-10.562 1.629V70.553l-11.78 1.9v29.441zm29.924-4.748v-68.79l10.426-1.627v25.779l4.875-.815c5.281-.814 9.207 0 11.644 2.443 2.438 2.442 3.792 6.512 3.792 12.075v8.955c0 5.563-1.219 10.04-3.792 13.296-2.572 3.257-6.499 5.292-11.644 6.242l-15.301 2.442zm15.436-12.211c1.625-.272 2.844-.95 3.791-2.035.948-1.086 1.355-2.85 1.355-5.292V67.296c0-2.442-.407-4.07-1.355-4.884-.947-.814-2.166-1.085-3.791-.814l-4.874.814V85.75l4.874-.814zm21.529 6.377v-68.79l10.426-1.627v68.788l-10.426 1.629zm28.706-4.478l-10.697 1.628V19.673l9.343-1.492v43.553l3.791-15.739 8.531-29.714L327 14.518v68.788l-9.343 1.493V36.362L313.46 54l-8.937 32.834zM321.448 0c0 3.392-.947 6.106-2.708 8.412-1.895 2.307-4.603 3.663-8.395 4.206-3.656.543-6.364 0-8.124-1.628-1.76-1.628-2.708-4.206-2.843-7.462l6.499-1.086c.135 1.764.542 2.985 1.219 3.392.677.543 1.76.543 3.114.407 1.489-.271 2.573-.678 3.385-1.357.812-.678 1.219-2.035 1.354-3.799L321.448 0z" fill="#D7C08A"/></svg>