<svg width="144" height="143" viewBox="0 0 144 143" fill="none" xmlns="http://www.w3.org/2000/svg">
<path d="M110.729 54.2062C117.362 66.8727 119.132 80.0129 115.741 93.6768C112.35 107.39 104.596 118.212 92.8517 126.066C71.9072 140.054 43.8065 137.835 25.5299 120.83C6.62995 103.251 2.19169 75.6994 14.7834 53.558C21.0418 42.5371 30.043 34.4585 41.8368 29.7211C57.7696 23.313 73.4281 24.435 88.8124 32.2145C89.8846 29.8707 90.9318 27.6017 91.9541 25.3327C68.8153 12.4667 34.8552 15.4089 13.9855 41.0411C-6.58507 66.374 -4.19141 103.177 19.3712 125.717C42.6845 148.008 79.6367 148.831 103.598 127.637C128.457 105.695 129.679 72.2585 117.611 51.0646C115.392 52.0869 113.123 53.1091 110.729 54.2062Z" fill="#EE312F"/>
<path d="M85.023 103.7C84.8235 103.451 84.5991 103.202 84.3747 102.977C82.9036 101.481 81.4076 99.9603 79.8118 98.3645C74.8749 103.077 69.2149 105.496 62.6074 105.496C55.95 105.496 50.2401 103.077 45.5276 98.564C43.6824 100.384 41.8872 102.13 40.1169 103.875C52.9828 117.24 74.6505 115.419 85.023 103.7Z" fill="#EE312F"/>
<path d="M101.579 20.1965C102.527 20.5955 103.1 21.1939 103.499 22.1414C104.671 24.8343 105.918 27.5022 107.139 30.1951C107.314 30.594 107.538 30.968 107.863 31.5664C108.162 30.993 108.361 30.6688 108.511 30.2948C109.334 28.5245 110.306 26.8041 110.904 24.9589C111.927 21.8671 113.822 19.8973 116.963 18.875C119.183 18.152 121.252 16.9551 123.696 15.8331C122.973 15.484 122.599 15.2596 122.175 15.0601C119.457 13.8134 116.764 12.5418 114.021 11.345C113.149 10.971 112.65 10.4224 112.276 9.54972C111.054 6.78205 109.782 4.03931 108.511 1.29657C108.336 0.947492 108.162 0.598416 107.838 0C107.538 0.598416 107.339 0.922558 107.189 1.29657C105.893 4.11411 104.646 6.95659 103.275 9.77413C103 10.3476 102.452 10.9211 101.878 11.1954C99.0858 12.5418 96.2433 13.8134 93.4008 15.11C93.0268 15.2845 92.6528 15.509 92.0793 15.8082C92.6777 16.1074 93.0268 16.3068 93.4008 16.4814C96.1435 17.753 98.8364 19.0246 101.579 20.1965Z" fill="#EE312F"/>
<path d="M141.374 34.3341C138.632 33.0874 135.864 31.8657 133.121 30.5442C132.573 30.2948 132.049 29.7463 131.775 29.2227C130.453 26.455 129.207 23.6624 127.91 20.8698C127.711 20.421 127.486 20.022 127.162 19.3987C126.863 19.9472 126.663 20.2963 126.489 20.6703C125.217 23.4131 123.945 26.1558 122.749 28.9484C122.35 29.846 121.776 30.3946 120.879 30.7935C118.061 32.0153 115.293 33.3119 112.501 34.6084C112.202 34.758 111.902 34.9575 111.454 35.2318C112.052 35.5559 112.451 35.7554 112.85 35.9549C115.593 37.2265 118.385 38.4233 121.103 39.7448C121.701 40.044 122.325 40.6175 122.599 41.2159C123.97 44.0085 125.217 46.851 126.514 49.6935C126.688 50.0675 126.888 50.3916 127.212 50.9901C128.085 49.0701 128.857 47.3996 129.63 45.7041C130.478 43.9088 130.952 41.7146 132.273 40.418C133.62 39.0716 135.814 38.548 137.659 37.7002C139.33 36.9023 141.025 36.1543 143.02 35.2068C142.247 34.758 141.823 34.5336 141.374 34.3341Z" fill="#EE312F"/>
<path d="M93.6012 50.7161C94.9476 53.5088 96.2192 56.3512 97.5158 59.1937C97.6903 59.5926 97.9147 59.9667 98.2139 60.5401C98.5381 59.9168 98.7376 59.5178 98.9121 59.094C100.159 56.3762 101.356 53.6334 102.677 50.9655C103.001 50.2923 103.65 49.619 104.323 49.2949C107.066 47.9485 109.883 46.7267 112.676 45.4301C113.05 45.2556 113.399 45.0312 113.972 44.7071C110.581 43.1611 107.44 41.7648 104.348 40.2688C103.674 39.9447 103.026 39.2714 102.702 38.5982C101.206 35.5064 99.8097 32.3647 98.2389 28.9238C97.9147 29.5721 97.7153 29.9212 97.5407 30.2703C96.5184 32.4894 95.3964 34.6836 94.5237 36.9526C93.7508 38.9722 92.529 40.2688 90.4595 41.0667C87.7915 42.064 85.2483 43.4105 82.4058 44.7071C83.0291 45.0312 83.4032 45.2556 83.8021 45.4301C86.6196 46.7267 89.4621 47.9983 92.2797 49.3448C92.8282 49.644 93.3518 50.1925 93.6012 50.7161Z" fill="#EE312F"/>
<path d="M39.4937 69.9651C35.7037 69.9651 32.7366 72.9572 32.7366 76.7721C32.7366 80.5371 35.8035 83.5791 39.5436 83.5541C43.2587 83.5292 46.3506 80.4374 46.3256 76.6973C46.3506 72.9572 43.3086 69.9651 39.4937 69.9651Z" fill="#EE312F"/>
<path d="M92.4282 76.6973C92.3783 72.9322 89.3114 69.9651 85.5464 69.9651C81.7564 69.9651 78.7643 73.007 78.8142 76.797C78.8391 80.562 81.906 83.604 85.6461 83.5791C89.3613 83.5292 92.478 80.3626 92.4282 76.6973Z" fill="#EE312F"/>
</svg>
