<?xml version="1.0" encoding="utf-8"?><svg width="401" height="93" fill="none" xmlns="http://www.w3.org/2000/svg" viewBox="0 0 401 93"><path d="M109.447 66.535v-37.41h30.272v37.41h-7.374v-30.29h-15.524v30.29h-7.374zM168.311 39.221v27.313h-6.856v-9.45c-1.294.26-2.717.518-4.398.648l-5.693 8.802h-7.761l6.727-9.838c-3.493-1.553-5.434-4.142-5.434-8.155 0-5.566 4.011-9.32 12.031-9.32h11.384zm-6.856 5.696h-4.269c-3.493 0-5.304 1.294-5.304 3.754s1.682 3.624 5.045 3.624c1.553 0 2.976-.13 4.399-.388v-6.99h.129zM214.751 41.552c2.069 2.071 3.104 4.79 3.104 8.544v16.44h-7.115V51.39c0-4.142-2.199-6.343-5.433-6.343-3.493 0-5.951 2.589-5.951 6.602v15.016h-7.115V51.39c0-4.013-2.199-6.343-5.563-6.343-3.493 0-5.951 2.589-5.951 6.602v14.886h-7.115V39.222h6.857v3.883c1.552-2.847 4.786-4.66 8.279-4.66 3.364 0 6.598 1.683 8.021 4.79 1.94-2.977 5.692-4.79 9.702-4.79 3.493 0 6.21 1.036 8.28 3.107zM278.529 42.718c2.588 2.718 3.752 6.213 3.752 10.097 0 4.013-1.294 7.378-3.881 10.097-2.587 2.718-5.821 4.142-9.573 4.142-3.363 0-6.468-1.424-8.538-4.013v14.627h-7.115V39.223h6.986v3.624c2.199-2.847 5.174-4.271 8.667-4.271 4.01 0 7.115 1.424 9.702 4.142zm-5.433 15.792c1.423-1.553 2.07-3.365 2.07-5.566 0-2.2-.647-4.013-2.07-5.566-1.423-1.553-3.234-2.2-5.433-2.2s-4.011.776-5.434 2.2c-1.423 1.553-2.069 3.366-2.069 5.566 0 2.2.646 4.013 2.069 5.566 1.423 1.554 3.235 2.201 5.434 2.201 2.328 0 4.139-.777 5.433-2.2zM289.007 42.718c2.717-2.848 6.209-4.142 10.479-4.142 4.269 0 7.761 1.424 10.478 4.142 2.717 2.718 4.14 6.213 4.14 10.097 0 4.013-1.294 7.508-4.14 10.226-2.717 2.718-6.209 4.142-10.478 4.142-4.27 0-7.762-1.424-10.479-4.142-2.717-2.718-4.14-6.213-4.14-10.226 0-4.013 1.423-7.379 4.14-10.097zm10.479 17.993c2.199 0 3.88-.777 5.303-2.2 1.424-1.554 2.2-3.366 2.2-5.567 0-2.2-.776-4.013-2.2-5.566-1.423-1.553-3.234-2.2-5.303-2.2-2.2 0-4.011.776-5.434 2.2-1.423 1.553-2.199 3.366-2.199 5.566 0 2.2.647 4.013 2.199 5.566 1.553 1.424 3.364 2.201 5.434 2.201zM334.029 39.221h7.115v27.313h-7.115v-9.19c-2.07 1.165-4.269 1.812-6.08 1.812-3.234 0-5.692-.647-7.762-2.071-2.199-1.554-3.364-4.401-3.364-8.673v-9.19h6.986v8.672c0 3.236 1.682 4.79 4.916 4.79 1.811 0 3.493-.26 5.304-1.036V39.221zM364.429 66.534l-10.867-12.556v12.556h-6.986V39.221h6.986v10.744l9.961-10.744h8.926l-12.16 12.686 12.807 14.627h-8.667z" fill="#131313"/><path d="M393.795 39.223h6.727v27.313h-6.727v-3.624c-2.328 2.847-5.304 4.271-8.667 4.271-3.881 0-7.115-1.294-9.703-4.142-2.587-2.718-3.751-6.213-3.751-10.356 0-4.142 1.293-7.508 3.881-10.096 2.587-2.719 5.821-4.013 9.702-4.013 3.364 0 6.469 1.553 8.668 4.271v-3.624h-.13zm-2.069 8.026c-1.423-1.554-3.235-2.33-5.434-2.33-2.199 0-4.01.776-5.563 2.33-1.423 1.553-2.069 3.365-2.069 5.566 0 2.2.646 4.013 2.199 5.566 1.423 1.553 3.234 2.33 5.433 2.33s4.011-.777 5.434-2.33 2.199-3.366 2.199-5.566c0-2.071-.776-4.013-2.199-5.566zM249.163 55.402h-20.44c1.035 3.884 3.622 5.825 8.021 5.825 2.975 0 6.209-1.164 8.797-3.106l2.846 4.53c-3.493 3.237-7.374 4.531-11.902 4.531-4.787 0-8.409-1.424-10.996-4.142-2.587-2.719-3.752-6.214-3.752-10.097 0-4.142 1.294-7.508 4.011-10.226 2.716-2.719 6.08-4.013 10.22-4.013 4.01 0 7.244 1.294 9.831 3.754 2.588 2.46 3.881 5.696 3.881 9.967-.258.777-.388 1.812-.517 2.977zm-18.499-27.054c2.328 0 4.269 1.812 4.269 4.142 0 2.46-1.812 4.272-4.269 4.272-2.458 0-4.27-1.812-4.27-4.272.13-2.33 1.941-4.142 4.27-4.142zm-1.941 21.747h13.842c-.647-3.495-3.234-5.695-6.856-5.695-3.493 0-6.21 2.2-6.986 5.695zm8.668-17.734c0-2.33 1.811-4.142 4.269-4.142 2.328 0 4.139 1.812 4.139 4.142 0 2.46-1.811 4.272-4.139 4.272-2.458 0-4.269-1.813-4.269-4.272z" fill="#131313"/><path d="M46.576 0C21.22 0 .52 20.711.52 46.083c0 25.371 20.699 46.083 46.055 46.083 25.355 0 46.054-20.712 46.054-46.083C92.63 20.71 71.93 0 46.576 0z" fill="#fff"/><path d="M69.731 13.076c-3.492 9.06-11.513 10.873-23.156 10.873h-9.832c1.682-4.013 4.27-6.731 7.892-8.284 5.174-2.33 11.772-2.33 17.723-2.33 2.716-.13 5.174-.13 7.373-.26z" fill="#119B4A"/><path d="M73.354 15.922c-5.175 11.39-16.818 12.426-26.65 12.426h-6.21l-2.457 9.709c12.807-10.485 29.754-.13 27.943 15.663-1.164 10.614-8.797 17.605-16.818 19.546-8.667 2.2-18.37-1.035-22.768-9.967-.517-.906-1.294-2.848-1.552-3.883l9.184-2.33c.13.517.389 1.035.777 1.553 6.21 9.967 18.628 4.919 20.051-5.308 1.423-10.485-13.324-16.05-19.922-3.754l-8.15-3.494h-.13l3.882-15.793c.258-1.165 1.035-4.272 1.164-4.79 4.398-16.44 18.758-16.698 30.4-16.698-4.786-1.942-9.96-3.107-15.523-3.107-22.25 0-40.362 18.123-40.362 40.388 0 22.264 18.111 40.387 40.362 40.387 22.25 0 40.362-18.123 40.362-40.387 0-12.039-5.304-22.783-13.583-30.161z" fill="#EE312F"/></svg>