<?xml version="1.0" encoding="utf-8"?><svg width="1027" height="333" fill="none" xmlns="http://www.w3.org/2000/svg" viewBox="0 0 1027 333"><path d="M35.75 274.385l12.828-24.681 21.679-3.266-21.499 40.468 22.221 35.569-21.679 3.266-13.55-21.958-13.369 25.95L.521 333l22.402-42.102-21.498-34.116 21.68-3.267 12.646 20.87zM203.585 302.876L83.806 320.66v-23.954l56.548-68.96c7.768-9.618 13.549-17.966 17.162-24.861 3.794-6.896 5.601-13.248 5.601-18.874 0-7.803-1.987-13.61-5.962-17.421-3.974-3.811-9.575-5.263-16.801-4.174-7.769 1.089-14.092 4.719-18.609 10.889-4.516 6.17-6.865 13.61-6.865 22.321l-34.867 5.081c0-10.707 2.529-20.869 7.587-30.487 5.059-9.618 12.285-17.603 21.499-23.955 9.214-6.351 19.873-10.525 31.616-12.158 18.066-2.722 31.977-.363 41.913 6.714 9.937 7.259 14.995 18.692 14.995 34.48 0 8.71-2.168 17.784-6.684 27.584-4.517 9.618-12.105 21.232-23.125 34.842l-39.745 47.909 75.155-11.07v28.31h.361zM306.562 120.315l-35.59 5.262v15.426l12.827-1.815c9.394-1.452 16.801-.182 22.221 3.448 5.42 3.811 8.311 9.436 8.311 17.24 0 7.803-2.71 14.336-8.13 19.962-5.42 5.444-12.646 9.073-21.68 10.343l-29.989 4.537v-80.029l52.211-7.803v13.429h-.181zm-35.409 34.116v24.681l13.007-1.997c4.155-.544 7.588-2.359 10.117-4.899 2.529-2.722 3.794-5.989 3.794-9.8 0-3.629-1.265-6.351-3.613-7.985-2.349-1.814-5.601-2.359-9.756-1.814l-13.549 1.814zM390.209 136.284c0 7.804-1.446 15.062-4.156 21.414-2.71 6.351-6.684 11.433-11.923 15.425-5.24 3.992-11.021 6.533-17.705 7.44-6.685.908-12.466.182-17.705-2.177-5.239-2.359-9.214-6.352-12.104-11.796-2.891-5.444-4.336-12.159-4.336-19.78v-3.993c0-7.803 1.445-15.062 4.155-21.413 2.891-6.352 6.865-11.615 11.924-15.607 5.239-3.992 11.02-6.533 17.704-7.44 6.685-.908 12.466-.182 17.705 2.177 5.24 2.359 9.214 6.352 11.924 11.977 2.891 5.626 4.155 12.341 4.155 20.144v3.629h.362zm-16.621-1.089c0-8.347-1.446-14.517-4.517-18.51-3.071-3.992-7.226-5.444-12.827-4.718-5.42.907-9.756 3.629-12.827 8.348-3.071 4.718-4.516 11.251-4.516 19.599v3.992c0 8.166 1.445 14.336 4.516 18.329 3.071 3.992 7.227 5.625 12.827 4.9 5.42-.908 9.756-3.63 12.646-8.348 2.891-4.718 4.517-11.251 4.517-19.599v-3.993h.181zM465.183 83.476v80.029l-16.44 2.359v-66.6l-21.138 3.085-1.264 28.491c-.542 9.618-1.807 17.24-3.613 23.047-1.807 5.807-4.517 10.162-8.13 13.248-3.613 3.085-8.491 5.081-14.634 5.988l-4.336.545V160.42l2.71-.726c4.155-1.089 7.046-3.992 8.853-8.529 1.806-4.537 2.89-12.159 3.432-23.047l1.446-36.839 53.114-7.803zM496.076 107.612l12.827-1.815c9.395-1.452 16.802-.182 22.222 3.448 5.419 3.811 8.31 9.436 8.31 17.24 0 7.803-2.71 14.336-8.13 19.962-5.42 5.444-12.646 9.073-21.679 10.344l-30.171 4.536V81.298l16.441-2.54v28.854h.18zm0 13.429v24.68l13.008-1.996c4.155-.545 7.588-2.36 10.117-4.9 2.529-2.722 3.794-5.989 3.794-9.8 0-3.629-1.265-6.351-3.613-7.984-2.349-1.634-5.601-2.36-9.756-1.815l-13.55 1.815zM565.992 68.414v66.781l22.041-3.266V65.147l16.44-2.359v66.782l21.86-3.267V59.522l16.44-2.36v80.03l-93.402 13.792v-80.03l16.621-2.54zM704.921 93.094l-31.435 4.718v21.414l37.035-5.444v13.247l-53.475 7.985v-80.03L710.341 47v13.429l-36.855 5.444v19.055l31.435-4.719v12.885zM306.562 221.032l-35.59 5.262v15.426l12.827-1.815c9.394-1.452 16.801-.182 22.221 3.448 5.42 3.811 8.311 9.436 8.311 17.24 0 7.803-2.71 14.336-8.13 19.962-5.42 5.444-12.646 9.073-21.68 10.343l-29.989 4.537v-80.029l52.211-7.803v13.429h-.181zm-35.409 34.116v24.681l13.007-1.997c4.155-.544 7.588-2.359 10.117-4.899 2.529-2.722 3.794-5.989 3.794-9.8 0-3.629-1.265-6.351-3.613-7.985-2.349-1.814-5.601-2.359-9.756-1.814l-13.549 1.814zM369.794 261.863l-28.725 4.355-5.42 17.24-17.524 2.541 29.628-84.385 15.176-2.177 29.809 75.492-17.524 2.541-5.42-15.607zm-24.39-9.8l19.873-2.903-9.936-28.491-9.937 31.394zM465.906 184.011v80.03l-16.44 2.359v-66.601l-21.138 3.086-1.265 28.491c-.542 9.618-1.806 17.239-3.613 23.047-1.806 5.807-4.516 10.162-8.13 13.247-3.613 3.085-8.491 5.081-14.633 5.989l-4.336.544v-13.066l2.71-.726c4.155-1.089 7.046-3.992 8.852-8.529 1.807-4.537 2.891-12.159 3.433-23.047l1.445-36.839 53.115-7.985zM545.939 172.034v80.029l-16.44 2.36v-66.601l-21.318 3.267-1.265 28.491c-.542 9.618-1.807 17.24-3.613 23.047-1.807 5.807-4.517 10.162-8.13 13.247-3.613 3.085-8.491 5.082-14.634 5.989l-4.336.544V249.16l2.71-.726c4.156-1.089 7.046-3.992 8.853-8.529 1.806-4.537 2.89-12.159 3.432-23.047l1.446-36.839 53.295-7.985zM625.791 202.159c0 7.803-1.445 15.062-4.155 21.413-2.71 6.352-6.684 11.433-11.924 15.425-5.239 3.993-11.02 6.533-17.705 7.441-6.684.907-12.465.181-17.704-2.178-5.24-2.359-9.214-6.351-12.105-11.796-2.89-5.444-4.336-12.158-4.336-19.78v-3.992c0-7.804 1.446-15.063 4.156-21.414 2.89-6.352 6.865-11.614 11.923-15.607 5.239-3.992 11.021-6.533 17.705-7.44 6.685-.907 12.466-.182 17.705 2.178 5.239 2.359 9.214 6.351 11.924 11.977 2.89 5.625 4.155 12.34 4.155 20.143v3.63h.361zm-16.621-1.271c0-8.347-1.445-14.517-4.516-18.51-3.071-3.992-7.227-5.444-12.827-4.718-5.42.907-9.756 3.629-12.827 8.348-3.071 4.718-4.517 11.251-4.517 19.599v3.992c0 8.166 1.446 14.336 4.517 18.329 3.071 3.992 7.226 5.625 12.827 4.899 5.42-.907 9.756-3.629 12.646-8.347 2.891-4.719 4.517-11.252 4.517-19.599v-3.993h.18zM637.715 238.453v-80.029l27.822-4.174c9.575-1.452 16.982-.726 22.04 2.359 5.059 2.904 7.408 7.985 7.408 15.244 0 3.992-1.084 7.44-3.072 10.888-1.987 3.267-4.877 5.807-8.31 7.803 4.155.363 7.226 1.997 9.575 4.719 2.349 2.722 3.613 6.351 3.613 10.888 0 7.622-2.529 13.792-7.407 18.51-4.878 4.718-11.924 7.803-20.957 9.074l-30.712 4.718zm16.259-48.816l12.105-1.815c8.31-1.451 12.465-5.262 12.465-11.795 0-3.63-1.084-6.17-3.071-7.441-2.168-1.27-5.42-1.633-9.936-.907l-11.563 1.633v20.325zm0 11.614v21.595l14.092-2.177c3.794-.545 6.865-1.996 9.033-4.174 2.168-2.178 3.252-4.9 3.252-8.166 0-7.259-3.794-10.526-11.382-9.437l-14.995 2.359zM748.727 58.767l-4.615.662v-18.69l-8.976 1.325v18.689l-4.615.662V39.008l18.206-2.699v22.458zM767.439 47.818c0 2.546-.558 4.736-1.724 6.416-1.166 1.731-2.738 2.75-4.716 3.005-1.674.254-3.043-.153-4.057-1.172v7.843l-4.463.662V41.503l4.108-.611.152 1.63c1.065-1.477 2.485-2.292 4.209-2.547 2.029-.305 3.651.204 4.767 1.579 1.116 1.375 1.724 3.36 1.724 6.06v.204zm-4.462.305c0-1.528-.254-2.699-.812-3.463-.558-.764-1.318-1.07-2.383-.916-1.369.203-2.333.865-2.891 2.037v6.823c.558 1.019 1.522 1.426 2.891 1.223 2.18-.306 3.195-2.19 3.195-5.704zM780.219 37.378l4.462-.662V53.42l-4.462.663V43.794l-5.579 11.101-4.462.662V38.906l4.462-.662v10.287l5.579-11.153zM810.289 49.6l-4.462.663V37.175l-5.578.815v13.087l-4.463.662V35.087l14.453-2.139V49.6h.05zM813.028 40.74c0-1.63.305-3.158.964-4.584.659-1.375 1.572-2.546 2.738-3.412 1.217-.865 2.586-1.425 4.159-1.68 2.231-.357 4.056.102 5.476 1.273 1.42 1.171 2.232 2.903 2.384 5.245l.05 1.12c0 2.547-.71 4.736-2.129 6.468-1.42 1.782-3.347 2.8-5.731 3.157-2.383.357-4.31-.153-5.73-1.477-1.42-1.324-2.13-3.31-2.13-5.958v-.153h-.051zm4.412-.357c0 1.579.304 2.75.913 3.514.608.764 1.42 1.07 2.536.866 1.064-.153 1.927-.713 2.535-1.63.609-.917.913-2.292.913-4.125 0-1.579-.304-2.699-.913-3.463-.608-.764-1.471-1.07-2.535-.916-1.065.152-1.928.713-2.536 1.63-.609.967-.913 2.342-.913 4.124zM837.979 39.364l-1.775.255v6.162l-4.463.662V29.74l4.463-.662v6.264l1.572-.255 3.6-6.824 5.629-.815-5.426 8.76 5.933 7.842-5.933.865-3.6-5.55zM855.423 36.614l3.093-10.846 4.767-.713-6.694 20.267-.355.917c-1.014 2.343-2.637 3.667-4.919 4.023a6.444 6.444 0 01-1.978 0v-3.36l.66-.103c.862-.102 1.47-.356 1.876-.662.406-.305.761-.815.963-1.426l.507-1.425-5.831-15.889 4.767-.713 3.144 9.93zM879.41 39.364l-4.463.662V26.94l-5.578.814v13.088l-4.463.662V24.8l14.453-2.139v16.703h.051zM889.348 31.726l-1.775.254v6.162l-4.463.662V22.101l4.463-.662v6.264l1.572-.255 3.6-6.824 5.629-.814-5.426 8.759 5.933 7.893-5.933.865-3.6-5.601zM907.959 35.443c-2.434.357-4.412-.102-5.933-1.375s-2.282-3.157-2.282-5.652v-.408c0-1.68.304-3.208.964-4.634a9.236 9.236 0 012.738-3.463c1.166-.866 2.536-1.426 4.057-1.68 2.282-.357 4.057.102 5.375 1.375 1.319 1.222 1.978 3.208 1.978 5.856v1.833l-10.599 1.579c.153 1.07.558 1.884 1.319 2.444.71.56 1.623.764 2.738.56 1.724-.254 3.043-1.069 4.006-2.444l2.181 2.139c-.659 1.07-1.572 1.935-2.688 2.597-1.217.611-2.484 1.07-3.854 1.273zm-.507-13.648a3.501 3.501 0 00-2.13 1.223c-.557.662-.912 1.578-1.065 2.75l6.187-.917v-.357c0-.967-.304-1.731-.811-2.19-.507-.458-1.268-.661-2.181-.509zM939.603 13.75v16.703l-4.462.662V17.976l-3.905.56-.254 5.195c-.152 2.75-.71 4.837-1.623 6.263-.912 1.375-2.231 2.241-4.006 2.547l-1.521.203-.051-3.615.558-.153c.811-.204 1.369-.764 1.775-1.68.355-.917.608-2.496.71-4.635l.304-7.13 12.475-1.782zM947.818 18.893l2.383-.357c.305-2.138 1.167-3.87 2.536-5.296 1.369-1.425 3.093-2.24 5.172-2.546 2.232-.356 4.057.102 5.477 1.273 1.42 1.172 2.232 2.903 2.384 5.245l.05 1.12c0 2.547-.71 4.737-2.129 6.468-1.42 1.783-3.347 2.801-5.731 3.157-2.18.306-3.905-.05-5.324-1.12-1.37-1.07-2.181-2.648-2.485-4.736l-2.333.357v6.67l-4.463.663V13.189l4.463-.662v6.366zm6.694 1.12c0 1.579.304 2.75.913 3.514.608.764 1.42 1.07 2.535.866 1.116-.153 1.927-.713 2.536-1.63.608-.916.913-2.291.913-4.125 0-1.578-.305-2.699-.913-3.462-.609-.764-1.471-1.07-2.536-.917-1.065.153-1.927.713-2.535 1.63-.609 1.018-.913 2.342-.913 4.124zM976.774 9.115c2.13-.305 3.804.153 5.122 1.375 1.268 1.223 1.927 3.056 1.927 5.5v.204c0 2.393-.71 4.43-2.13 6.11-1.42 1.681-3.296 2.649-5.679 3.005-2.384.357-4.311-.152-5.731-1.527s-2.13-3.361-2.13-6.06v-.764c0-3.769.66-6.773 1.877-9.116 1.217-2.342 3.093-3.92 5.629-4.837 1.318-.459 2.129-.917 2.535-1.223.355-.356.558-.764.558-1.273l3.6-.509c0 1.63-.456 2.903-1.318 3.82-.862.916-2.384 1.782-4.615 2.546-1.318.458-2.333 1.12-3.093 2.036-.761.866-1.268 2.038-1.522 3.463 1.37-1.527 3.043-2.444 4.97-2.75zm-.862 3.718c-1.065.153-1.876.611-2.485 1.426-.608.815-.913 1.986-.913 3.615 0 1.426.305 2.445.863 3.107.608.662 1.419.916 2.535.764 1.065-.153 1.927-.662 2.485-1.477.608-.815.862-1.935.913-3.361v-.357c0-1.375-.305-2.342-.913-3.004-.558-.611-1.42-.866-2.485-.713zM991.175 10.949l3.195-.459c1.42-.203 2.688-.152 3.753.153 1.065.306 1.927.866 2.487 1.68.56.815.86 1.834.86 3.005 0 1.782-.66 3.26-1.927 4.532-1.319 1.273-3.043 2.088-5.274 2.394l-7.556 1.12V6.722l4.462-.662v4.889zm0 3.615v4.634l3.145-.458c.862-.153 1.572-.458 2.028-.917.456-.458.71-1.069.71-1.782 0-.713-.254-1.273-.71-1.63-.456-.356-1.166-.458-2.028-.356l-3.145.51zm17.395 5.602l-4.46.662V4.176l4.46-.662v16.652zM1018.76 6.977l2.79-5.398 4.77-.713-4.72 8.86 4.92 7.792-4.77.713-2.94-4.787-2.94 5.704-4.76.712 4.91-9.268-4.71-7.486 4.77-.713 2.68 4.584zM739.396 92.478v12.986l-7.556 1.12v-36.92l14.351-2.139c2.738-.407 5.173-.254 7.302.459 2.08.713 3.702 1.884 4.818 3.615 1.116 1.68 1.673 3.769 1.673 6.111 0 3.616-1.217 6.671-3.701 9.116-2.485 2.444-5.883 4.023-10.244 4.634l-6.643 1.018zm0-6.162l6.744-1.018c2.029-.306 3.55-1.019 4.564-2.088 1.065-1.12 1.572-2.546 1.572-4.278 0-1.833-.507-3.208-1.572-4.175-1.065-.968-2.535-1.324-4.412-1.07l-6.947 1.019v11.61h.051zM776.922 100.422c-4.007.611-7.252-.152-9.788-2.24-2.535-2.088-3.752-5.195-3.752-9.32v-.712c0-2.75.507-5.296 1.572-7.639s2.586-4.227 4.513-5.703c1.927-1.477 4.158-2.394 6.643-2.75 3.753-.56 6.694.203 8.824 2.24 2.13 2.037 3.195 5.245 3.195 9.574v3.005l-17.394 2.597c.253 1.782.963 3.106 2.13 3.972 1.166.916 2.687 1.222 4.513.967 2.789-.407 5.02-1.782 6.592-4.023l3.601 3.514c-1.116 1.731-2.586 3.157-4.463 4.278-1.825 1.12-3.904 1.884-6.186 2.24zm-.812-22.457c-1.47.203-2.637.865-3.499 1.986-.913 1.12-1.47 2.597-1.724 4.481l10.142-1.528v-.61c-.05-1.63-.456-2.801-1.318-3.565-.862-.713-2.029-.968-3.601-.764zM816.934 80.511c0 4.227-.964 7.74-2.891 10.592-1.927 2.852-4.513 4.482-7.759 4.99-2.738.408-4.969-.203-6.694-1.883v12.934l-7.302 1.07v-37.99l6.745-1.018.253 2.648c1.775-2.393 4.057-3.82 6.897-4.227 3.347-.509 5.984.357 7.86 2.597 1.876 2.241 2.789 5.551 2.789 9.93v.357h.102zm-7.303.51c0-2.547-.456-4.482-1.369-5.704-.913-1.273-2.231-1.732-3.905-1.477-2.282.356-3.854 1.477-4.716 3.361v11.254c.913 1.68 2.485 2.343 4.767 1.986 3.448-.56 5.223-3.666 5.223-9.42zM836.253 83.516c0-.917-.456-1.528-1.318-1.935-.862-.408-2.282-.612-4.26-.764-6.491-.408-9.737-2.7-9.737-6.875 0-2.444 1.015-4.634 3.043-6.57 2.029-1.934 4.666-3.157 7.911-3.615 3.448-.51 6.237-.102 8.317 1.222 2.079 1.324 3.144 3.31 3.144 5.907l-7.303 1.07c0-1.07-.355-1.884-1.014-2.445-.659-.56-1.724-.763-3.144-.56-1.217.204-2.181.612-2.84 1.274-.659.662-1.014 1.425-1.014 2.291 0 .815.406 1.426 1.166 1.782.761.408 2.08.611 3.854.713 1.826.102 3.347.255 4.615.56 3.854.866 5.781 3.005 5.781 6.519 0 2.495-1.065 4.685-3.195 6.569-2.13 1.884-4.919 3.055-8.266 3.565-2.282.356-4.31.254-6.085-.306-1.775-.56-3.144-1.477-4.158-2.75-1.014-1.273-1.521-2.75-1.521-4.38l6.896-1.018c.051 1.273.558 2.241 1.42 2.801.913.56 2.079.713 3.601.51 1.42-.204 2.434-.612 3.194-1.274.558-.713.913-1.426.913-2.291zM847.969 54.794c0-1.12.355-2.037 1.115-2.851.71-.815 1.725-1.325 2.992-1.528 1.268-.204 2.232 0 2.992.61.761.612 1.116 1.427 1.116 2.547s-.355 2.088-1.116 2.903c-.76.814-1.724 1.324-2.992 1.527-1.217.204-2.231 0-2.992-.61-.71-.612-1.115-1.477-1.115-2.598zm7.759 33.407l-7.303 1.069V61.822l7.303-1.07v27.449zM889.348 62.535l9.128-1.375v6.62l-9.128 1.375v10.338L882.4 80.51V70.173l-9.128 1.375v-6.62l9.128-1.375v-9.93l6.948-1.018v9.93zM923.831 71.956l16.076-2.394v6.111l-23.682 3.514v-36.92l7.556-1.12v30.809h.05zM959.583 72.77c-.355-.61-.558-1.374-.71-2.342-1.775 2.24-4.057 3.565-6.897 3.972-2.687.408-4.919-.05-6.643-1.324-1.775-1.273-2.637-3.106-2.637-5.5 0-2.902 1.065-5.296 3.246-7.18 2.13-1.884 5.274-3.106 9.331-3.717l3.347-.51v-1.578c0-1.273-.305-2.24-.964-2.903-.659-.662-1.673-.917-3.093-.662-1.217.204-2.181.611-2.891 1.324-.71.713-1.065 1.579-1.065 2.597l-7.302 1.07c0-1.58.507-3.158 1.47-4.635.964-1.476 2.333-2.75 4.159-3.819a16.606 16.606 0 016.034-2.037c3.347-.509 6.035-.05 8.013 1.375 1.977 1.426 2.992 3.667 2.992 6.722V65.54c0 2.597.355 4.533 1.065 5.755v.407l-7.455 1.07zm-6.035-4.226a7.22 7.22 0 002.992-1.171 6.076 6.076 0 002.029-2.241v-4.736l-2.739.407c-3.651.56-5.578 2.088-5.831 4.686v.458c0 .916.304 1.63.963 2.139.609.458 1.471.662 2.586.458zM981.339 59.174l5.071-17.824 7.809-1.17-11.004 33.354-.609 1.528c-1.622 3.82-4.31 6.01-8.063 6.57-1.065.152-2.13.152-3.245 0V76.08l1.115-.153c1.37-.204 2.435-.56 3.094-1.07.659-.509 1.217-1.324 1.623-2.342l.862-2.393-9.585-26.074 7.86-1.17 5.072 16.295zM999.543 41.248l-3.448-1.476c1.47-2.496 2.18-4.99 2.231-7.435v-4.278l5.834-.866v3.921c0 1.528-.41 3.209-1.27 5.144a15.99 15.99 0 01-3.347 4.99zM1018.26 56.475c0-.917-.46-1.528-1.32-1.935-.86-.408-2.28-.611-4.26-.764-6.49-.408-9.74-2.7-9.74-6.875 0-2.444 1.02-4.634 3.04-6.57 2.03-1.934 4.67-3.157 7.91-3.615 3.45-.51 6.24-.102 8.32 1.222s3.15 3.31 3.15 5.907l-7.31 1.07c0-1.07-.35-1.884-1.01-2.444s-1.73-.764-3.15-.56c-1.21.203-2.18.61-2.83 1.273-.66.662-1.02 1.425-1.02 2.291 0 .815.41 1.426 1.17 1.782.76.408 2.08.611 3.85.713 1.83.102 3.35.255 4.62.56 3.85.866 5.78 3.005 5.78 6.519 0 2.495-1.07 4.685-3.2 6.569-2.13 1.884-4.92 3.056-8.26 3.565-2.29.356-4.31.254-6.09-.306-1.77-.56-3.19-1.477-4.16-2.75a6.89 6.89 0 01-1.52-4.38l6.9-1.018c.05 1.273.56 2.241 1.42 2.801.91.56 2.08.713 3.6.51 1.42-.204 2.43-.612 3.19-1.274.56-.662.92-1.426.92-2.291zM730.521 135.051v-16.703l6.948-1.019c2.282-.356 4.006-.204 5.223.407 1.217.612 1.826 1.681 1.826 3.209 0 .764-.254 1.476-.761 2.189-.507.662-1.268 1.274-2.231 1.732 1.166.051 2.13.356 2.789.916.659.561 1.014 1.324 1.014 2.292 0 1.528-.558 2.801-1.724 3.819-1.166.968-2.84 1.63-5.071 1.986l-8.013 1.172zm4.463-10.593l2.738-.407c1.572-.255 2.333-.866 2.333-1.833 0-.611-.203-1.019-.659-1.171-.406-.204-1.065-.204-1.927-.102l-2.485.356v3.157zm0 3.005v3.361l3.601-.509c1.572-.255 2.332-.917 2.332-1.986 0-1.121-.76-1.579-2.231-1.375l-3.702.509zM755.167 122.88c0-1.629.304-3.157.964-4.583.659-1.375 1.572-2.546 2.738-3.412 1.217-.866 2.586-1.426 4.158-1.681 2.231-.356 4.057.102 5.477 1.274 1.42 1.171 2.231 2.902 2.383 5.245l.051 1.12c0 2.546-.71 4.736-2.13 6.467-1.42 1.783-3.347 2.801-5.73 3.158-2.384.356-4.311-.153-5.73-1.477-1.42-1.324-2.13-3.31-2.13-5.958v-.153h-.051zm4.412-.356c0 1.578.304 2.75.913 3.513.608.764 1.42 1.07 2.535.866 1.065-.153 1.927-.713 2.536-1.629.608-.917.913-2.292.913-4.125 0-1.579-.305-2.699-.913-3.463-.609-.764-1.471-1.07-2.536-.917-1.065.153-1.927.713-2.535 1.63-.609 1.018-.913 2.342-.913 4.125zM772.764 125.171c1.014-1.222 1.673-2.393 2.028-3.462.355-1.121.558-2.598.609-4.533l.101-5.499 12.221-1.834v13.088l2.384-.357v8.607l-4.463.662v-4.991l-9.838 1.477v4.99l-4.513.662v-8.606l1.471-.204zm5.223-.763l5.324-.815v-9.421l-3.448.509-.051 1.986c-.05 3.157-.659 5.704-1.825 7.741zM806.537 123.746l-4.463.662v-6.417l-5.527.815v6.416l-4.463.662v-16.703l4.463-.662v6.671l5.527-.814v-6.672l4.463-.662v16.704zM809.276 114.834c0-1.629.305-3.157.964-4.583.659-1.375 1.572-2.546 2.738-3.412 1.217-.866 2.587-1.426 4.159-1.68 2.231-.357 4.056.101 5.476 1.273 1.42 1.171 2.232 2.902 2.384 5.245l.05 1.12c0 2.546-.709 4.736-2.129 6.468-1.42 1.782-3.347 2.8-5.731 3.157-2.383.356-4.31-.153-5.73-1.477-1.42-1.324-2.13-3.31-2.13-5.958v-.153h-.051zm4.412-.305c0 1.578.304 2.75.913 3.513.609.764 1.42 1.07 2.536.866 1.064-.153 1.927-.713 2.535-1.629.609-.917.913-2.292.913-4.125 0-1.579-.304-2.699-.913-3.463-.608-.764-1.471-1.07-2.535-.917-1.065.153-1.927.713-2.536 1.63-.609.967-.913 2.342-.913 4.125zM837.877 113.867l4.361-12.069 5.578-.815v16.703l-4.462.662v-10.236l-3.956 10.847-2.992.458-3.904-9.471v10.083l-4.463.662v-16.704l5.528-.814 4.31 10.694zM873.424 113.815l-4.462.662v-5.245c-.812.255-1.623.459-2.333.56-2.485.357-4.412.102-5.68-.763-1.267-.866-1.927-2.343-1.927-4.38v-5.398l4.463-.662v5.398c0 .968.254 1.63.71 1.986.456.357 1.268.458 2.434.255a10.592 10.592 0 002.333-.611v-7.843l4.462-.662v16.703zM884.48 112.491c-2.434.357-4.412-.101-5.933-1.375-1.522-1.273-2.282-3.157-2.282-5.652v-.407c0-1.681.304-3.209.963-4.635a9.23 9.23 0 012.739-3.462c1.166-.866 2.535-1.426 4.056-1.68 2.282-.357 4.057.1 5.376 1.374 1.318 1.222 1.978 3.208 1.978 5.856v1.834l-10.599 1.578c.152 1.07.558 1.884 1.318 2.445.71.56 1.623.763 2.739.56 1.724-.255 3.042-1.07 4.006-2.445l2.181 2.139c-.66 1.07-1.572 1.935-2.688 2.597-1.217.611-2.434 1.07-3.854 1.273zm-.507-13.647a3.5 3.5 0 00-2.13 1.222c-.558.662-.913 1.579-1.065 2.75l6.187-.917v-.356c0-.968-.305-1.732-.812-2.19-.507-.458-1.217-.662-2.18-.51zM900.353 103.681l-1.775.255v6.162l-4.463.662V94.057l4.463-.662v6.263l1.572-.254 3.6-6.824 5.629-.815-5.426 8.759 5.933 7.842-5.933.866-3.6-5.551zM918.963 107.348c-2.434.357-4.412-.101-5.933-1.375-1.521-1.273-2.282-3.157-2.282-5.652v-.407c0-1.681.304-3.209.964-4.635a9.235 9.235 0 012.738-3.462c1.166-.866 2.536-1.426 4.057-1.681 2.282-.356 4.057.102 5.375 1.375 1.319 1.222 1.978 3.208 1.978 5.856v1.834l-10.599 1.578c.152 1.07.558 1.884 1.319 2.445.71.56 1.623.763 2.738.56 1.724-.255 3.043-1.07 4.006-2.445l2.181 2.139c-.659 1.07-1.572 1.935-2.688 2.597-1.217.611-2.485 1.07-3.854 1.273zm-.507-13.596a3.501 3.501 0 00-2.13 1.222c-.558.662-.913 1.578-1.065 2.75l6.187-.917v-.356c0-.968-.304-1.732-.811-2.19-.507-.458-1.217-.662-2.181-.51z" fill="#fff"/></svg>