<?xml version="1.0" encoding="utf-8"?><svg width="343" height="138" fill="none" xmlns="http://www.w3.org/2000/svg" viewBox="0 0 343 138"><path d="M17.02 109.717l6.196-11.909 10.473-1.576-10.386 19.527 10.735 17.162-10.473 1.576-6.546-10.595-6.458 12.522L0 138l10.822-20.315L.436 101.223l10.474-1.576 6.11 10.07zM98.1 123.464l-57.865 8.582v-11.559l27.318-33.274c3.753-4.64 6.546-8.669 8.291-11.996 1.833-3.327 2.706-6.392 2.706-9.107 0-3.765-.96-6.567-2.88-8.406-1.92-1.839-4.626-2.539-8.117-2.014-3.753.526-6.808 2.277-8.99 5.254-2.182 2.977-3.316 6.567-3.316 10.77l-16.845 2.452c0-5.166 1.222-10.07 3.666-14.71 2.444-4.641 5.934-8.494 10.386-11.559 4.45-3.064 9.6-5.078 15.273-5.866 8.728-1.314 15.448-.176 20.249 3.24 4.8 3.502 7.244 9.018 7.244 16.636 0 4.203-1.048 8.582-3.23 13.31-2.182 4.64-5.847 10.245-11.171 16.812l-19.201 23.117 36.307-5.341v13.659h.175zM147.848 35.376l-17.194 2.539v7.443l6.197-.876c4.538-.7 8.117-.087 10.735 1.664 2.618 1.839 4.015 4.553 4.015 8.319 0 3.765-1.309 6.917-3.928 9.631-2.618 2.627-6.109 4.379-10.473 4.992l-14.488 2.189V32.66l25.223-3.765v6.48h-.087zm-17.107 16.462v11.908l6.284-.963c2.008-.263 3.666-1.138 4.888-2.364 1.222-1.314 1.833-2.89 1.833-4.729 0-1.75-.611-3.064-1.746-3.852-1.134-.876-2.705-1.139-4.713-.876l-6.546.876zM188.257 43.081c0 3.765-.698 7.268-2.007 10.333-1.309 3.064-3.229 5.516-5.76 7.443-2.531 1.926-5.324 3.152-8.554 3.59-3.229.438-6.022.087-8.553-1.051-2.531-1.138-4.451-3.065-5.847-5.692-1.397-2.627-2.095-5.866-2.095-9.544v-1.926c0-3.766.698-7.268 2.007-10.333 1.397-3.065 3.317-5.604 5.761-7.53 2.531-1.927 5.324-3.153 8.553-3.59 3.229-.438 6.022-.088 8.553 1.05 2.531 1.139 4.451 3.065 5.76 5.78 1.397 2.714 2.008 5.954 2.008 9.719v1.751h.174zm-8.029-.525c0-4.028-.698-7.005-2.182-8.932-1.484-1.926-3.491-2.627-6.197-2.276-2.618.438-4.713 1.751-6.197 4.028-1.483 2.276-2.182 5.429-2.182 9.457v1.926c0 3.94.699 6.917 2.182 8.844 1.484 1.926 3.492 2.714 6.197 2.364 2.618-.438 4.713-1.751 6.11-4.028 1.396-2.277 2.181-5.429 2.181-9.457v-1.926h.088zM224.477 17.6v38.616l-7.942 1.138V25.218l-10.211 1.489-.611 13.747c-.262 4.641-.873 8.319-1.746 11.12-.873 2.803-2.182 4.904-3.927 6.393-1.746 1.489-4.102 2.452-7.07 2.89l-2.094.262v-6.392l1.309-.35c2.007-.526 3.404-1.927 4.276-4.116.873-2.189 1.397-5.866 1.659-11.12l.698-17.775 25.659-3.766zM239.402 29.246l6.196-.875c4.539-.7 8.117-.088 10.736 1.663 2.618 1.84 4.014 4.554 4.014 8.319 0 3.765-1.309 6.917-3.927 9.632-2.618 2.627-6.11 4.378-10.473 4.99l-14.576 2.19V16.55l7.943-1.226v13.922h.087zm0 6.48v11.909l6.284-.964c2.007-.262 3.665-1.138 4.887-2.364 1.222-1.313 1.833-2.89 1.833-4.728 0-1.752-.611-3.065-1.745-3.853-1.135-.788-2.706-1.138-4.713-.876l-6.546.876zM273.178 10.332v32.224l10.648-1.576V8.756l7.942-1.138v32.223l10.561-1.576V6.042l7.942-1.138v38.615l-45.122 6.655V11.558l8.029-1.226zM340.294 22.241l-15.186 2.277V34.85L343 32.223v6.392l-25.834 3.853V3.853L342.913 0v6.48l-17.805 2.627V18.3l15.186-2.277v6.217zM147.848 83.973l-17.194 2.54v7.443l6.197-.876c4.538-.7 8.117-.088 10.735 1.664 2.618 1.838 4.015 4.553 4.015 8.318 0 3.765-1.309 6.918-3.928 9.632-2.618 2.627-6.109 4.378-10.473 4.991l-14.488 2.189V81.259l25.223-3.765v6.48h-.087zm-17.107 16.462v11.909l6.284-.963c2.008-.263 3.666-1.139 4.888-2.364 1.222-1.314 1.833-2.89 1.833-4.729 0-1.751-.611-3.065-1.746-3.853-1.134-.875-2.705-1.138-4.713-.875l-6.546.875zM178.395 103.675l-13.877 2.102-2.619 8.318-8.465 1.226 14.313-40.717 7.331-1.05 14.401 36.426-8.466 1.226-2.618-7.531zm-11.783-4.728l9.601-1.401-4.8-13.748-4.801 15.149zM224.826 66.11v38.616l-7.942 1.138V73.728l-10.211 1.489-.611 13.748c-.262 4.64-.873 8.318-1.746 11.12-.872 2.802-2.182 4.904-3.927 6.392-1.746 1.489-4.102 2.452-7.07 2.89l-2.094.262v-6.304l1.309-.35c2.007-.526 3.404-1.927 4.276-4.116.873-2.189 1.397-5.867 1.659-11.12l.698-17.776 25.659-3.853zM263.49 60.331v38.616l-7.942 1.138V67.949l-10.299 1.576-.611 13.748c-.261 4.64-.872 8.318-1.745 11.12-.873 2.802-2.182 4.904-3.928 6.393-1.745 1.488-4.102 2.451-7.069 2.889l-2.095.263v-6.392l1.309-.35c2.008-.526 3.404-1.927 4.277-4.116.873-2.19 1.396-5.867 1.658-11.12l.698-17.776 25.747-3.853zM302.067 74.867c0 3.765-.698 7.267-2.007 10.332-1.31 3.065-3.23 5.517-5.761 7.443-2.531 1.927-5.324 3.152-8.553 3.59-3.229.438-6.022.088-8.553-1.05-2.531-1.139-4.451-3.065-5.848-5.692-1.396-2.627-2.094-5.867-2.094-9.545V78.02c0-3.765.698-7.268 2.007-10.333 1.396-3.064 3.317-5.604 5.76-7.53 2.531-1.926 5.324-3.152 8.554-3.59 3.229-.438 6.022-.088 8.553 1.05 2.531 1.14 4.451 3.066 5.76 5.78 1.396 2.714 2.007 5.954 2.007 9.72v1.75h.175zm-8.03-.613c0-4.028-.698-7.005-2.182-8.932-1.483-1.926-3.491-2.627-6.196-2.276-2.619.438-4.713 1.75-6.197 4.028-1.484 2.276-2.182 5.428-2.182 9.456v1.927c0 3.94.698 6.917 2.182 8.844 1.484 1.926 3.491 2.714 6.197 2.364 2.618-.438 4.713-1.751 6.109-4.028 1.397-2.277 2.182-5.429 2.182-9.457v-1.926h.087zM307.827 92.38V53.763l13.441-2.014c4.626-.7 8.204-.35 10.648 1.138 2.444 1.401 3.578 3.853 3.578 7.356 0 1.926-.524 3.59-1.484 5.254-.96 1.576-2.356 2.801-4.014 3.765 2.007.175 3.491.963 4.625 2.276 1.135 1.314 1.746 3.065 1.746 5.254 0 3.678-1.222 6.655-3.578 8.932-2.357 2.276-5.761 3.765-10.125 4.378l-14.837 2.276zm7.855-23.555l5.848-.876c4.015-.7 6.022-2.54 6.022-5.691 0-1.752-.524-2.977-1.484-3.59-1.047-.613-2.618-.789-4.8-.438l-5.586.788v9.807zm0 5.604v10.42l6.808-1.05c1.833-.264 3.316-.964 4.364-2.015 1.047-1.05 1.571-2.364 1.571-3.94 0-3.503-1.833-5.079-5.499-4.553l-7.244 1.138z" fill="#fff"/></svg>