<?xml version="1.0" encoding="utf-8"?><svg width="375" height="1048" fill="none" xmlns="http://www.w3.org/2000/svg" viewBox="0 0 375 1048"><path fill="#1B1C1D" d="M-270 301.426l818.94-128.697 16.697 106.247-818.94 128.697z"/><path d="M109 329.729l322-49.5v376.499H-61V342.729l438.5-65-268.5 52z" fill="url(#agpaint0_linear)"/><path d="M109 407.729l322-49.5V1043.5H-61V420.729l438.5-65-268.5 52z" fill="#fff"/><path fill="#131313" d="M-292 312.426l818.94-128.697 16.697 106.247-818.94 128.697z"/><path d="M109 721l322-49.5V1048H-61V734l438.5-65L109 721z" fill="url(#agpaint1_linear)"/><path d="M109 773l322-49.5v685.27H-61V786l438.5-65L109 773z" fill="#131313"/><defs><linearGradient id="agpaint0_linear" x1="210.5" y1="380.728" x2="185" y2="186.728" gradientUnits="userSpaceOnUse"><stop stop-color="#EE312F"/><stop offset="1" stop-color="#060000"/></linearGradient><linearGradient id="agpaint1_linear" x1="210.5" y1="771.999" x2="185" y2="577.999" gradientUnits="userSpaceOnUse"><stop stop-color="#EE312F"/><stop offset="1" stop-color="#060000"/></linearGradient></defs></svg>