<?xml version="1.0" encoding="utf-8"?><svg width="375" height="655" fill="none" xmlns="http://www.w3.org/2000/svg" viewBox="0 0 375 655"><g opacity=".3" fill="#D7C08A"><path d="M497.861 190.407c-25.608-13.531-58.1-16.618-58.1-16.618 7.638 5.151 38.312 24.418 59.08 37.709 25.457 8.222 12.505-15.882-.98-21.091zM513.175 166.329c-13.147.028-27.115 6.178-27.115 6.178s17.36-.829 26.773.615c9.412 1.445 17.712 2.254 18.293-1.197.581-3.45-4.732-5.437-17.951-5.596zM515.35 158.169c4.92-.651 9.947-.484 13.007-1.476 2.127-.623 2.881-1.994 2.814-3.257-6.9 1.646-12.46 3.409-15.821 4.733zM514.924 177.882c-18.418-2.405-37.352-.096-37.352-.096s24.164 6.583 30.29 9.538c5.939 3.029 15.083 11.452 20.551 6.719 5.654-4.806 5.117-13.83-13.489-16.161zM537.824 132.558c-4.145-3.95-21.784 16.963-21.971 17.037 0 0 26.043-13.273 21.971-17.037z"/><path d="M484.798 45.64c-29.431-4.078-38.71 13.97-38.113 25.333.597 11.363 21.296 12.44 21.087-1.224-.21-13.663-15.898-6.406-15.898-6.406 17.062-29.492 61.328-10.213 69.819 18.442 8.418 28.469-5.528 71.338-33.79 82.264-27.703 10.704-56.879 1.801-57.919 1.352 55.666 18.651 86.813-6.298 96.118-45.62 9.305-39.32-11.986-69.804-41.304-74.14z"/><path d="M501.06 81.971s9.139 3.486 13.527 21.731c4.388 18.244-12.226 41.761-12.226 41.761s19.606-19.756 15.686-41.192c-3.734-21.51-16.8-22.373-16.987-22.3z"/><path d="M482.825 91.522c-24.864-7.811-39.129 9.624-41.614 25.209-2.484 15.584 5.119 26.118 17.285 27.981 12.166 1.862 17.721-4.838 18.81-11.925 1.088-7.087-7.916-14.062-14.83-10.263-6.915 3.8-3.017 11.499-3.017 11.499s.382-7.239 7.276-7.808c6.893-.569 9.983 11.099-.691 14.663-10.675 3.563-17.564-7.897-14.935-17.095 2.629-9.198 11.763-10.65 21.689-7.905 9.925 2.746 15.922 14.128 6.971 27.536-7.07 10.519-12.216 11.688-33.218 16.96 0 0 27.792 4.294 46.289-11.159 18.238-15.565 14.848-49.882-10.015-57.693zM524.412 150.516c-7.046 1.275-18.656 11.22-18.656 11.22 2.321-1.774 5.194-2.692 8.028-3.164 5.194-2.692 10.461-5.198 15.688-7.258-1-.895-2.673-1.309-5.06-.798zM334.384 194.278c-14.9.504-40.858 17.823-40.858 17.823 17.94 1.735 34.207 20.022 48.913 20.669 7 .248 16.96-2.39 19.611-14.818 2.77-13.764-9.08-24.127-27.666-23.674zm19.172 24.015c-.94 1.445-2.547 2.293-4.22 1.879-2.047-.268-3.673-2.204-3.585-4.171-1.674-.415-3.42-1.015-5.54-1.468-2.821 4.334-9.627 2.936-10.412-2.339-9.819-1.929-20.425-3.118-28.666-1.588 0 0 13.955-3.997 29.474-2.382 1.167-1.963 3.521-3.106 5.827-2.726 2.493.305 4.379 2.354 4.698 4.806 2.007.712 4.013 1.425 6.093 2.323.974-.813 2.167-1.069 3.32-.879 2.307.38 3.819 2.576 3.505 5.062.927.709 1.926 1.603 2.926 2.498.073.186-1.226-.376-3.42-1.015zM358.396 109.641c-6.806-1.398-21.874 1.963-29.467 24.287-7.78 22.396-11.35 33.039-11.35 33.039s36.926-20.139 46.408-29.461c9.483-9.322 5.901-25.523-5.591-27.865zm7.315 14.728l-5.04 1.987c-.194 1.15-1.021 2.335-2.141 2.777-.934.367-1.9.104-2.753-.419-1.421.775-3.027 1.623-4.448 2.398.286 1.82-.767 3.524-2.521 4-1.12.442-2.273.252-3.2-.457-1.16.887-2.393 1.588-3.367 2.402l.513 1.301c.839 2.676-.595 5.604-3.282 6.448-1.753.477-3.426.062-4.686-.945-10.383 10.322-13.872 20.073-13.872 20.073s2.669-9.643 12.986-21.227c-.147-.372-.553-.856-.513-1.301-.839-2.676.595-5.604 3.282-6.448 1.566-.403 3.166-.175 4.613.759l3.48-2.661-.146-.372c-.546-1.932.548-4.082 2.488-4.632 1.566-.403 3.053.085 3.939 1.239 1.42-.774 2.914-1.363 4.034-1.804l-.147-.372c-.472-1.747.395-3.377 2.075-4.04 1.753-.476 3.386.384 3.859 2.13l.074.186c2.946-.732 4.773-1.022 4.773-1.022z"/><path d="M419.107 177.205c-55.087-16.087-118.525 3.549-134.301 35.756 0 0 42.913 44.297 86.363 51.655 43.376 7.172 56.258 2.095 56.258 2.095s2.57-11.538-9.568-17.707c0 0 13.891 5.693 28.273-1.05 2.353-1.142 5.04-1.987 7.874-2.459-3.455-18.613-11.712-25.882-15.444-30.425 11.871 7.134 15.925 25.08 16.897 30.282 1.64-.217 3.54-.322 5.253-.353-4.246-22.811-20.355-36.865-20.355-36.865 16.763 10.789 21.317 32.19 22.069 36.834 2.16.008 4.393.201 6.366.283-5.899-26.456-26.079-44.274-26.079-44.274 18.876 12.319 27.314 37.558 28.386 44.653 1.859.341 3.646.496 5.246.724-7.544-31.176-31.478-50.308-34.517-52.546 24.763 11.932 36.365 49.026 37.53 53.077 2.12.453 3.606.941 3.606.941s-8.77-54.533-63.857-70.621zm-52.237 38.203c12.667-.697 47.413-.648 47.705 23.077 0 0-5.326-22.814-48.179-18.809l.193-1.151c-.087 1.968-.694 3.711-1.115 5.38 10.127.519 32.598 3.903 36.452 24.077 0 0-8.741-18.892-38.413-20.297-1.053 1.704-1.727 2.184-3.001 3.33 7.806 2.293 20.691 8.168 23.433 21.692 0 0-6.615-13.501-26.313-19.697-1.907 1.181-4.034 1.805-6.234 2.242 4.939 2.134 12.171 6.801 15.161 16.576 0 0-6.329-11.68-21.608-15.967a55.136 55.136 0 01-9.379-.814c1.959 2.235 11.129 12.366 16.888 14.392 0 0-17.871-6.487-32.573-19.163-2.333-2.087-4.779-3.915-6.892-5.445-12.17-6.8-25.688-12.641-25.688-12.641s25.846-23.074 46.139-22.482c3.686.05 4.513-1.135 7.786-.492 14.12-.841 30.093-.264 28.922-9.253 0 0 4.47 11.34-18.11 13.153l2.453.751c6.333-.348 26.427-3.544 37.338 2.25 0 0-21.625-1.785-33.519.326 1.966 1.158 1.78 1.231 3.259 2.796 10.8.038 37.459.913 50.623 9.685 0 0-24.344-7.586-47.744-5.665.96 1.34.919 1.785 1.506 3.272 12.846.306 45.271 2.13 52.501 12.811 0 0-22.156-11.886-51.563-8.241.173 2.08.06 2.339-.028 4.307z"/><path d="M363.351 57.644c4.858-13.943-9.613-22.2-9.613-22.2-40.858 17.824-43.376 55.758-40.431 84.023 2.872 28.078-16.514 71.372-16.514 71.372s16.995-7.773 35.791-17.544c18.796-9.771 48.874-7.882 71.871-22.316 23.184-14.508 31.658-40.615 31.658-40.615-6.624-6.41-22.424-4.907-22.424-4.907s18.171-16.828 17.449-31.792c-.239-3.343.675-6.495 1.923-9.35-9.898-7.052-17.344-7.338-21.584-8.244 8.2-1.085 16.772 3.698 22.037 7.207.567-1.298 1.394-2.483 2.035-3.594-12.644-8.547-26.197-9.004-26.197-9.004 11.18-1.185 21.352 3.826 27.47 7.857 1.014-1.258 1.841-2.443 2.928-3.516-15.73-9.264-32.41-9.992-32.41-9.992 12.821-1.402 25.745 4.028 33.87 8.772.901-1 1.874-1.813 2.661-2.552-18.59-10.5-38.143-10.31-40.676-10.17 14.807-3.474 31.818 3.566 42.136 8.95 2.134-1.7 3.668-2.735 3.668-2.735-41.416-33.933-85.648 10.35-85.648 10.35zm54.368 12.075l.26.112s-.073-.186-.26-.112c-3.306-1.275-28.763-9.496-52.556 35.75 2.34 1.011 4.079 2.688 5.779 4.81 7.368-4.837 24.332-19.256 40.388-8.617 0 0-15.824-6.22-38.509 11.743 1.139 2.343 1.978 5.019 2.257 7.916 7.307-1.162 26.201-3.025 35.945 4.732 0 0-16.557-8.079-35.786-.499-.134 3.489-1.162 6.901-2.896 10.162 2.346-.066 20.486-.558 28.297 6.673 0 0-11.89-9.918-34.207 2.959-18.616 10.775-38.425 21.805-57.408 31.65 5.212-16.874 8.904-34.868 17.169-51.657 1.642-6.231.963-10.689-.649-14.778-2.532-5.875-6.032-5.999-6.032-5.999s6.527-1.499 11.657 11.514l2.92-2.44c.901-1 1.688-1.739 2.588-2.739.621-3.896 5.189-30.61-4.135-40.037 0 0 14.124 10.112 8.589 36.563 3.067-2.068 4.861-2.989 7.808-3.721 2.516-8.939 14.86-46.022 32.328-52.048 0 0-16.303 10.077-27.482 51.211 2.98-.101 5.953.875 9.04 1.592 3.742-8.563 24.707-48.4 54.895-34.74zM261.878 130.718c-11.907 4.264-13.277 14.469-12.092 21.304 2.475 14.489 22.944 28.113 27.039 45.614 0 0 13.701-28.167 12.232-42.837-1.928-18.57-13.704-28.748-27.179-24.081zm15.296 59.049c.389-8.315-2.188-18.683-5.292-28.198-5.213-.093-7.591-6.673-3.77-10.112l-2.052-5.205c-2.013.364-4.053-.98-4.599-2.913-.472-1.746.135-3.489 1.482-4.45-1.066-2.157-1.579-3.458-1.579-3.458l2.999 2.684c2.313-.697 4.653.314 5.419 2.804.439 1.115.132 2.525-.395 3.377 1.18 1.898 2.359 3.795 3.092 5.654 2.42.12 4.533 1.65 5.485 4.067.693 2.304-.068 4.752-1.901 6.119 3.215 15.27 1.111 29.631 1.111 29.631z"/><path d="M216.114 15.164l1.319 3.346c4.353.647 42.744 7.207 57.79 30.057-2.553-2.645-24.759-23.961-56.617-27.082.586 1.487 1.059 3.234 1.532 4.98 6.926.062 33.297 5.131 47.972 22.113 0 0-20.295-17.559-47.467-19.735.547 1.933.979 4.125 1.152 6.204 4.58.128 26.579 1.766 39.44 16.886 0 0-16.108-14.055-39.227-15.251.213 1.634.239 3.342.265 5.05 5.286.279 23.599 1.866 32.355 12.59-5.119-3.137-13.376-10.406-32.289-11.328.019 2.785-.408 5.53-1.356 8.052-4.864 15.02 2.872 28.078 2.872 28.078-7.637-11.165-18.797-7.195-18.797-7.195s-3.551 13.427 9.583 55.501c13.06 41.889 62.614 78.413 62.614 78.413 29.886-19.942 40.998-85.319 17.615-137.529-23.384-52.21-78.756-53.15-78.756-53.15zm82.121 102.726c-9.087-.069-6.545 15.682-5.482 29.868 1.059 3.234-.028 4.306.544 7.947 3.22 20.208-16.181 48.69-16.181 48.69s-7.776-12.614-16.046-23.745c-1.886-2.048-3.959-4.023-6.365-6.297-14.589-12.935-23.343-29.673-23.343-29.673 2.831 5.542 14.029 13.156 16.588 14.724-.986-3.048-1.785-6.169-2.137-9.252-6.422-14.651-18.607-19.298-18.607-19.298 10.119 1.595 15.737 8.187 18.649 12.838.201-2.227.588-4.527 1.495-6.603-8.667-18.706-23.012-23.361-23.012-23.361 13.773 1.015 21.255 12.885 24.633 20.359 1.127-1.518 1.467-2.296 3.001-3.33-5.284-29.275-25.169-35.398-25.169-35.398 20.586 1.336 26.999 23.078 28.723 32.923 1.42-.775 3.287-1.511 5.114-1.801l-1.194.256c-1.693-43.148-24.919-45.161-24.919-45.161 23.48-2.812 28.397 31.547 29.246 44.099 2.014-.364 2.387-.511 4.1-.542-.291-29.74-15.131-49.878-15.131-49.878 11.545 5.759 17.595 37.524 19.858 50.378 1.6.228 2.119.453 3.419 1.014-1.299-23.543-12.099-46.563-12.099-46.563 10.35 12.03 14.835 38.182 16.219 48.806 1.779 1.231 1.706 1.045 3.072 2.869.45-11.99-4.03-33.205-4.03-33.205 7.383 9.976 6.617 30.467 7.322 36.633l.953 2.416c-.933-22.613 10.779-19.713 10.779-19.713zM271.062 207.64c-5.147 1.17-8.382 6.096-7.223 11.224 1.085 4.941 6.09 8.338 11.05 7.242 4.961-1.096 8.195-6.023 7.224-11.224-1.086-4.942-6.018-8.152-11.051-7.242zM240.855 254.126c-6.541 3.652-15.236 12.235-18.197 15.12 4.494-3.919 16.655-6.995 20.755-7.537 4.213-.802 17.293-2.091 15.135-8.114-2.158-6.022-9.732-3.896-17.693.531zM247.482 231.54c-4.119-2.243-7.754 1.123-12.009 8.385-4.329 7.075-15.835 29.867-15.835 29.867s16.205-17.986 22.712-22.269c6.508-4.283 9.251-13.741 5.132-15.983zM225.884 225.448c-3.62 1.212-5.021 4.771-3.271 16.324 1.936 11.479-4.155 26.122-4.155 26.122s7.791-12.521 11.327-23.794c3.35-11.201-.094-19.938-3.901-18.652z"/><path d="M194.907 218.543c6.998 6.262 1.717 10.921.2 20.755-1.443 10.019 4.008 19.468 8.099 26.017 4.351 6.662 2.401 20.317 2.401 20.317 4.841-5.774 19.094-27.071 13.34-47.14-5.68-19.883-24.04-19.949-24.04-19.949zM233.373 219.275a92.393 92.393 0 01-1.733-2.754c1.994-3.149-1.444-6.948-4.658-5.252-1.26-1.006-2.446-1.827-3.486-2.277.021-3.23-4.552-4.434-5.986-1.506-6.48-.023-11.648 4.376-11.648 4.376s4.828-3.621 11.301-2.521c.392 2.637 3.552 3.54 5.426 1.727.853.523 1.706 1.046 2.632 1.754-.226.519-.267.965-.307 1.41-.167 2.858 2.725 4.725 5.339 3.695l1.439 2.01c-.973.813-1.613 1.925-1.734 3.261-.167 2.858 2.165 4.945 4.885 4.732 1.185 6.836-1.677 11.615-1.603 11.801.186-.074 3.681-4.888 2.983-12.13 1.494-.589 2.434-2.033 2.481-3.555-.092-2.971-2.758-5.356-5.331-4.771zM264.175 230.114c-4.96 1.096-8.195 6.023-7.223 11.224 1.085 4.942 6.091 8.338 11.051 7.242 4.96-1.096 8.195-6.022 7.223-11.224-.898-5.015-5.831-8.225-11.051-7.242zM249.797 201.847c-4.96 1.096-8.195 6.022-7.223 11.223 1.085 4.942 6.091 8.338 11.051 7.242 4.96-1.096 8.195-6.022 7.223-11.223-.972-5.202-5.904-8.412-11.051-7.242zM511.057 159.862l4.293-1.693c-.446-.039-1.006.182-1.453.144-.86.553-1.907 1.181-2.84 1.549z"/><path d="M529.659 151.24c-5.414 2.135-10.495 4.567-15.689 7.258.374-.147 1.007-.182 1.454-.143 3.36-1.324 8.92-3.087 15.821-4.733-.18-1.003-.546-1.932-1.586-2.382zM219.334 459.991c2.76-.658 25.968-7.444 40.587-27.811a27.35 27.35 0 01-4.053-.98c-2.861 4.779-16.446 20.658-33.933 23.9 0 0 19.895-6.983 32-24.427-1.486-.488-3.16-.902-4.719-1.576-1.995 3.149-11.545 17.223-26.946 20.287 0 0 15.788-5.365 25.719-20.662-1.3-.562-2.413-1.197-3.526-1.832-2.294 3.482-10.564 15.333-21.151 16.928 4.074-2.25 12.248-5.042 20.298-17.451-1.78-1.232-3.559-2.463-5.039-4.028-8.357-9.163-20.163-9.019-20.163-9.019 10.693-.779 12.243-9.981 12.243-9.981s-7.771-7.676-41.315-15.072c-33.617-7.583-77.875 12.01-77.875 12.01 1.792 28.075 41.874 60.815 86.572 65.319 44.697 4.503 67.021-32.432 67.021-32.432s-1.08-.004-2.753-.419c-2.101 2.332-21.507 25.875-42.967 27.246zm-56.724-27.899c-1.493.589-1.42.775-3.06.992 8.012 5.003 24.103 10.258 24.103 10.258-9.727 1.042-23.377-7.323-27.796-9.232l-2.047-.267c15.851 7.927 9.102 14.883 9.102 14.883 3.615-6.15-8.05-10.573-18.075-15.212-2.566-.492-3.006-1.608-5.606-2.731-14.971-5.696-26.843-29.797-26.843-29.797s11.546-.256 22.393-1.739c2.2-.438 4.327-1.061 6.754-2.018 14.481-4.849 29.374-4.276 29.374-4.276-4.84-.24-14.441 4.404-16.608 5.473 2.379.565 4.759 1.13 7.099 2.141 12.392 1.344 20.368-5.236 20.368-5.236-5.069 6.293-11.669 7.606-15.989 7.591 1.52 1.119 2.779 2.126 3.739 3.466 16.079 1.394 24.881-6.371 24.881-6.371-5.942 9-17.042 9.295-23.295 8.753.699 1.227.919 1.785 1.132 3.419 21.884 7.912 33.8-3.443 33.8-3.443-8.95 13.408-26.129 9.225-33.561 6.786-.12 1.336-.241 2.672-.735 4.155l.267-.964c29.842 15.514 40.553.553 40.553.553-7.299 17.052-32.408 6.976-41.394 2.785-.493 1.484-.607 1.743-1.247 2.855 20.223 11.358 39.863 9.201 39.863 9.201-8.342 5.651-32.532-2.641-41.931-6.239-.9 1-1.013 1.259-2.06 1.886 16.37 8.153 36.209 9.783 36.209 9.783-11.787 2.928-31.477-4.345-39.39-7.455zM67.932 433.759c-2.934 4.593-4.997 12.493 2.334 19.054 8.258 7.269 19.866 3.338 26.69-9.446 5.502-10.116 3.836-34.589 3.836-34.589-7.97 11.518-26.764 15.275-32.86 24.981zm21.106 1.56c.846 1.6.759 3.567-.442 4.899-1.127 1.518-3.254 2.142-5.073 1.356-1.274 1.146-2.547 2.293-3.894 3.253.18 1.003-.088 1.967-.688 2.634-1.127 1.518-3.287 1.51-4.806.391l-2.8 1.104s.786-.74 2.247-1.96c-.627-1.042-.58-2.564.32-3.563 1.014-1.259 2.84-1.549 4.214-.802.9-.999 1.987-2.072 3.074-3.145-1.839-3.57 1.95-7.641 5.775-6.142 5.215-5.922 10.064-12.773 12.225-18.78-.26-.112-2.976 11.054-10.152 20.755z"/><path d="M114.055 419.444s-1.397 14.512-2.176 31.142c-.591 16.556-13.79 36.149-12.923 57.5.867 21.351 15.361 37.33 15.361 37.33 7.014-1.906 12.004-13.323 12.004-13.323s4.421 18.876 14.739 24.26c2.413 1.196 4.153 2.873 5.665 5.069 8.628-3.83 11.789-8.943 14.077-11.348-2.349 6.081-9.003 9.992-13.524 12.204.553.856 1.18 1.898 1.546 2.827 10.948-5.604 16.517-14.457 16.517-14.457-3.515 8.043-10.883 12.881-16.077 15.572l1.319 3.347c12.521-7.084 19.631-18.048 19.631-18.048-4.156 9.155-12.878 16.03-19.045 19.535.18 1.003.546 1.932.652 2.749 14.356-8.45 21.853-21.715 22.833-23.605-3.463 11.46-14.879 20.255-22.506 24.98.359 2.006.498 3.455.498 3.455 39.051-14.748 26.285-61.908 26.285-61.908 7.504 8.64 18.719 2.072 18.719 2.072 3.837-34.589-20.971-51.013-41.321-59.959-20.383-9.577-42.274-39.394-42.274-39.394zm50.184 48.518s-1.521 4.896-12.46 3.409l.539 3.009c.366.929.546 1.932.652 2.749 2.26 1.902 18.782 15.364 28.742 12.726 0 0-12.288 5.488-28.136-8.454.092 2.971.045 4.493-.602 6.681 5.105 5.29 25.477 27.973 22.666 42.183 0 0-.462-14.853-24.067-38.624-1.094 2.149-3.041 3.776-4.729 5.515 4.132 6.104 23.156 35.762 1.978 50.982l-.373.147.373-.147c2.134-1.7 17.531-15.716-3.811-49.615-1.721 1.108-3.401 1.77-5.487 1.948.364 6.944 3.606 23.923-9.883 30.743 0 0 10.483-8.427 7.163-30.53-1.974-.081-4.167-.72-6.173-1.433-2.195 5.376-8.279 18.943-17.24 22.475 0 0 11.896-8.126 14.234-24.082-2.3-1.456-4.372-3.431-5.772-5.886-.867 1.63-7.577 14.155-15.524 16.428 0 0 11.347-4.043 11.294-24.426-.115-16.707.15-34.638.928-51.268 9.43 10.243 20.207 19.526 28.47 31.733 3.552 3.54 6.858 4.814 10.245 5.197 5.319.911 6.973-1.46 6.973-1.46z"/><path d="M34.964 440.955c-21.847 26.653-23.444 37.377-23.444 37.377s6.925 6.076 15.64.278c0 0-9.282 7.096-10.406 19.566-.274 2.041-.734 4.156-1.455 6.158 13.972 4.802 22.145 2.01 26.806 1.247-9.568 5.275-23.32 1.03-27.073-.283-.567 1.298-1.207 2.409-1.774 3.707 17.277 6.076 32.992.526 32.992.526-13.788 7.153-30.326 1.859-33.633.585-.94 1.445-1.694 2.816-2.708 4.075 20.218 6.42 40.186-.377 40.186-.377-15.582 8.075-36.187 3.955-41.313 1.895-.827 1.185-1.727 2.184-2.627 3.183 24.124 7.029 46.526-1.801 49.066-3.017-17.656 12.114-47.407 5.585-50.753 4.756-1.2 1.332-1.988 2.072-1.988 2.072s40.382 15.441 72.797-15.593c32.415-31.033 43.73-81.671 28.09-104.931.407.484-46.482 12.308-68.403 38.776zm65.524 3.167c-1.394 2.482-.954 3.598-2.755 5.596-4.943 9.895-11.566 20.453-4.88 23.187 0 0-9.412-1.444-1.861-17.308l-1.387 1.406c-2.188 4.299-7.946 19.24-16.247 24.446 0 0 9.55-14.074 12.773-22.862-1.607.848-1.42.775-2.987 1.178-4.255 7.261-15.207 24.894-26.342 30.572 0 0 14.537-13.462 22.429-30.104-1.267.07-1.527-.042-2.867-.159-5.196 8.707-19.075 29.856-29.322 30.674 0 0 16.603-10.411 25.642-31.801-1.3-.561-1.56-.673-2.746-1.494-4.489 8.857-18.122 32.272-34.34 23.415 0 0 17.432 5.372 31.634-25.356l.853.523c-1.186-.821-2.259-1.901-3.259-2.796-4.288 6.63-15.439 20.476-30.637 15.298 0 0 16.34 1.506 28.645-18.164-.773-1.413-.993-1.971-1.132-3.42-4.535 4.365-13.59 10.941-23.809 7.452 0 0 11.727.747 23.603-10.163-.026-1.708.394-3.377.815-5.046-3.294 2.587-9.422 5.647-17.268 3.8 0 0 10.24.259 19.31-8.471 1.093-2.149 2.634-4.26 4.32-5.999-2.386.512-12.753 2.665-16.46 5.845 0 0 11.309-9.613 25.717-14.648l6.533-2.575c9.422-5.647 18.59-12.483 18.59-12.483s5.679 25.898-2.565 39.457zM122.322 442.603s-.884 32.78 1.807 42.888c2.69 10.108 14.955 13.865 21.07 6.944 3.601-3.997 7.251-15.53-4.911-29.422a10107.985 10107.985 0 01-17.966-20.41zm14.472 25.224c-.381 1.224-1.281 2.223-2.328 2.851.253 1.189.246 2.265.426 3.268.186-.073.26.113.446.039 1.6.228 2.446 1.828 2.213 3.424-.194 1.15-1.354 2.037-2.361 2.219-.12 1.336-.127 2.412-.321 3.563 0 0 .187-.074.26.112 1.413.302 2.113 1.53 1.806 2.939-.307 1.41-1.541 2.111-2.954 1.809l-.26-.112c-.761 2.447-1.328 3.745-1.328 3.745.307-1.41.428-2.746.735-4.156-.853-.523-1.22-1.452-1.026-2.602.153-.705.754-1.371 1.5-1.666.121-1.336.054-2.598.175-3.934-1.3-.562-2.073-1.975-1.766-3.385.267-.965.681-1.557 1.614-1.925.007-1.077-.246-2.266-.426-3.269-.446-.038-.633.035-1.08-.004-2.119-.453-3.632-2.649-2.985-4.837.307-1.409 1.208-2.409 2.514-2.924-3.056-11.037-8.081-17.218-8.081-17.218s5.512 5.774 9.275 16.963c.447.038.82-.109 1.153.189 1.747.601 3.259 2.797 2.799 4.911zM117.327 403.12s13.76 20.135 24.492 24.925c13.331 5.914 24.865 1.797 26.835-9.074 1.776-9.721-4.709-14.682-9.761-16.556-10.739-3.714-28.074 4.837-41.566.705zm45.341 14.344c-.347 1.855-2.067 2.963-3.927 2.622-.967-.263-1.82-.786-2.186-1.715-1.714.031-3.427.062-5.214-.093-1.053 1.704-2.92 2.44-4.78 2.099-1.86-.341-3.153-1.979-3.366-3.613-11.672-3.346-20.676-10.321-20.676-10.321 5.452 3.435 13.518 5.84 21.217 7.315 2.035-3.594 7.428-2.498 8.333 1.441 1.6.228 2.94.345 4.353.647.494-1.484 2.287-2.406 3.774-1.918 1.413.303 2.299 1.457 2.552 2.646 1.787.154 2.867.158 2.867.158-1.007.182-2.014.364-2.947.732zM318.121 295.836c-1.201 1.332-2.214 2.591-3.488 3.737-.9.999-1.874 1.813-2.774 2.812-.9.999-1.987 2.072-2.961 2.885-1.087 1.073-2.247 1.96-3.334 3.033-.787.739-1.761 1.553-2.547 2.292-1.274 1.147-2.621 2.107-3.968 3.068-.86.554-1.46 1.22-2.32 1.773-1.534 1.035-2.994 2.255-4.528 3.289l-2.02 1.44-5.161 3.323c-.487.407-1.047.628-1.534 1.034-1.907 1.182-3.887 2.177-5.794 3.358-.373.147-.86.554-1.233.701-2.167 1.069-4.074 2.25-6.241 3.319-.374.147-.56.221-.86.554-2.167 1.069-4.521 2.212-6.761 3.095l-.56.22c-2.354 1.143-4.781 2.099-7.208 3.056l-.373.147c-2.427.957-5.04 1.987-7.541 2.758l-.186.073c-10.415 3.676-73.997 16.926-95.682 12.801l-.186.074c-1.974-.081-3.947-.163-5.807-.503-.26-.113-.633.034-.893-.078-1.787-.155-3.387-.383-5.173-.538-.447-.039-1.153-.19-1.6-.229-1.6-.228-3.127-.271-4.54-.573-.706-.151-1.413-.302-2.233-.193-1.34-.117-2.753-.419-4.093-.535-.893-.077-1.86-.341-2.753-.418-1.153-.19-2.307-.38-3.647-.496-1.153-.189-2.119-.453-3.273-.643a18.295 18.295 0 00-3.013-.53c-1.226-.376-2.566-.492-3.793-.868-.706-.151-1.6-.228-2.379-.565-2.12-.453-4.053-.98-6.06-1.692-47.175-12.978-97.295-8.256-133.36 11.329 1.073 1.081 1.066 2.158 1.839 3.571 35.091-18.772 75.539-25.05 132.838-5.54 62.986 21.351 219.427-17.333 222.255-68.707-1.54 2.111-3.268 4.295-5.068 6.294-.787.739-1.387 1.406-1.987 2.072zM-41.395 380.202c-6.575 3.021-15.523 10.415-18.557 13.114 4.714-3.362 16.42-5.399 20.407-5.682 4.174-.356 16.727-.794 15.089-6.591-1.712-5.984-8.945-4.636-16.94-.841zM-16.272 365.144c-1.413-.302-2.76.659-3.327 1.956-1.267.07-2.72.213-3.913.469-.513-1.301-1.7-2.122-3.113-2.424-2.306-.38-4.44 1.32-4.827 3.621-.154.705-.12 1.336.1 1.894-3.515 2.029-5.242 4.213-5.242 4.213s2.134-1.7 5.607-3.284c.627 1.042 1.74 1.677 2.966 2.053 2.307.379 4.44-1.321 4.828-3.622.04-.445.154-.704.007-1.076 1.007-.182 2.2-.438 3.28-.434.14 1.448 1.213 2.529 2.552 2.645 1.414.302 2.76-.658 3.328-1.956 5.499 1.913 7.85 6.785 7.85 6.785s-.964-6.277-7.616-8.38c-.253-1.189-1.326-2.27-2.48-2.46zM-45.085 346.218c-.447-.039-.707-.151-1.08-.004-.367-.929-.92-1.785-1.473-2.641.3-.333.454-1.038.68-1.557.275-2.041-1.018-3.679-2.878-4.02-.707-.151-1.267.07-1.827.291-1.073-1.081-2.26-1.902-3.186-2.611.234-1.595-.985-3.047-2.585-3.276-1.34-.116-2.46.325-3.1 1.437-6.253-.542-11.381 3.412-11.381 3.412s4.86-2.99 11.033-1.557c.14 1.448 1.213 2.529 2.626 2.831.893.077 1.713-.031 2.314-.697.853.523 1.78 1.231 2.519 2.014-.3.333-.34.778-.567 1.297-.347 1.855 1.019 3.679 3.065 3.947.707.151 1.267-.07 1.64-.217.48.67.96 1.34 1.253 2.083-1.047.628-1.687 1.739-1.88 2.889-.388 2.301 1.311 4.423 3.618 4.803.26.112.633-.035.893.077.738 6.797-2.457 11.278-2.457 11.278s3.901-4.33 3.91-11.421c1.307-.515 2.507-1.848 2.741-3.443.054-2.599-1.572-4.535-3.878-4.915z"/><path d="M-53.573 351.497c-3.58.767-5.315 4.028-4.345 15.244.97 11.215-5.934 24.89-5.934 24.89s8.417-11.479 12.506-21.897c4.09-10.418 1.28-19.19-2.227-18.237zM-45.698 366.005c-4.735 6.591-17.421 27.485-17.421 27.485s16.824-15.867 23.292-19.705c6.54-3.652 9.95-12.513 6.204-14.903-3.745-2.389-7.266.717-12.075 7.123zM-60.026 393.13c-.3.333-.673.48-.973.813 0 0 .373-.147.973-.813zM-48.405 278.153c-3.772-4.097-6.352-2.436-8.892-1.22-2.54 1.216-2.096 7.27-1.997 9.163.1 1.894-.895 5.937-.895 5.937s-.458-3.899-.85-6.537c-.393-2.637-.325-7.389-4.338-8.814-3.826-1.499-5.114 1.801-6.46 2.761-1.275 1.146-3.368 2.401-5.495 3.025-2.127.623-3.575 5.704-.202 8.241 3.372 2.537 10.457 6.832 10.457 6.832s-9.025-3.745-11.939-2.382c-2.653 1.476-5.794 3.358-3.742 8.563 2.051 5.205-3.03 7.637 3.463 11.522 5.379 3.249 12.141-5.86 14.436-9.342.413-.592.713-.925.827-1.185-.594-.41-1.073-1.08-1.48-1.565-1.247 2.855-4.655 5.701-7.008 6.844 0 0 3.967-3.068 4.801-5.329 0 0-2.507 1.847-5.194 2.691 0 0 4.828-3.621 4.308-3.845-2.88 1.994-7.24 2.424-7.24 2.424s7.287-3.946 6.02-3.877c-4.367 1.507-8.906.934-8.906.934s8.833-1.12 8.207-2.161c-1.34-.116-5.92-.244-5.8-1.58 2.153 1.084 7.373.1 9.9 1.037-.033-.631.12-1.336.46-2.114.34-.779.754-1.371 1.168-1.964-3.2-.457-7.24-3.59-8.825-5.972 0 0 3.666 3.281 6.045 3.846 0 0-2.146-2.161-3.358-4.69 0 0 4.478 4.249 4.445 3.617-2.552-2.645-3.718-6.696-3.718-6.696s5.172 6.553 4.845 5.178c-2.245-4.055-2.477-8.474-2.477-8.474s2.477 8.474 3.524 7.847c-.066-1.263-.558-5.794.635-6.05-.574 2.374 1.031 7.541.53 10.101 1.307-.515 2.947-.732 4.434-.244-.8-3.122.422-7.684 1.89-9.981 0 0-1.408 4.636-.902 7.014 0 0 .987-2.967 2.788-4.965 0 0-1.789 5.86-1.415 5.713 1.287-3.3 4.508-6.073 4.508-6.073s-3.809 7.3-2.575 6.599c2.594-3.815 6.741-5.879 6.741-5.879s-6.668 6.065-5.628 6.514c1.047-.627 5.047-3.063 5.674-2.021-2.387.511-6.021 3.876-8.635 4.907.48.67.96 1.34 1.253 2.083 3.173-1.251 7.087-1.719 9.653-1.228 0 0-5.813.574-8.207 2.162 0 0 3.613-.136 6.773.766 0 0-7.34.531-6.747.942 4.32.015 8.886 2.296 8.886 2.296s-9.826-.852-8.38.081c5.206 1.17 9.392 4.675 9.392 4.675s-9.579-4.601-9.699-3.265c1.26 1.007 5.559 4.252 4.918 5.364-1.18-1.898-5.225-3.954-7.744-5.968-.787.74-1.834 1.367-2.84 1.549 2.032 2.421 3.27 6.658 3.216 9.256 0 0-1.198-4.682-2.824-6.618 0 0 .539 3.009.111 5.755 0 0-1.451-5.872-1.751-5.539.499 3.455-.683 7.572-.683 7.572s-.617-8.133-1.07-7.095c-.329 4.64-2.736 8.381-2.736 8.381s2.662-8.567 1.395-8.497c-.64 1.111-2.714 5.151-3.94 4.775 1.76-1.553 2.98-6.115 4.708-8.3-.52-.224-1.04-.449-1.373-.747-.113.259-.413.593-.827 1.185-1.354 2.037-3.688 5.964-4.456 9.489-1.261 5.007.064 7.277 2.671 7.323 2.607.047 5.587-.054 7.406.732 1.633.86 4.5 1.018 6.827-1.832 2.328-2.85.082-6.905-1.203-9.62-1.1-2.789-3.945-6.177-3.945-6.177s4.065 4.841 7.624 7.304c3.82 2.575 10.219 3.489 11.253-.999 1.108-4.303 1.683-6.677 2.703-9.013 1.02-2.335.229-6.533-4.304-8.183-4.533-1.65-8.973-.329-8.973-.329s11.194-3.339 8.596-10.476c-1.818-6.801-4.046-2.057-7.818-6.154zM239.759 463.109c-.347 1.855.459 3.9 2.092 4.759-2.354 1.143-8.514 3.571-10.894 3.006 0 0 6.246 1.619 11.227-2.707.26.112.52.224.967.263 2.379.565 4.773-1.023 5.161-3.323.574-2.374-1.012-4.756-3.319-5.135-2.266-.825-4.66.763-5.234 3.137zM205.088 480.212s17.273 1.138 29.676 12.357c12.403 11.22 10.902 35.867.798 49.085-9.99 12.959-36.736 14.051-39.671-4.337 0 0 6.585 6.855 9.46-.078 2.875-6.932-8.05-10.573-10.545-4.864-2.495 5.709-1.525 16.924 14.427 20.731 15.952 3.807 33.195-7.715 36.281-29.98 3.087-22.265-8.074-41.277-40.426-42.914z"/><path d="M212.573 486.067c9.637 6.94 12.197 8.509 13.568 15.271 1.918 8.694-3.364 13.353-9.17 12.85-5.62-.577-10.072-3.118-9.591-8.462.482-5.345 6.47-9.853 11.062-5.864 4.779 3.916.87 9.322-2.582 7.676-3.453-1.646-2.125-5.391-2.125-5.391s-3.708 3.18-.862 6.569c2.845 3.388 8.779 1.479 9.66-2.305.881-3.784-.504-8.392-7.123-9.864-6.62-1.471-12.641 2.405-14.483 10.864-1.843 8.458 1.954 20.278 16.36 21.258 14.406.979 23.044-15.957 16.714-27.637-6.256-11.495-21.428-14.965-21.428-14.965z"/><path d="M236.166 528.959c-5.902 8.555-11.302 8.536-11.302 8.536s6.912 2.215 13.235-8.01c6.323-10.224.307-24.391.307-24.391s3.662 15.31-2.24 23.865zM249.99 470.459c-13.387 2.7-33.075 6.379-37.961 7.661 0 0 17.284 5 33.124 3.052 15.841-1.949 19.405-17.529 12.587-22.788-.073-.186 5.45 9.449-7.75 12.075zM249.599 484.789c-3.727.395-17.459-1.065-17.459-1.065s9.278 4.934 19.317 7.42c10.039 2.486 12.154-1.998 10.315-5.569-2.172-3.869-8.446-1.181-12.173-.786zM249.396 493.03c-5.206-1.169-13.858-5.061-13.858-5.061s5.845 6.072 12.644 8.547c6.872 2.66 9.926 2.745 10.386.631.348-1.855-4.039-3.133-9.172-4.117zM243.409 497.538s4.011 7.44 7.35 9.345c3.413 2.092 5.553-.685 3.181-2.327-2.26-1.902-8.173-3.222-10.531-7.018zM253.922 518.738c2.987-1.177-7.809-13.245-7.809-13.245s4.822 14.422 7.809 13.245zM113.759 361.785c3.72.682 10.018 5.716 11.945 7.32 2.072 1.975 7.844 7.861 9.951 4.453 2.108-3.408-1.858-6.355-7.244-8.528-4.419-1.909-12.158-2.939-14.652-3.245z"/><path d="M95.407 360.643s7.718 4.26 9.55 8.907c1.832 4.648 4.583 11.08 10.336 14.182 5.752 3.103 10.079 2.041 10.71 8.021 0 0 7.063-9.442-.987-20.015-8.31-10.685-24.802-11.486-29.61-11.095zM144.583 369.395c-.666-.597-1.446-.934-2.3-1.456.688-2.634-2.465-4.613-4.525-2.727-.3.333-.6.666-.714.926-2.566-.492-4.393-.201-4.393-.201 1.34.116 2.94.344 4.166.72-.354 2.932 3.472 4.43 5.126 2.06l1.78 1.232c-1.241 1.777.905 3.938 2.626 2.831 1.326 2.269 1.458 4.794 1.264 5.944l.374-.147c.567-1.297 1.068-3.857-.665-6.611.941-1.444-.945-3.493-2.739-2.571zM305.095 294.527c-.501 2.56-2.45 10.201-4.964 13.125 1.874-1.812 7.235-7.362 9.756-11.363 2.975-5.039 4.31-9.86.557-11.173-3.826-1.499-4.922 6.665-5.349 9.411z"/><path d="M287.81 289.527c-2.608 5.968-1.05 12.657.408 17.451 1.459 4.795-2.057 12.839-2.057 12.839 4.114-2.696 16.51-13.381 16.448-26.673-.063-13.291-11.289-16.599-11.289-16.599 3.319 5.136-.902 7.014-3.51 12.982zM315.807 273.551l-.373.148c.926.708 2.666 2.385 3.318 5.135-2.126.624-2.034 3.594.086 4.047l-.461 2.115c-3.013-.531-4.527 3.288-2.155 4.93-.64 1.111-1.58 2.556-2.48 3.555 0 0 1.533-1.034 3.074-3.145.446.039.78.337 1.153.19 2.72-.213 3.674-3.811 1.188-5.193.34-.779.421-1.67.501-2.56 1.94-.55 1.921-3.335-.012-3.862-.613-3.195-2.725-4.724-3.839-5.36zM113.759 361.785l-.893-.077c.26.112.447.038.893.077zM165.354 307.727c-8.646 1.046-10.702 7.87-8.23 11.406 2.473 3.536 7.513 1.549 6.234-2.243-1.432-3.086-4.679-2.021-4.986-.611-.899-5.016 7.282-8.885 13.521-6.189 13.778 5.952 13.513 23.883 3.971 30.866-7.035 5.136-14.968 5.256-14.968 5.256 13.626.643 25.995-5.736 25.159-20.441-.743-11.735-12.054-19.089-20.701-18.044z"/><path d="M166.279 337.432c-1.747-.6-3.287 1.51-1.881 2.889l-1.46 1.22c-2-1.789-5.14.093-4.188 2.51-1.12.441-2.427.956-3.62 1.212 0 0 1.713-.031 4.027-.728.146.372.406.484.739.782 2.227 1.27 4.587-.949 3.521-3.106.487-.407 1.161-.887 1.761-1.553 1.746.6 3.1-1.437 1.881-2.889 1.514-3.819-1.038-6.464-1.038-6.464s1.359 2.901.258 6.127z"/><path d="M148.298 342.157c-1.574 1.48-6.855 6.139-10.362 7.091 2.2-.437 9.06-1.638 13.094-3.443 4.78-2.099 8.188-4.945 5.935-7.924-2.252-2.978-6.98 2.537-8.667 4.276z"/><path d="M137.688 330.016a12.148 12.148 0 00-3.107 2.513c-.64 1.112-1.467 2.297-2.368 3.296-1.394 2.483-2.341 5.004-2.802 7.118-1.368 4.191-7.949 8.288-7.949 8.288 4.32.016 19.04-1.491 25.583-11.157 6.543-9.667-.408-17.452-.408-17.452.005 4.938-4.088 4.404-8.949 7.394zm7.152 5.557c1.307-.515 2.613-1.03 4.1-.542-1.973-.081-3.767.841-5.041 1.987-.9.999-1.727 2.184-3.001 3.331.634-.035 3.5.123 4.427.832-1.747-.6-4.767-.054-6.26.535l-3.481 2.66c1.64-.217 4.5 1.019 4.386 1.278-2.153-1.084-3.906-.608-5.733-.317-1.16.887-2.207 1.514-3.254 2.142 1.267-.07 2.68.232 3.793.867-1.86-.341-3.946-.163-5.213-.093-4.261 2.324-5.974 2.355-5.974 2.355s2.24-.883 5.267-2.506c1.688-1.739 1.709-4.969 1.709-4.969.659 1.673.312 3.528.085 4.047.86-.553 1.907-1.181 2.767-1.735 2.701-2.997 2.136-7.714 1.403-9.573 1.919 2.68 1.745 6.614.504 8.392 1.16-.887 2.134-1.7 3.294-2.587 1.841-2.444.675-6.495.675-6.495 1.366 1.824 1.052 4.311.785 5.275 1.274-1.146 2.288-2.405 3.001-3.331.908-2.076-.085-4.047-.558-5.793 1.293 1.638 1.692 3.198 1.612 4.089 1.994-3.148 2.535-6.154 2.403-8.679-.147-.372 1.579 3.459-1.696 8.83zM154.523 347.006c-4.107 1.619-17.934 3.203-17.934 3.203s14.472 2.242 19.312 2.482c4.84.24 7.487-.159 7.914-2.905.314-2.486-5.112-4.213-9.292-2.78zM137.863 349.062a2.014 2.014 0 00-.82.109c.26.112.633-.035.82-.109zM102.068 246.762c-2.773-3.203-4.866-1.948-6.847-.953-1.98.995-1.675 5.6-1.535 7.049.14 1.448-.588 4.527-.588 4.527s-.352-3.083-.712-5.089c-.36-2.006-.298-5.681-3.344-6.843-3.047-1.162-3.994 1.359-4.968 2.173-.973.813-2.507 1.847-4.26 2.323-1.753.477-2.821 4.334-.115 6.274 2.519 2.014 8.085 5.19 8.085 5.19s-6.946-2.847-9.113-1.778-4.374 2.584-2.762 6.673c1.612 4.09-2.422 5.895 2.624 8.846 4.192 2.428 9.301-4.311 11.182-7.2.3-.333.527-.852.527-.852-.52-.225-.927-.709-1.147-1.266-1.02 2.335-3.64 4.442-5.508 5.178 0 0 2.994-2.254 3.788-4.071 0 0-2.02 1.441-3.96 1.991 0 0 3.667-2.734 3.334-3.032-2.207 1.514-5.487 1.948-5.487 1.948s5.494-3.025 4.6-3.103c-3.36 1.325-6.82.756-6.82.756s6.747-.941 6.454-1.685c-.893-.077-4.393-.201-4.573-1.204 1.633.859 5.66.131 7.593.658.04-.446.007-1.077.234-1.596.227-.519.454-1.038.94-1.444-2.493-.306-5.605-2.731-6.785-4.628 0 0 2.74 2.571 4.6 2.912 0 0-1.74-1.677-2.546-3.722 0 0 3.406 3.168 3.446 2.723-1.886-2.049-2.872-5.097-2.872-5.097s3.878 4.915 3.699 3.912c-1.62-3.013-1.932-6.541-1.932-6.541s1.932 6.541 2.792 5.987c-.18-1.003-.492-4.531.515-4.713-.534 1.928.745 5.72.47 7.761 1.12-.442 2.387-.511 3.427-.062-.506-2.378.262-5.902 1.316-7.606 0 0-1.141 3.671-.668 5.418 0 0 .834-2.262 2.147-3.854 0 0-1.481 4.45-1.108 4.303.948-2.521 3.495-4.814 3.495-4.814s-2.942 5.67-2.082 5.116c2.068-2.963 5.095-4.586 5.095-4.586s-5.094 4.586-4.241 5.109c.86-.554 3.814-2.363 4.367-1.507-1.827.291-4.601 3.102-6.728 3.726.407.484.626 1.042.846 1.599 2.427-.956 5.52-1.316 7.38-.976 0 0-4.36.43-6.267 1.612 0 0 2.794-.028 5.173.538 0 0-5.626.499-5.293.798 3.24.011 6.693 1.657 6.693 1.657s-7.593-.658-6.48-.023c4.053.98 7.239 3.59 7.239 3.59s-7.24-3.59-7.433-2.44c.927.709 4.299 3.246 3.772 4.098-1.033-1.526-4.039-3.133-5.965-4.737-.6.666-1.347.961-2.28 1.329 1.552 1.75 2.612 4.984 2.524 6.951 0 0-.832-3.752-2.238-5.131 0 0 .506 2.378.232 4.419 0 0-1.126-4.497-1.239-4.237.393 2.637-.522 5.79-.522 5.79s-.331-6.313-.858-5.461c-.321 3.563-2.202 6.452-2.202 6.452s1.942-6.564 1.122-6.456c-.527.852-2.074 4.04-2.928 3.517 1.274-1.147 2.415-4.818 3.729-6.41-.447-.038-.78-.337-1.113-.635-.114.26-.227.519-.714.926-.867 1.63-2.748 4.519-3.549 7.412-1.067 3.858.039 5.57 2.199 5.577 1.973.082 4.32.016 5.62.577 1.3.562 3.532.755 5.26-1.429 1.727-2.184.035-5.383-.958-7.354-.806-2.045-2.912-4.652-2.912-4.652s3.179 3.687 5.885 5.628c2.893 1.866 7.879 2.478 8.72-.86.841-3.339 1.188-5.194 2.055-6.824.794-1.817.182-5.012-3.311-6.212-3.493-1.201-6.813-.322-6.813-.322s8.694-2.568 6.569-7.958c-1.426-4.164-3.013-.531-5.972-3.66zM265.084 376.88c-3.072-2.87-5.092-1.429-6.813-.322-1.907 1.181-1.155 5.825-.829 7.2.14 1.448-.141 4.566-.141 4.566s-.726-2.936-1.085-4.942c-.359-2.006-.932-5.646-3.831-6.436-3.16-.903-3.847 1.731-4.561 2.656-.9 1-2.434 2.034-4.114 2.696-1.68.662-2.301 4.558.518 6.239s8.498 4.597 8.498 4.597-7.172-2.327-9.192-.887c-2.094 1.255-4.228 2.955-2.242 6.898 1.985 3.942-1.902 6.119 3.557 8.477 4.233 1.983 8.748-5.166 10.369-8.168.227-.518.527-.852.453-1.037-.52-.225-.926-.709-1.333-1.193-.834 2.261-3.121 4.667-4.841 5.774 0 0 2.661-2.552 3.268-4.295 0 0-1.761 1.553-3.814 2.363 0 0 3.447-3.292 3.074-3.145-2.134 1.7-5.267 2.506-5.267 2.506s5.274-3.583 4.267-3.401c-3.1 1.437-6.787 1.387-6.787 1.387s6.714-1.573 6.234-2.243c-1.08-.004-4.433.244-4.613-.759 1.747.601 5.627-.499 7.747-.046-.033-.632.007-1.077.234-1.596l.68-1.557c-2.607-.046-5.833-2.211-7.125-3.849 0 0 3.039 2.238 4.899 2.579 0 0-1.853-1.417-2.846-3.389 0 0 3.706 2.835 3.746 2.39-1.999-1.789-3.245-4.95-3.245-4.95s4.365 4.508 3.999 3.579c-1.993-2.866-2.492-6.321-2.492-6.321s2.492 6.321 3.352 5.767c-.18-1.003-.865-4.384-.119-4.678-.347 1.855 1.379 5.685 1.291 7.652 1.047-.627 2.314-.697 3.467-.507-.693-2.304-.372-5.867.609-7.757 0 0-.694 3.71-.222 5.456 0 0 .574-2.374 1.815-4.151 0 0-1.035 4.488-.661 4.341.687-2.633 2.974-5.038 2.974-5.038s-2.235 5.82-1.561 5.34c1.807-3.075 4.688-5.069 4.688-5.069s-4.688 5.069-3.722 5.333c.861-.554 3.668-2.735 4.221-1.879-1.754.477-4.454 3.474-6.248 4.396.407.484.813.968 1.033 1.526 2.28-1.329 5.3-1.875 7.347-1.607 0 0-4.4.875-6.234 2.242 0 0 2.833-.473 5.213.093 0 0-5.48.871-5.147 1.17 3.28-.434 6.92 1.138 6.92 1.138s-7.487.159-6.447.608c4.093.535 7.652 2.998 7.652 2.998s-7.579-2.812-7.586-1.735c1.113.635 4.526 2.726 4.072 3.764-1.032-1.526-4.265-2.614-6.378-4.144-.6.666-1.274 1.147-2.021 1.441 1.74 1.677 2.986 4.837 3.085 6.731 0 0-1.206-3.606-2.725-4.725 0 0 .693 2.304.605 4.272 0 0-1.498-4.349-1.612-4.09.653 2.75-.075 5.829-.075 5.829s-.965-6.278-1.418-5.24c.125 3.602-1.496 6.603-1.496 6.603s1.422-6.789.416-6.607c-.267.964-1.815 4.152-2.595 3.815 1.201-1.333 1.968-4.857 2.949-6.747-.447-.039-.78-.337-1.04-.449l-.454 1.038c-.867 1.63-2.228 4.744-2.842 7.564-.621 3.896.485 5.607 2.572 5.429 2.087-.178 4.36-.43 5.66.132 1.3.561 3.573.31 5.113-1.801 1.654-2.37-.598-5.348-1.591-7.32-.992-1.971-3.472-4.43-3.472-4.43s3.479 3.354 6.485 4.961c3.007 1.607 8.033 1.773 8.614-1.677.581-3.451.742-5.232 1.349-6.975.607-1.743-.265-5.05-3.872-5.991-3.606-.942-6.78.309-6.78.309s8.401-3.311 5.903-8.555c-2.872-5.096-4.2-1.351-7.459-4.147zM283.158 352.143c-2.073-1.975-3.42-1.014-4.84-.24-1.233.701-.808 3.97-.628 4.973.18 1.003-.021 3.23-.021 3.23s-.359-2.006-.686-3.381c-.326-1.375-.645-3.826-2.651-4.539-2.194-.639-2.541 1.216-3.141 1.882-.6.667-1.574 1.48-2.694 1.921-1.12.442-1.547 3.188.419 4.346s5.939 3.028 5.939 3.028-4.906-1.502-6.513-.654c-1.347.96-2.881 1.994-1.595 4.709 1.286 2.715-1.368 4.191 2.345 5.949 2.933 1.421 6.094-3.691 7.261-5.655.114-.259.227-.519.414-.592-.333-.298-.593-.411-.926-.709-.421 1.669-2.181 3.222-3.415 3.923 0 0 1.874-1.812 2.254-3.036 0 0-1.273 1.146-2.58 1.661 0 0 2.36-2.219 2.1-2.331-1.46 1.22-3.66 1.658-3.66 1.658s3.554-2.475 2.921-2.44c-2.167 1.069-4.587.949-4.587.949s4.587-.949 4.294-1.693c-.634.035-3.167.174-3.2-.457 1.226.376 3.987-.283 5.4.019.04-.445-.107-.817.193-1.15.041-.445.341-.778.641-1.111-1.714.031-4.013-1.425-4.973-2.765 0 0 2.113 1.529 3.453 1.645 0 0-1.26-1.006-1.959-2.234 0 0 2.519 2.014 2.633 1.754-1.333-1.193-2.213-3.423-2.213-3.423s2.959 3.129 2.926 2.498c-1.439-2.01-1.758-4.462-1.758-4.462s1.758 4.462 2.245 4.055c-.033-.631-.539-3.009.021-3.23-.121 1.336.905 3.939.785 5.275.747-.295 1.493-.589 2.273-.252-.586-1.487-.085-4.047.482-5.344 0 0-.501 2.559-.248 3.748 0 0 .421-1.669 1.248-2.854 0 0-.728 3.079-.541 3.005.607-1.742 2.107-3.408 2.107-3.408s-1.627 4.078-1.141 3.672c1.094-2.15 3.188-3.404 3.188-3.404s-3.188 3.404-2.595 3.814c.487-.406 2.508-1.847 2.914-1.363-1.193.256-2.921 2.44-4.414 3.029.333.298.48.67.626 1.041 1.607-.848 3.621-1.212 5.147-1.169 0 0-3.02.546-4.367 1.506 0 0 1.827-.29 3.687.051 0 0-3.84.654-3.58.767 2.273-.252 4.799.685 4.799.685s-5.14.093-4.546.504c2.939.344 5.312 1.986 5.312 1.986s-5.312-1.987-5.206-1.169c.593.41 3.153 1.979 2.739 2.571-.813-.968-2.892-1.866-4.339-2.8-.413.593-.973.814-1.533 1.034 1.332 1.193 2.139 3.238 2.278 4.686 0 0-.766-2.49-1.766-3.384 0 0 .4 1.56.353 3.082 0 0-.986-3.048-1.099-2.788.473 1.747.085 4.047.085 4.047s-.605-4.272-1.019-3.679c.06 2.339-.961 4.674-.961 4.674s.961-4.674.328-4.639c-.227.519-1.248 2.854-1.767 2.629.9-.999 1.214-3.485 2.041-4.67l-.78-.337c-.113.259-.3.333-.413.592-.641 1.112-1.661 3.447-2.009 5.302-.427 2.746.459 3.9 1.912 3.757 1.454-.143 2.907-.287 3.874-.023.966.263 2.493.306 3.547-1.399 1.127-1.518-.386-3.714-1.159-5.127-.773-1.414-2.512-3.091-2.512-3.091s2.406 2.274 4.372 3.432c2.153 1.084 5.653 1.208 6.04-1.093.388-2.3.508-3.636 1.075-4.934.38-1.223-.312-3.528-2.692-4.093-2.38-.566-4.807.391-4.807.391s5.788-2.281 4.135-5.925c-2.252-2.979-3.199-.457-5.272-2.433zM237.476 361.559c-2.386.511-4.26 2.324-4.26 2.324s4.201-4.663.902-7.014c-3.113-2.424-2.907.287-5.62-.577-2.9-.79-3.58.767-4.407 1.952s1.092 3.865 1.645 4.721c.553.856 1.359 2.901 1.359 2.901s-1.293-1.639-2.179-2.793c-.886-1.154-2.325-3.164-4.526-2.726-2.2.438-1.914 2.258-1.994 3.149-.34.778-.907 2.075-1.621 3.001-.713.926.126 3.602 2.359 3.795 2.233.194 6.74.136 6.74.136s-5.294.798-5.974 2.355c-.94 1.444-1.548 3.187.825 4.829 2.446 1.828.866 4.384 4.925 4.287 3.24.012 3.876-6.038 3.889-8.191.041-.445-.033-.631.081-.891-.447-.038-.707-.151-1.227-.375.213 1.634-.434 3.822-1.261 5.007 0 0 .947-2.521.694-3.71 0 0-.68 1.557-1.581 2.556 0 0 1.175-3.04.801-2.893-.794 1.817-2.627 3.184-2.627 3.184s2.148-3.854 1.661-3.447c-1.427 1.851-3.781 2.994-3.781 2.994s3.594-2.921 3.188-3.405c-.56.221-2.654 1.476-3.061.992 1.267-.07 3.328-1.956 4.708-2.285l-.44-1.116c-.147-.371-.107-.817-.066-1.262-1.607.848-4.36.43-5.66-.132 0 0 2.566.492 3.873-.023 0 0-1.673-.414-2.859-1.235 0 0 3.273.642 2.939.344-1.933-.526-3.599-2.017-3.599-2.017s4.086 1.611 3.606.941c-2.153-1.085-3.592-3.095-3.592-3.095s3.592 3.095 3.819 2.576c-.406-.484-2.032-2.421-1.359-2.901.326 1.375 2.512 3.09 3.212 4.318.414-.593 1.087-1.073 2.02-1.441-1.146-1.266-2.025-3.497-1.978-5.019 0 0 .766 2.49 1.579 3.459 0 0-.4-1.561-.166-3.157 0 0 .799 3.122.913 2.862-.287-1.82.361-4.008.361-4.008s.418 4.345.645 3.826c.128-2.413 1.408-4.636 1.408-4.636s-1.221 4.563-.588 4.528c.414-.593 1.508-2.742 2.028-2.518-.974.814-1.661 3.447-2.488 4.632.446.039.78.337 1.113.635.94-1.444 2.774-2.811 4.081-3.326 0 0-2.507 1.847-3.001 3.33 0 0 1.72-1.107 3.287-1.51 0 0-3.181 2.327-2.734 2.366 1.907-1.181 4.627-1.394 4.627-1.394s-4.634 2.471-3.814 2.362c2.687-.844 5.627-.499 5.627-.499s-5.554.685-5.334 1.243c.893.077 3.76.236 3.68 1.127-1.114-.635-3.574-.31-5.174-.538-.226.519-.38 1.223-.867 1.63 1.674.415 3.413 2.091 4.039 3.133 0 0-1.812-1.863-3.226-2.165 0 0 1.147 1.267 1.66 2.568 0 0-2.22-2.347-2.333-2.087 1.219 1.452 1.839 3.57 1.839 3.57s-2.659-3.462-2.439-2.904c1.066 2.157 1.125 4.496 1.125 4.496s-1.199-4.682-1.872-4.202c.033.631.166 3.156-.468 3.191.381-1.224-.312-3.528-.265-5.05-.186.074-.633.035-.82.109.074.185-.04.445-.08.89.066 1.263.126 3.602.672 5.535.839 2.676 2.139 3.237 3.372 2.536 1.234-.701 2.581-1.661 3.587-1.843 1.007-.182 2.24-.883 2.588-2.738.347-1.855-1.879-3.126-3.326-4.059-1.259-1.007-3.452-1.646-3.452-1.646s3.232 1.088 5.579 1.022c2.42.12 5.52-1.316 4.828-3.621-.693-2.304-1.133-3.419-1.272-4.868-.366-.929-1.919-2.68-4.493-2.095zM104.694 381.467c-11.772-28.221-63.82-42.07-77.055-34.061 24.787-3.327 53.828 15.08 69.774 36.931-1.087 1.073-1.914 2.258-2.408 3.741-1.635 5.155.937 10.585 6.176 12.385 5.166 1.615 10.62-.964 12.442-6.193 1.635-5.154-.937-10.584-6.176-12.385-1.153-.19-1.86-.341-2.753-.418zM255.717 333.965l-.746.294.746-.294zM264.307 324.565c-1.167 1.964-5.376 7.703-8.403 9.326 2.24-.883 8.441-3.757 11.922-6.417 4.081-3.327 6.748-6.956 4.082-9.342-2.852-2.312-6.321 4.21-7.601 6.433zM279.891 310.476l-.26-.113c.553.856 1.545 2.827 1.231 5.314-1.86-.341-2.734 2.366-1.287 3.299-.414.593-.641 1.112-1.054 1.705-2.3-1.457-4.887 1.281-3.374 3.477-.974.814-2.207 1.515-3.254 2.142 0 0 1.566-.403 3.66-1.658.333.299.593.411.853.523 2.453.752 4.147-2.064 2.781-3.888.414-.593.827-1.185 1.354-2.037 1.787.155 2.621-2.107 1.288-3.3.241-2.672-.939-4.57-1.938-5.464z"/><path d="M251.597 314.755c-3.975 4.144-4.983 10.341-5.198 14.721-.401 4.454-5.95 10.077-5.95 10.077 4.141-.987 18.175-5.875 22.418-16.998 4.244-11.123-4.094-17.501-4.094-17.501.785 5.275-3.129 5.743-7.176 9.701zM162.271 363.926s6.945 2.847 8.858 6.603c1.912 3.757 5.043 8.966 10.169 11.026 5.126 2.06 8.747.848 9.832 5.79 0 0 5.009-8.633-2.795-16.94-7.918-8.048-22.037-7.207-26.064-6.479z"/><path d="M177.991 363.314c3.313.198 9.025 3.745 10.878 5.162 2.039 1.344 7.485 5.856 8.845 2.742 1.361-3.114-2.311-5.317-7.144-6.634-3.68-1.127-10.233-1.336-12.579-1.27zM177.991 363.314a2.004 2.004 0 00-.82.108c.3-.333.56-.22.82-.108zM205.042 366.826l-1.779-1.231c.647-2.188-1.986-3.943-3.933-2.316-.3.333-.413.592-.714.926-2.306-.38-3.686-.051-3.686-.051 1.08.004 2.493.306 3.72.682-.314 2.486 2.805 3.834 4.346 1.723.52.225 1.113.635 1.519 1.119-1.127 1.519.686 3.381 2.293 2.533 1.252 2.084 1.165 4.051.972 5.201l.373-.147c.38-1.224.841-3.338-.485-5.608.607-1.742-.946-3.493-2.626-2.831zM184.032 247.315c-3.406-3.168-5.539-1.468-7.52-.473-1.907 1.181-1.195 6.27-.982 7.905.213 1.634-.181 5.011-.181 5.011s-.8-3.121-1.232-5.313c-.433-2.192-.892-6.092-4.238-6.921-3.346-.829-4.034 1.805-5.121 2.877-.9 1-2.547 2.293-4.414 3.029-1.68.662-2.528 5.077.551 6.87 2.893 1.867 9.279 4.934 9.279 4.934s-7.879-2.478-10.086-.964c-2.208 1.514-4.528 3.288-2.283 7.343 2.059 4.129-1.942 6.565 3.851 9.221 4.752 2.208 9.608-5.72 11.342-8.981.227-.519.527-.852.454-1.038-.52-.225-.927-.709-1.333-1.193-.761 2.448-3.348 5.186-5.328 6.181 0 0 2.96-2.885 3.494-4.814 0 0-1.947 1.627-4.187 2.51 0 0 3.821-3.439 3.374-3.478-2.32 1.774-5.827 2.727-5.827 2.727s5.648-3.73 4.568-3.734c-3.474 1.584-7.161 1.534-7.161 1.534s7.347-1.607 6.794-2.463c-1.08-.004-4.88.205-5.059-.798 2.006.713 6.073-.461 8.379-.081-.033-.632-.066-1.263.161-1.782.153-.705.38-1.224.867-1.63-2.793.027-6.352-2.436-7.718-4.26 0 0 3.299 2.35 5.345 2.618 0 0-1.926-1.604-3.179-3.687 0 0 4.039 3.133 4.08 2.687-2.26-1.901-3.579-5.247-3.579-5.247s4.772 4.992 4.332 3.876c-2.139-3.237-2.711-6.878-2.711-6.878s2.711 6.878 3.498 6.139c-.18-1.003-1.012-4.756-.078-5.124-.274 2.041 1.524 6.057 1.324 8.284 1.047-.628 2.5-.771 3.726-.395-.765-2.49-.331-6.313.763-8.462 0 0-.808 3.969-.262 5.902 0 0 .761-2.448 1.928-4.411 0 0-1.075 4.934-.701 4.787.801-2.894 3.201-5.558 3.201-5.558s-2.461 6.34-1.675 5.6c1.921-3.334 4.989-5.403 4.989-5.403s-4.989 5.403-4.135 5.926c.86-.554 4.04-2.882 4.52-2.212-1.94.55-4.754 3.808-6.808 4.617.407.484.813.968 1.033 1.526 2.467-1.402 5.674-2.022 7.907-1.828 0 0-4.847.836-6.607 2.389 0 0 3.093-.36 5.66.132 0 0-6.04 1.092-5.521 1.317 3.54-.322 7.553 1.104 7.553 1.104s-8.193.007-7.08.643c4.54.573 8.172 3.222 8.172 3.222s-8.285-2.963-8.292-1.886c1.113.635 5.045 2.951 4.405 4.062-1.219-1.452-4.599-2.912-6.898-4.368-.601.666-1.461 1.22-2.207 1.514 1.999 1.789 3.318 5.135 3.304 7.289 0 0-1.279-3.792-2.945-5.283 0 0 .766 2.49.565 4.717 0 0-1.645-4.721-1.758-4.461.725 2.935-.042 6.46-.042 6.46s-1.185-6.836-1.379-5.686c.013 3.862-1.648 7.308-1.648 7.308s1.462-7.234.455-7.052c-.454 1.038-1.855 4.597-2.895 4.148 1.388-1.406 2.009-5.302 3.363-7.339-.447-.039-.78-.337-1.3-.562l-.454 1.038c-.794 1.817-2.455 5.263-2.996 8.269-.734 4.155.632 5.979 2.719 5.801 2.273-.252 4.546-.503 6.106.171 1.487.487 3.833.422 5.674-2.022 1.841-2.444-.558-5.794-1.624-7.951s-3.805-4.729-3.805-4.729 3.625 3.726 6.891 5.445c3.266 1.72 8.739 1.925 9.247-1.712.508-3.636.782-5.677 1.502-7.679.721-2.003-.411-5.422-4.278-6.476-3.866-1.053-7.413.345-7.413.345s9.148-3.606 6.243-9.334c-1.832-4.647-3.273-.642-6.679-3.81zM60.248 539.023c-1.815 4.151-9.19 10.065-11.697 11.913-2.694 1.921-11.069 6.94-7.776 10.367 3.292 3.428 7.973-.565 11.808-6.158 3.308-4.74 6.604-13.342 7.665-16.122z"/><path d="M53.885 526.711c-5.927.833-13.98 2.289-19.082 7.951-5.102 5.662-5.137 11.045-12.17 10.166 0 0 8.944 10.651 23.399 4.094 14.528-6.371 19.827-25.213 20.681-30.704 0 0-7.088 7.734-12.828 8.493zM60.701 537.985c-.113.259-.154.705-.267.964.154-.705.267-.964.267-.964zM333.273 342.484c-.26-.112-.52-.225-.707-.151-.26-.112-.52-.225-.966-.263l-.78-.337c-.26-.113-.52-.225-.707-.151-.26-.113-.706-.151-.966-.264-.26-.112-.447-.038-.52-.224-.26-.113-.707-.151-.967-.264-.186.074-.26-.112-.446-.038-.447-.039-.707-.151-1.154-.19-.186.073-.26-.112-.446-.039-.447-.039-.707-.151-1.154-.19-.186.074-.26-.112-.446-.038-.447-.039-.707-.151-1.08-.004 0 0-.187.073-.26-.113-12.62-.824-23.901 4.482-23.901 4.482 13.187-.473 18.44-.825 23.632 2.497.073.186.26.113.333.299.26.112.52.224.853.522.26.113.26.113.334.299.26.112.593.41.853.522.073.186.26.113.333.299.333.298.74.782 1.26 1.007 9.184 7.977 7.148 17.586.193 21.831-.56.22-1.047.627-1.42.774l-.56.221-1.12.442-.56.22a267.091 267.091 0 01-1.307.515l-1.307.516c-4.513 1.134-8.68.414-11.258-3.939-3.758-6.251-.789-16.227 7.738-15.937 2.16.008 3.719.682 4.719 1.576l1 .895.073.186c.147.372.407.484.553.856l.073.186c.147.371.293.743.253 1.189l.074.186c.146.371.033.631-.007 1.076 0 0 .073.186-.114.26-.04.445-.153.705-.267.964l-.453 1.038s-.187.074-.114.259c-.113.26-.487.407-.6.667l-.187.073c-.3.333-.673.48-1.046.628l-.747.294c-5.147 1.17-6.825-4.183-6.825-4.183s-1.496 6.604 4.417 7.924c.967.263 1.973.081 2.793-.027l.187-.074.373-.147.56-.221.374-.147.56-.22.373-.148c.187-.073.487-.406.674-.48l.186-.074c.187-.073.487-.406.601-.666.186-.073.113-.259.3-.333.186-.073.3-.333.486-.406.187-.074.114-.26.301-.333.113-.26.3-.334.413-.593.187-.074.113-.259.3-.333.114-.26.3-.333.227-.519l.113-.259.341-.779c.113-.259.153-.705.266-.964l.114-.26c.113-.259.04-.445.153-.705-.073-.186-.073-.186.041-.445-.074-.186.04-.445-.034-.631-.073-.186-.073-.186.041-.446-.074-.186-.147-.371-.034-.631l-.073-.186-.366-.929c-.22-.558-.44-1.116-.846-1.6l-.074-.186c-.406-.484-.553-.856-.959-1.34l-.073-.186c-.407-.484-.74-.782-1.073-1.08 0 0-.074-.186-.26-.112a6.08 6.08 0 00-1.447-.934c-2.746-1.495-6.433-1.545-11.14.74-8.554 4.016-12.003 13.323-7.234 24.329 2.679 6.247 8.45 12.134 15.849 13.942.26.113.447.039.707.151.26.113.52.225.893.078.26.112.447.039.707.151.186-.074.446.039.633-.035.26.112.447.039.707.151.186-.073.446.039.633-.035.187-.073.447.039.633-.035.187-.073.447.039.634-.034.186-.074.446.038.633-.035.187-.074.447.038.633-.035.187-.074.447.039.82-.109.187-.073.374-.147.634-.034.186-.074.633-.035 1.006-.183l.374-.147c.373-.147.82-.108 1.38-.329l.373-.147.934-.368.56-.221.933-.368.56-.22.933-.368.561-.221.933-.368.56-.221c.373-.147.747-.294 1.047-.627l.56-.221c.56-.221 1.047-.627 1.533-1.034 16.757-11.115 12.531-37.156-4.066-44.789-1.793.921-2.313.697-2.76.658zM327.293 276.971l-.894-.077s13.965 5.878 1.248 20.127c-12.718 14.248-31.51 34.972-36.051 40.413 0 0 23.335-9.198 39.413-24.771 15.664-14.98 7.523-34.538-3.716-35.692zM338.575 311.613c-1.387 1.406-5.014 3.695-8.568 6.17-.487.407-1.047.627-1.533 1.034l-.187.074c-1.534 1.034-3.254 2.141-4.674 2.916a113.83 113.83 0 00-5.348 3.397s2.014-.365 5.22-.984l.374-.147c.373-.148.82-.109 1.38-.33.186-.073.56-.22.82-.108.373-.147.82-.109 1.193-.256.187-.073.56-.22.82-.108.374-.147.82-.109 1.194-.256.373-.147.56-.221 1.006-.182.374-.147.747-.294 1.38-.329l.934-.368c.373-.147.933-.368 1.38-.329l1.12-.442 1.307-.515 1.12-.441 1.307-.515 1.12-.442 1.493-.589.747-.294 3.547-1.398c13.035-5.782 11.85-12.618 6.838-14.938-5.273-2.432-10.169 5.941-13.99 9.38z"/><path d="M361.776 351.868c-.147-.372-.48-.67-.553-.856-.48-.67-.886-1.154-1.366-1.824-.147-.372-.407-.485-.553-.856-.553-.856-1.293-1.639-2.033-2.421-.739-.782-1.293-1.638-1.959-2.234-.26-.113-.407-.485-.666-.597-.407-.484-1.073-1.08-1.48-1.564-.333-.299-.406-.485-.74-.783-.593-.41-.999-.894-1.593-1.305-.26-.112-.406-.484-.666-.596-.667-.597-1.52-1.12-2.373-1.642-.853-.523-1.519-1.12-2.299-1.457l-.78-.336c-.593-.411-1.113-.636-1.893-.973-.26-.112-.52-.224-.853-.522-.594-.411-1.3-.562-1.82-.787l-.78-.336c-.967-.264-1.746-.601-2.713-.864l-.187.074c-.966-.264-1.746-.601-2.639-.678-.26-.113-.707-.151-.894-.078-.706-.151-1.413-.302-2.046-.267a1.539 1.539 0 00-1.08-.004c-.707-.151-1.34-.116-2.233-.193-.26-.113-.634.035-.894-.078l-3.24-.011c-11.099.294-23.64 4.593-37.67 14.419 0 0 17.243-11.522 37.949-11.522.634-.035 1.267-.07 1.974.081.186-.074.446.039.633-.035.893.077 1.713-.031 2.42.12 22.779 1.975 41.436 30.703 40.916 53.46-.633 23.017-29.5 46.637-47.594 28.64 0 0 12.873 2.014 10.369-8.167l-.44-1.116-.146-.372-.293-.743-.074-.186c-.146-.372-.406-.484-.553-.856l-.073-.186c-.073-.186-.333-.298-.406-.484 0 0-.074-.186-.26-.112-.26-.113-.594-.411-.667-.597l-.78-.337-.26-.112c-.26-.112-.52-.225-.706-.151l-.187.074c-.26-.113-.707-.151-.893-.078l-.187.074c-.26-.113-.447-.039-.707-.151l-.186.073c-.26-.112-.634.035-.82.109l-.187.073c-.187.074-.633.035-.82.109l-.187.073-.746.295-.934.368-.186.073c-.187.074-.561.221-.674.48l-.187.074c-.373.147-.486.407-.86.554l-.186.073c-.187.074-.487.407-.674.481l-.187.073c-1.687 1.739-2.594 3.815-2.015 6.379.253 1.189.839 2.676 1.352 3.977l.147.372.146.372.147.372.147.371.146.372c.073.186.147.372.333.298.074.186.074.186.334.299.073.186.146.371.406.484.073.186.073.186.333.298.074.186.407.484.667.596.073.186.073.186.333.299.073.185.333.298.406.484.074.186.26.112.334.298.073.186.333.298.406.484.074.186.26.112.333.298.074.186.334.298.407.484.073.186.26.113.333.299.26.112.333.298.593.41.074.186.26.112.334.298.26.113.52.225.853.523l.073.186c.26.112.593.41.853.523l.26.112c.26.112.52.225.593.411.074.185.26.112.26.112.26.112.52.225.707.151.187-.074.26.112.447.039.26.112.52.224.706.151.187-.074.26.112.447.038.26.113.52.225.706.151l.26.113c.447.038.707.151 1.154.19l.186-.074c.26.112.707.151 1.08.004.187-.074.26.112.447.039.26.112.633-.035.893.077.187-.074.447.039.447.039.26.112.633-.035.893.077.187-.073.447.039.447.039.186-.074.633-.035.82-.109.187-.073.446.039.446.039.447.039.82-.108 1.007-.182l.374-.147c.446.039 1.006-.182 1.453-.143l.373-.148c.374-.147.82-.108 1.194-.255l.56-.221c.373-.147.746-.294 1.006-.182l.56-.221.934-.368.56-.22 1.12-.442.56-.221 1.867-.736c20.842-9.504 30.477-36.498 15.832-63.801-.553-.856-.993-1.971-1.546-2.827-.146-.372-.406-.484-.553-.856-.326-1.375-.619-2.118-1.099-2.788z"/><path d="M359.783 371.983c.316 14.481-5.672 18.989-5.672 18.989s9.408-3.494 8.026-20.131c-1.382-16.638-19.525-27.098-19.525-27.098s16.856 13.76 17.171 28.24zM349.626 318.856c-.186.073-.186.073 0 0l-2.24.883-.187.073c-.746.294-1.493.589-2.167 1.069-6.574 3.021-19.554 6.205-19.554 6.205s11.459 1.711 21.086-1.224c.56-.221 1.12-.442 1.567-.403l.373-.147 1.12-.442.374-.147 1.12-.442.373-.147 1.307-.515.934-.368.373-.147.747-.294.373-.148.747-.294.186-.073c.187-.074.487-.407.674-.481l.187-.073c.186-.074.373-.147.486-.407l.187-.074c.187-.073.113-.259.3-.333l.187-.073c.186-.074.113-.26.3-.333l.187-.074c.186-.073.113-.259.226-.519l.114-.259.113-.26c.227-.519.194-1.15.047-1.522-1.366-1.824-4.873-.871-9.54.969zM359.536 329.769c-4.133-.089-11.754 3.559-17.473 1.089 0 0 10.472 4.678 15.912 4.252 5.44-.426 5.694-5.252 1.561-5.341zM351.701 337.798s17.129 11.719 19.463 7.792c2.408-3.742-19.463-7.792-19.463-7.792zM296.078 461.528c-1.146-1.267-1.999-1.789-2.966-2.053-.447-.038-.707-.151-1.08-.004l-.373.148c-.187.073-.447-.039-.634.034l-.373.148-.747.294-.373.147-.933.368c-1.981.995-1.716 6.046-1.763 7.568-.047 1.522-.628 4.972-.628 4.972s-.426-3.268-.785-5.274c-.246-2.266-.258-6.127-3.491-7.215-3.233-1.089-4.18 1.433-5.154 2.246-.973.813-2.88 1.994-4.634 2.471-1.753.476-2.934 4.593-.155 6.719 2.779 2.126 8.678 5.6 8.678 5.6s-7.466-3.071-9.819-1.928c-2.354 1.142-4.748 2.73-3.062 7.006 1.685 4.275-2.535 6.154 2.844 9.403 4.452 2.54 9.787-4.717 11.855-7.68.227-.519.527-.852.64-1.112-.593-.41-1-.894-1.146-1.266-1.021 2.335-3.755 4.702-5.808 5.511 0 0 3.107-2.513 3.901-4.33 0 0-2.02 1.441-4.334 2.138 0 0 3.968-3.067 3.521-3.106-2.394 1.588-5.861 2.095-5.861 2.095s5.868-3.172 4.788-3.176c-3.547 1.399-7.193.903-7.193.903s7.193-.903 6.827-1.832c-1.08-.004-4.84-.24-4.833-1.317 1.819.786 5.919.244 8.113.883-.034-.631.193-1.15.42-1.669.227-.519.64-1.111 1.054-1.704-2.68-.232-5.866-2.843-7.118-4.926 0 0 2.999 2.684 4.932 3.21 0 0-1.813-1.862-2.806-3.834 0 0 3.739 3.466 3.779 3.021-1.959-2.235-3.018-5.468-3.018-5.468s4.212 5.212 4.032 4.209c-1.952-3.311-1.891-6.986-1.891-6.986s2.078 6.913 2.938 6.359c-.18-1.003-.565-4.717.441-4.899-.534 1.928.892 6.092.504 8.392l.747-.294.187-.074c.187-.073.373-.147.633-.035.187-.073.187-.073.447.039.187-.073.446.039.446.039.187-.074.26.112.447.039.26.112.447.038.707.151-.074-.186-.033-.632-.107-.818-.073-.185-.073-.185.04-.445-.073-.186.041-.445-.033-.631-.073-.186.114-.26.04-.446-.073-.185.041-.445-.033-.631-.073-.186.114-.259.04-.445-.073-.186.041-.446.154-.705-.073-.186.113-.26.04-.445.114-.26.04-.446.227-.519-.073-.186.113-.26.04-.446.113-.259.04-.445.227-.519-.073-.186.113-.259.04-.445l.227-.519.113-.26.34-.778.074.186.073.186-.113.259s.073.186-.114.26c.073.186-.113.259-.04.445l-.113.26c.073.185-.114.259-.04.445.073.186-.114.259-.041.445.074.186-.04.446-.04.446.074.186-.113.259-.04.445.073.186-.04.445.033.631l-.113.26c-.114.259-.04.445.033.631l.073.186c.074.186-.04.445.107.817 0 0 .834-2.262 2.261-4.113 0 0-1.595 4.71-1.221 4.562 1.06-2.78 3.608-5.073 3.608-5.073s-3.055 5.929-2.195 5.375c2.254-3.036 5.468-4.732 5.468-4.732s-5.395 4.918-4.542 5.441c.86-.554 4.188-2.509 4.741-1.654-2.014.365-4.975 3.25-7.101 3.873.406.484.626 1.042.846 1.6 2.613-1.03 5.893-1.464 8.013-1.011 0 0-4.806.391-6.827 1.832 0 0 2.98-.101 5.62.577 0 0-5.887.387-5.554.685 3.427-.062 7.213 1.883 7.213 1.883s-8.04-.697-6.926-.062c4.312 1.092 7.758 3.814 7.758 3.814s-7.758-3.814-7.952-2.664c.926.709 4.559 3.358 3.918 4.469-1.032-1.526-4.299-3.245-6.485-4.961-.6.666-1.533 1.034-2.28 1.328 1.626 1.937 2.758 5.357 2.744 7.51 0 0-.905-3.939-2.311-5.318 0 0 .506 2.378.118 4.679 0 0-1.085-4.942-1.385-4.609.466 2.824-.562 6.236-.562 6.236s-.478-6.685-.931-5.647c-.248 3.749-2.242 6.897-2.242 6.897s2.242-6.897 1.162-6.901c-.114.26-.341.779-.754 1.371-.114.26-.3.333-.227.519-.187.074-.113.26-.3.333l-.113.26c-.187.073-.114.259-.301.333 0 0-.186.073-.113.259-.113.26-.3.333-.487.407l-.186.073-.374.148-.186.073c-.187.074-.187.074-.447-.039.187-.073.3-.333.6-.666 1.127-1.518 2.001-4.225 3.055-5.929.187-.074.114-.26.3-.333-.52-.225-.78-.337-1.113-.635-.113.259-.413.592-.64 1.111-1.054 1.704-2.975 5.039-3.589 7.858-.04.446-.267.965-.307 1.41.073.186-.114.259-.04.445-.114.26-.04.446-.081.891.074.186.074.186-.113.26.073.185-.04.445.106.817l.074.186.293.743.073.186.22.558.073.186c.073.186.26.112.333.298l.074.186c.333.298.78.337 1.226.375 2.16.008 4.507-.058 6.067.616 1.373.748 3.792.868 5.633-1.576 1.914-2.258-.111-5.755-.991-7.986-.879-2.231-3.245-4.949-3.245-4.949s3.252 3.872 6.218 5.925 8.399 2.703 9.167-.821c.954-3.598 1.302-5.453 2.282-7.343.981-1.89.035-5.383-3.531-6.77-3.566-1.386-7.26-.36-7.26-.36s9.254-2.788 6.983-8.551c-1.525-6.057-3.486-2.277-6.332-5.666zM90.722 577.483c-.363 10.023 8.323 31.514 25.95 29.72-16.398-3.845-22.206-21.316-25.95-29.72z"/><path d="M82.777 550.761c-1.02-3.679-4.278-6.475-8.225-6.638-1.34-.116-2.533.139-3.653.581.342-6.793 2.82-21.301 16.524-38.516 0 0-19.851 17.49-19.892 40.917-1.387 1.406-2.48 3.555-2.495 5.709-.247 3.749 1.965 7.172 5.344 8.632-.713.926-1.654 2.37-1.954 2.703-4.402 6.89-5.27 14.535-2.64 22.304 6.468 19.144 19.872 25.243 38.497 30.359 8.439 2.258 17.559 2.959 26.172 1.282 3.207-.62 7.534-1.681 10.374-3.231 1.607-.848 2.328-2.85 1.668-4.523-.659-1.673-2.552-2.645-4.306-2.169-.746.295-1.566.403-2.16-.008-2.672-1.309-4.337-8.814-5.176-11.49-.106-.817-.4-1.561-.433-2.192-.506-2.378-.711-5.089-.957-7.355-.239-3.342-.738-6.797-1.351-9.992-1.917-8.694-5.555-16.281-12.219-22.245-10.924-9.655-23.104-9.364-33.118-4.128zm-8.79 11.626l.113-.259c3.873-.023 7.167-2.611 8.382-6.096 4.96-1.096 12.846.306 16.991 4.256-4.705-3.73-13.305-4.206-14.392-3.133-1.273 1.146 2.713.864 4.833 1.317 4.76 1.13 6.606 3.625 7.605 4.519-5.339-3.695-13.191-4.465-13.205-2.312 1.333 1.193 7.399 1.809 11.298 3.493 3.64 1.573 8.825 5.972 11.777 10.178 0 0 .073.186-.113.26-5.918-6.259-22.116-12.331-23.683-11.929.18 1.004 17.15 8.49 19.022 12.692-3.779-3.021-16.47-10.046-18.443-10.128-3.833-.422 9.865 6.421 10.964 9.21-4.299-3.246-15.397-8.966-15.817-7.296-.421 1.669 7.03 6.893 7.097 8.156-1.64.217-7.891-6.34-9.11-7.792-3.626-3.726 6.428 13.574 7.055 14.616-3.526-1.832-8.497-10.612-8.497-10.612 1.111 6.65 13.2 20.356 13.2 20.356-11.124-7.428-16.32-21.704-16.32-21.704-.221 5.457 8.781 18.447 8.781 18.447-4.452-2.541-8.896-12.173-8.896-12.173.878 8.246 4.836 12.27 4.836 12.27-10.651-5.682-5.073-21.626-3.478-26.336zm53.384 48.976c-19.981 2.935-40.41-11.134-39.015-36.598 34.243 8.624 12.291 28.446 39.015 36.598zm-.902-15.968c2.177 8.807 4.274 18.504 12.295 16.417 0 0-13.529 7.265-33.9 1.549-20.298-5.53-30.536-11.804-36.09-28.085-2.778-8.141.55-16.111 3.785-21.037-2.648 6.413-6.36 21.622 4.67 32.094 5.832 8.226 25.636 15.239 35.195 17.055 9.486 1.631 19.373-1.193 19.373-1.193-7.425-3.516-9.781-19.341-10.684-29.294-.717-10.027-4.388-18.245-13.459-26.482-9.784-7.312-20.725-2.785-24.872-.72.113-.26.227-.519.153-.705 8.188-4.946 19.449-7.022 29.926 2.594 13.622 12.672 11.504 29.186 13.608 37.807zM29.235 227.79c-3.775 7.931 2.055 16.157 8.962 13.434 6.981-2.536 5.783-7.219 5.783-7.219-3.867-1.053-3.553-3.539-.939-4.57 2.427-.956 6.293.097 5.084 8.521-2.336 9.941-12.925 17.551-26.146 23.407-23.156 10.202-50.335 32.084-31.33 58.957-6.348 2.502-9.263 9.88-6.512 16.313l.366.929-.333-.298-5.789 8.296s16.26-43.566-10.61-52.09c0 0 15.942 10.898 12.236 31.044-3.706 20.147-11.321 28.733-11.321 28.733s12.94-2.738 19.256-11.886c3.373 2.537 8.172 3.222 12.393 1.344 4.033-1.805 6.628-5.62 7.176-9.702 2.82 1.681 9.058 4.377 18.872 1.367 11.194-3.338 23.104-13.617 29.5-23.655 17.494-27.3 8.771-60.374 2.203-75.397-6.83-15.135-22.261-18.717-28.85-7.528zm7.844 30.843c-.66-1.673.134-3.49 1.628-4.078 1.68-.663 3.426-.062 4.086 1.611.66 1.673.052 3.416-1.555 4.264-1.493.588-3.313-.198-4.159-1.797zM-.538 339.398c-5.154 2.246-11.246-.078-13.484-5.209-2.239-5.132.11-11.212 5.264-13.458 1.68-.663 5.48-.872 7.153-.458l-.34.779c-3.98-.794-7.321 3.315-5.596 7.145 1.213 2.529 4.332 3.877 6.873 2.661 2.353-1.143 3.634-3.366 3.055-5.929.486-.407.786-.74 1.273-1.147.407.484.887 1.154 1.18 1.898C7.33 332 2.563 337.961-.538 339.398zm55.925-44.167c.733 1.859-.1 4.121-1.968 4.857-4.366 1.506-6.938-3.924-2.897-6.805 1.866-.736 4.133.089 4.866 1.948zM42.93 286.61c-.56.221-1.193.256-1.826.291-3.98-.794-4.358-5.585-1.071-7.095 1.866-.736 4.133.089 4.865 1.948.92 1.785.086 4.047-1.968 4.856zm-3.2-17.424c.732 1.859-.102 4.121-1.969 4.857-1.12.441-2.2.438-3.24-.012l-3.088 5.298-.087 1.968c.073.186-.047 1.522-.321 3.563l7.268-6.731-7.656 9.031c-.153.705-.234 1.596-.574 2.374 2.247-1.959 4.421-4.105 6.368-5.732-2.027 2.518-4.881 6.22-7.209 9.071-.38 1.224-.834 2.261-1.214 3.485 4.828-3.621 10.929-8.388 12.576-9.682-2.174 2.146-11.997 12.246-15.785 16.317l-.3.333 18.817-13.002-11.77 11.727c.187-.073.633-.035.82-.108l14.33-10.159-11.09 10.17c.633-.034 1.267-.069 1.787.155l9.714-4.903-6.588 5.174.26.113.967.263c1.98-.995 4.927-1.727 6.98-2.537l-5.127 3.955-.908 2.075 10.861-3.636-14.209 8.822c-.6.666-1.127 1.518-1.914 2.258l10.755-4.454-13.87 8.044c-.486.407-.973.814-1.2 1.332.447.039.82-.108 1.08.004l13.628-5.371-10.988 6.049c2.193.639 2.966 2.053 3.219 3.242-1.527-.043-3.2-.457-4.686-.945-2.007-.713-4.58-.128-7.12 1.088-4.828 3.621-9.949 6.499-15.77 8.149-2.166 1.069-3.733 1.471-5.446 1.502.007-1.076.087-1.967-.28-2.896 3.914-.469 9.621-1.86 16.129-6.143 12.715-8.234 17.358-17.796 17.358-17.796s-11.086-1.859-18.6 2.607c-.714.925-1.427 1.851-2.328 2.85-6.042 7.107-10.43 11.843-13.764 14.876-.48-.67-1.033-1.526-1.512-2.196 3.52-3.106 8.135-8.362 13.277-14.469 11.07-12.955 11.315-27.656 11.315-27.656s-10.381 4.307-19.738 17.23c-5.636 7.591-8.892 15.747-10.826 21.235-.78-.337-1.674-.414-2.567-.492 1.595-4.709 4.17-11.308 8.459-17.939l.226-.519c4.183-7.447-.462-14.852-.462-14.852s-2.734 2.366-10.15 14.74c-4.783 8.114-2.705 15.027-.606 18.71-.634.035-1.007.182-1.567.403-2.798-4.911-3.782-13.973-.054-20.383 1.28-2.223 2.635-4.26 3.502-5.891.061-3.675-1.258-7.021-2.137-9.252 1.413.302 3.493 1.201 4.072 3.764l1.228-5.638-.269 6.978c2.781-3.888 4.055-5.034 4.169-5.294l2.768-7.749-1.008 6.196.487-.406 1.106 1.711c.834-2.261 1.595-4.709 2.202-6.452-2.86-1.235-2.832-5.542.155-6.719 1.867-.736 4.133.089 4.866 1.948.733 1.859-.101 4.12-1.968 4.856-.747.295-1.567.403-2.273.252-.574 2.374-1.302 5.453-1.843 8.458l1.026 2.603 8.232-17.42-7.154 23.438c.3-.333.714-.925 1.014-1.258l9.893-20.867c-1.154-.19-2.34-1.011-2.78-2.127-.733-1.858.101-4.12 1.968-4.856 1.867-.736 4.133.089 4.866 1.948.733 1.859-.101 4.121-1.968 4.856-.373.148-.747.295-1.193.256l-4.711 14.314c.6-.666 1.46-1.22 2.134-1.7l8.411-16.417-3.77 12.869c1.047-.627 2.093-1.254 2.767-1.735l7.684-13.338-5.144 12.122 2.987-1.177 2.968-3.962c-2.186-1.716-1.865-5.279.748-6.309 2.354-1.143 4.62-.318 5.353 1.541zm18.762 12.579c.732 1.859-.102 4.121-1.969 4.857-1.866.735-4.133-.089-4.866-1.948-.732-1.859.102-4.121 1.969-4.857 1.793-.922 4.06-.097 4.866 1.948zm-6.702-17.548c.733 1.859-.101 4.121-1.968 4.857-1.867.736-4.133-.089-4.866-1.948-.733-1.859.101-4.121 1.968-4.857 1.867-.736 4.133.089 4.866 1.948zm10.566 1.634c.66 1.674.052 3.416-1.554 4.265-1.68.662-3.5-.124-4.087-1.612-.659-1.673.135-3.489 1.628-4.078 1.42-.774 3.24.012 4.013 1.425zm-6.741-17.102c.66 1.673-.135 3.49-1.555 4.264-1.68.662-3.426.062-4.086-1.611-.66-1.673-.052-3.416 1.628-4.078 1.42-.775 3.167-.174 4.013 1.425zM133.509 262.504c-4.981 4.327-3.504 11.906 2.229 12.223 5.733.318 6.168-3.505 6.168-3.505-2.333-2.087-1.392-3.532.581-3.451 1.973.082 4.419 1.91 1.031 7.541-4.622 6.332-14.542 8.524-25.529 8.559-19.366.117-45.407 7.375-40.168 32.157-5.213-.093-9.561 4.198-9.596 9.581.073.186-.04.446.033.632l-.147-.372-6.58 4.097s24.746-25.863 8.378-40.029c0 0 7.962 12.54-.875 25.688-8.577 13.261-16.83 16.944-16.83 16.944s10.078 2.041 17.146-2.463c1.546 2.827 4.699 4.806 8.312 4.67 3.426-.062 6.567-1.944 8.074-4.686 1.44 2.01 5.065 5.736 12.991 6.692 9.006.961 20.501-2.711 28.169-7.881 20.61-13.924 24.504-40.158 24.475-52.819-.07-12.215-9.667-19.6-17.862-13.578zm-3.807 24.268c-.067-1.263 1.207-2.409 2.474-2.479 1.266-.07 2.339 1.011 2.479 2.459.066 1.263-1.021 2.336-2.474 2.479-1.34-.116-2.413-1.197-2.479-2.459zm-51.206 45.743c-4.32-.016-7.872-3.556-8.031-7.789.028-4.306 3.516-8.044 7.835-8.028 1.527.042 4.127 1.166 5.053 1.874-.187.074-.3.333-.487.407-2.632-1.754-6.22.089-6.167 3.505-.014 2.153 1.799 4.016 4.145 3.95 2.16.008 3.62-1.212 3.894-3.253.374-.147.747-.294 1.194-.256.22.558.253 1.189.213 1.635.078 5.123-5.116 7.815-7.65 7.955zm37.068-7.739c-.56.221-1.234.701-1.98.996l8.899.143-12.373 1.441-1.307.515.78.337 11.393.449-9.54.968c1.259 1.007 1.399 2.455 1.319 3.346-1.113-.635-2.227-1.27-2.966-2.052-1.26-1.007-3.12-1.348-5.466-1.282-4.514 1.135-9.06 1.638-13.6 1.065-1.9.105-3.24-.012-4.353-.647.34-.778.567-1.297.647-2.188 2.9.79 7.326 1.623 13.366.53 11.52-1.963 17.589-7.362 17.589-7.362s-7.232-4.667-14.052-3.911c-.86.553-1.607.848-2.467 1.402-6.501 3.206-11.095 5.232-14.342 6.297-.033-.631-.326-1.375-.36-2.006 3.434-1.139 8.142-3.424 13.782-6.077 11.768-5.712 16.491-16.165 16.491-16.165s-8.639-.031-19.108 6.243c-6.28 3.764-11.115 8.462-14.116 11.793-.593-.411-1.187-.821-1.706-1.046 2.587-2.738 6.448-6.622 11.276-10.243l.3-.334c5.314-4.027 4.203-10.677 4.203-10.677s-2.687.844-11.555 7.347c-5.875 4.248-6.47 9.852-6.117 12.935-.447-.038-.707-.151-1.154-.189-.418-4.346 1.637-11.17 6.164-14.458 1.648-1.293 2.994-2.254 4.415-3.029 1.134-2.594 1.374-5.267 1.275-7.16.927.708 2.073 1.975 1.725 3.83l2.481-3.555-2.228 4.744c3.141-1.882 4.261-2.324 4.448-2.398l4.201-4.663-2.521 4.001.56-.221.14 1.449c1.2-1.332 2.587-2.738 3.601-3.997-1.553-1.75-.379-4.791 2.228-4.744 1.526.042 2.859 1.235 2.812 2.757-.047 1.522-1.247 2.854-2.774 2.812-.633.035-1.153-.19-1.673-.414-1.127 1.518-2.481 3.555-3.908 5.406.033.631.066 1.263-.014 2.153l11.236-9.798-12.198 14.473c.374-.147.747-.294 1.047-.628l13.297-11.684c-.854-.523-1.407-1.379-1.4-2.455a2.972 2.972 0 012.961-2.886c1.527.043 2.86 1.236 2.886 2.944-.047 1.522-1.248 2.854-2.774 2.811-.26-.112-.634.035-.894-.077l-7.729 8.846c.747-.295 1.307-.516 1.94-.55l11.083-9.094-6.569 7.959c1.007-.182 1.827-.291 2.46-.326l9.542-6.982-7.382 6.99 2.42.12 3.327-1.956c-1.179-1.897.288-4.194 2.448-4.186a2.95 2.95 0 012.886 2.943c-.048 1.522-1.248 2.854-2.774 2.812-.894-.078-1.674-.415-2.153-1.085l-3.855 2.808-.753 1.371c-.114.26-.454 1.038-1.394 2.483l7.167-2.611-8.108 4.055c-.226.519-.713.926-1.127 1.519 2.054-.81 4.367-1.507 6.234-2.243-2.167 1.069-5.307 2.951-7.848 4.167-.6.667-1.2 1.333-1.987 2.072 4.514-1.134 10.221-2.525 11.787-2.928-2.24.883-12.248 5.043-16.095 6.774l-.373.147 17.154-3.54-11.948 4.71c.26.112.52.225.707.151l13.314-2.886-10.788 3.823 1.3.562 8.42-.527-6.267 1.611.26.112.593.411c1.713-.031 4.02.348 5.733.317l-4.7 1.209-1.274 1.146 8.673.662-12.9 2.293zm15.981-6.514a2.97 2.97 0 01-2.96 2.885c-3.574-.31-3.692-4.988-.112-5.755 1.713-.031 3.046 1.162 3.072 2.87zm-3.342-12.858c-.048 1.522-1.248 2.854-2.774 2.812-.447-.039-.894-.078-1.414-.302-2.446-1.828-1.418-5.24 1.302-5.453 1.527.042 2.933 1.421 2.886 2.943zm9.618 4.155c-.047 1.522-1.247 2.855-2.774 2.812a2.949 2.949 0 01-2.886-2.943c.047-1.522 1.248-2.854 2.774-2.812 1.527.043 2.86 1.236 2.886 2.943zm-2.383-11.517c-1.527-.043-2.86-1.236-2.886-2.944.047-1.522 1.248-2.854 2.774-2.811 1.527.042 2.86 1.235 2.813 2.757.213 1.634-.988 2.967-2.701 2.998zm9.859 1.483c.067 1.262-1.02 2.335-2.474 2.478-1.266.07-2.413-1.196-2.479-2.459-.066-1.262 1.207-2.409 2.474-2.478 1.34.116 2.413 1.196 2.479 2.459zm.465-14.144c.066 1.263-1.208 2.409-2.474 2.479-1.267.07-2.413-1.197-2.48-2.459-.066-1.263 1.021-2.336 2.474-2.479 1.267-.07 2.413 1.197 2.48 2.459zM225.182 276.198c-2.488 4.632.644 9.841 4.898 8.594 4.44-1.321 3.714-4.257 3.714-4.257-2.266-.825-1.959-2.234-.466-2.823 1.494-.589 3.833.422 2.759 5.356-1.789 5.86-8.483 10.217-16.771 13.269-14.521 5.294-31.917 17.521-21.49 34.673-3.993 1.36-6.181 5.659-4.642 9.563l.22.557-.26-.112-3.755 4.702s11.601-25.836-4.484-32.168c0 0 9.151 7.346 6.168 19.476-2.984 12.13-7.932 17.087-7.932 17.087s7.94-1.196 12.108-6.491c2 1.79 4.826 2.394 7.44 1.363 2.613-1.03 4.341-3.214 4.915-5.588 1.519 1.119 5.305 3.063 11.386 1.526 6.9-1.646 14.535-7.448 18.93-13.261 11.684-15.774 7.684-36.32 4.393-45.762-3.29-9.442-12.582-12.222-17.131-5.704zm4.808 16.575c.934-.367 2.234.194 2.413 1.197.367.93-.2 2.227-1.207 2.409-.933.368-2.233-.194-2.413-1.197-.366-.929.274-2.041 1.207-2.409zm-27.287 50.061c-3.174 1.251-6.887-.507-7.946-3.741-1.245-3.16.529-6.866 3.703-8.117 1.12-.442 3.353-.248 4.32.015l-.227.519c-2.38-.565-4.667 1.84-3.715 4.256.66 1.673 2.48 2.459 3.973 1.871 1.494-.589 2.321-1.774 2.108-3.408.373-.148.486-.407.86-.554.146.372.48.67.699 1.228 1.279 3.791-1.908 7.195-3.775 7.931zm34.365-21.708c-2.76.659-4.079-2.687-1.498-4.349 1.12-.441 2.42.12 2.933 1.422.439 1.115-.314 2.486-1.435 2.927zm-5.79-8.671c-.373.147-.82.109-1.267.07-2.38-.565-2.472-3.536-.418-4.345 1.12-.442 2.419.12 2.932 1.421.44 1.115-.127 2.413-1.247 2.854zm-2.631-7.769c-.747.295-1.453.144-1.973-.081l-1.995 3.149-.193 1.15c.073.186-.08.891-.461 2.114l4.568-3.733-5.062 5.217c-.04.445-.267.964-.493 1.483 1.46-1.22 2.994-2.254 4.081-3.327-1.388 1.406-3.115 3.59-4.802 5.329-.153.705-.567 1.298-.907 2.076 3.067-2.068 6.994-4.69 8.041-5.317-1.46 1.22-7.828 6.952-10.376 9.244l-.113.26 11.815-7.235-7.528 6.619c.186-.074.446.039.633-.035l9.162-5.759-7.002 5.767c.447.039.707.151 1.08.004l6.087-2.615-4.227 2.955.26.113.706.151c1.307-.515 3.134-.806 4.441-1.321l-3.254 2.142-.641 1.111 6.827-1.832-8.894 4.795c-.3.333-.714.926-1.2 1.332l6.607-2.389-8.855 4.349c-.3.333-.673.48-.787.74.187-.074.447.038.634-.035l8.62-2.754-6.947 3.168c1.226.376 1.666 1.491 1.886 2.049-.893-.077-1.86-.341-2.9-.79-1.3-.562-2.68-.232-4.36.43-3.067 2.068-6.354 3.578-9.934 4.345-1.307.515-2.314.697-3.394.694-.033-.632.194-1.151-.026-1.708 2.347-.066 5.927-.833 10.001-3.083 7.961-4.427 11.276-10.244 11.276-10.244s-6.693-1.657-11.513.887c-.414.593-1.087 1.073-1.501 1.665-3.974 4.144-6.822 6.77-8.955 8.47-.22-.557-.553-.856-.773-1.413 2.32-1.774 5.281-4.659 8.582-8.323 7.235-7.362 8.038-16.27 8.038-16.27s-6.494 2.13-12.576 9.682c-3.641 4.442-6.056 9.26-7.343 12.56-.52-.225-.967-.263-1.674-.414 1.061-2.781 2.949-6.747 5.73-10.635l.113-.26c2.822-4.333.283-9.132.283-9.132s-1.833 1.367-6.795 8.478c-3.308 4.74-2.256 9.051-1.117 11.394-.374.147-.634.035-1.007.182-1.619-3.013-1.731-8.768.75-12.324.941-1.444 1.654-2.37 2.555-3.369.2-2.227-.419-4.345-.932-5.647.967.264 2.08.899 2.219 2.347l1.028-3.412-.475 4.268c1.728-2.184 2.515-2.924 2.701-2.997l2.042-4.671-.882 3.784.301-.333.626 1.041c.567-1.297 1.061-2.78 1.701-3.892-1.633-.86-1.579-3.458.288-4.194 1.12-.442 2.42.12 2.933 1.421.439 1.116-.128 2.413-1.434 2.928-.374.147-1.007.182-1.267.07-.494 1.483-.841 3.338-1.448 5.081.146.372.366.929.399 1.561l5.69-10.19-5.304 13.904c.3-.333.487-.407.787-.74l6.857-12.153c-.707-.151-1.374-.747-1.667-1.491-.439-1.115.128-2.413 1.435-2.928 1.12-.441 2.419.12 2.932 1.421.44 1.116-.127 2.413-1.434 2.928-.186.074-.373.147-.633.035l-3.483 8.675c.487-.406.787-.739 1.347-.96l5.91-9.632-2.769 7.75c.673-.481 1.233-.701 1.793-.922l5.116-7.816-3.696 7.041 1.867-.736 1.914-2.257c-1.333-1.193-.872-3.308.621-3.897 1.121-.441 2.42.12 2.933 1.422.473 1.746-.094 3.044-1.214 3.485zm10.857 8.393c-1.12.441-2.42-.12-2.933-1.422-.439-1.115.128-2.412 1.434-2.928 1.121-.441 2.42.12 2.933 1.422.44 1.115-.127 2.413-1.434 2.928zm-3.243-10.964c-1.12.441-2.42-.12-2.933-1.422-.44-1.115.127-2.412 1.434-2.928 1.12-.441 2.42.12 2.933 1.422.253 1.189-.314 2.486-1.434 2.928zm6.473 1.099c-.934.368-2.234-.193-2.413-1.196-.367-.93.2-2.227 1.207-2.409.934-.368 2.233.193 2.413 1.197.366.929-.274 2.041-1.207 2.408zm-3.544-10.63c-.933.367-2.233-.194-2.413-1.197-.366-.93.201-2.227 1.208-2.409.933-.368 2.233.194 2.413 1.197.366.929-.088 1.967-1.208 2.409zM30.492 349.718c-6.3.98-9.001 3.978-10.055 5.682-1.326-2.27-3.812-3.652-6.532-3.439-2.793.027-5.187 1.615-6.394 4.024-5.826-3.288-13.546-1.534-13.546-1.534s6.499 2.808 13.695 12.858c7.27 10.236 1.32 20.313 1.32 20.313 12.664-11.65-7.616-31.362-7.616-31.362l5.306 3.063.113-.259c.073.186-.04.445.033.631.159 4.233 3.564 7.401 7.811 7.231-3.593 19.887 17.119 24.824 32.465 24.359 8.753-.228 16.713 1.36 20.518 6.088 2.765 4.28 1.078 6.019-.635 6.05-1.714.031-2.413-1.197-.653-2.75 0 0-.539-3.009-5.086-2.506-4.62.318-5.628 6.514-1.516 9.833 6.525 4.516 14.087-1.471 13.817-11.46-.27-9.988-4.084-30.607-20.7-41.024-6.193-4.218-15.412-6.812-22.345-5.798zm26.202 13.942c.066 1.263-1.021 2.336-2.288 2.405-2.826-.604-2.952-4.206-.045-4.492 1.267-.07 2.266.825 2.333 2.087zm-48.318-3.291c-.053-3.416 2.648-6.414 6.075-6.476 1.9-.104 6.206 2.065 6.478 6.038l-.12 1.336c-.26-.112-.707-.151-.967-.263-.4-1.561-1.586-2.382-3.112-2.424-1.714.031-3.1 1.436-3.002 3.33.133 2.525 3.066 3.947 5.086 2.506.074.186.334.298.334.298-.787.74-2.84 1.549-4.107 1.619-3.8.209-6.613-2.548-6.665-5.964zm42.06 20.793l-2.674-1.309-1.9.104 5.998 5.368-7.711-5.337c-.447-.038-1.34-.116-2.047-.267l5.472 6.22-8.931-6.789c-.447-.039-.967-.264-1.673-.415l6.324 6.743c.187-.074.373-.147.633-.035 1.267-.07 2.34 1.011 2.406 2.273.067 1.263-1.02 2.336-2.287 2.406-1.267.069-2.34-1.011-2.406-2.274-.106-.817.494-1.483.98-1.89l-10.816-8.837c-.26-.113-.52-.225-.854-.523l9.983 11.099-8.964-7.42c.033.631.066 1.262.026 1.708 1.22 1.452 2.253 2.978 3.14 4.132.3-.333.746-.294 1.306-.515 1.267-.07 2.34 1.011 2.406 2.273.066 1.263-1.02 2.336-2.1 2.332-1.9.104-3.04-2.239-1.913-3.757a192.1 192.1 0 00-2.886-2.943l-.193 1.15-.447-.039 2.139 3.238-3.552-3.54c-.187.074-1.227-.375-3.713-1.758l1.912 3.757-2.179-2.793c.4 1.561-.5 2.56-1.36 3.114.046-1.522-.126-3.602-1.12-5.573-1.112-.635-2.225-1.27-3.485-2.277-3.82-2.575-5.61-7.668-5.29-11.231.373-.147.633-.035 1.007-.182-.054 2.598.551 6.87 5.297 10.154 7.118 4.926 9.311 5.566 9.311 5.566s.742-5.233-3.484-8.292l-.26-.113c-4.079-2.687-7.151-5.557-9.297-7.718.56-.221.86-.554 1.346-.96 2.48 2.459 6.292 6.111 11.524 8.988 8.572 4.783 15.352 4.473 15.352 4.473s-4.044-8.071-13.476-12.3c-4.493-2.095-8.319-3.594-11.032-4.457.227-.519.267-.965.234-1.596 2.64.678 6.28 2.25 11.552 4.682.78.337 1.373.748 2.08.899 5.359.464 10.933-3.451 10.933-3.451s-5.038-4.028-14.191-5.36c-4.8-.685-8.193.008-10.507.705l-.66-1.673c.861-.554 1.941-.55 3.394-.693 3.654-.581 7.227-.272 10.76.484 1.9-.105 3.353-.248 4.254-1.247.786-.74 1.647-1.294 2.32-1.774.033.631.026 1.708-.947 2.521l7.52.472-9.054.562-.56.221c.26.112.706.151 1.04.449l9.826.852-7.04.198c.52.224 1.113.635 1.633.859l9.973 1.224-7.007.829 1 .894 3.793.868c-1.267.07-3.094.36-4.547.503l-.487.407-.186.074 5.02 1.243-6.554-.209c-.373.147-.56.221-.86.554l8.659 2.815-10.453-1.894-.56.221 9.512 3.338-13.652-2.35.26.112c3.046 1.162 11.218 4.384 12.965 4.984-1.227-.375-5.913-1.32-9.446-2.075.666.596 1.073 1.08 1.74 1.676 2.08.899 4.565 2.281 6.385 3.068-1.487-.488-3.233-1.089-4.906-1.503.406.484.74.782.886 1.154l6.572 2.994-5.685-1.84c.626 1.042 1.106 1.712 1.179 1.898l.44 1.115 3.039 2.239c.413-.593.973-.814 1.793-.922 1.267-.07 2.34 1.011 2.406 2.273.067 1.263-1.02 2.336-2.287 2.405-1.666-1.491-2.772-3.202-2.092-4.759zm9.597 7.385c-.007 1.077-.72 2.002-1.8 1.999-1.08-.004-2.007-.713-2-1.79.007-1.076.72-2.002 1.8-1.998 1.007-.182 1.82.786 2 1.789zm-7.89-12.354a2.299 2.299 0 01-1.238-4.237c.373-.147.746-.294 1.193-.256 1.267-.069 2.34 1.011 2.406 2.274-.194 1.15-1.02 2.335-2.36 2.219zm6.145 5.739c-.066-1.262 1.02-2.335 2.287-2.405 1.267-.069 2.34 1.011 2.406 2.274.067 1.262-1.02 2.335-2.287 2.405-1.34-.117-2.6-1.123-2.406-2.274zm10.49 7.463c-.006 1.077-.72 2.002-1.8 1.999-1.08-.004-2.006-.713-2-1.79.008-1.076.722-2.002 1.802-1.998 1.006-.182 2.006.712 1.999 1.789zm-.782-11.289c-.007 1.076-.721 2.002-1.8 1.998-1.08-.004-2.007-.712-2-1.789.007-1.077.72-2.002 1.8-1.998 1.267-.07 2.007.712 2 1.789zm-6.058-7.707c.066 1.262-1.02 2.335-2.1 2.331-1.267.07-2.34-1.01-2.333-2.087-.067-1.263 1.02-2.335 2.287-2.405 1.08.004 2.08.898 2.146 2.161zM113.612 97.665c-7.173 20.654-23.678 38.973-23.864 39.046 1.608-6.862 8.93-33.159 13.701-51.149 9.872-17.637 14.919 2.281 10.163 12.103zM134.543 103.16c-7.455 6.805-18.316 10.442-18.316 10.442s10.036-8.467 14.764-13.981c4.468-5.628 8.67-10.29 10.782-8.761 2 1.79.039 5.57-7.23 12.3zM139.995 106.595c3.068-2.068 5.842-4.88 8.009-5.948 1.493-.589 2.646-.399 3.199.457-4.747 2.73-8.594 4.461-11.208 5.491zM129.526 95.903c-9.083 10.882-20.719 19.12-20.719 19.12s10.085-16.003 11.866-20.786c1.781-4.783 2.437-14.062 7.951-14.302 5.773-.128 9.985 5.085.902 15.968zM165.487 109.434c-.288 4.194-20.866 1.782-20.866 1.782s21.341-6.05 20.866-1.782z"/><path d="M180.564 184.892c-14.265 17.436-28.716 11.964-34.261 5.558-5.431-6.665 5.479-17.838 12.356-10.24 6.951 7.784-5.55 11.638-5.55 11.638 24.531 7.513 39.421-25.848 29.347-45.932-9.887-20.158-39.721-36.749-61.003-28.36-20.909 8.241-32.695 28.136-33.035 28.915 21.331-38.907 51.511-41.138 76.985-24.117 25.548 17.206 29.426 45.102 15.161 62.538z"/><path d="M170.993 156.233s3.209-6.634-3.601-18.984c-7.069-12.463-28.267-16.994-28.267-16.994s21.072.929 29.994 14.809c8.923 13.88 2.061 21.096 1.874 21.169z"/><path d="M156.032 160.412c-9.831 17.192-26.724 14.83-36.134 7.371-9.411-7.459-10.428-17.153-4.646-24.372 5.782-7.219 12.368-6.379 16.48-3.06 4.112 3.319 2.903 11.743-2.917 13.392-5.894 1.464-7.565-4.964-7.565-4.964s3.885 3.838 7.966.511-.15-11.324-8.031-7.788c-7.694 3.462-5.71 13.419.522 17.191 6.232 3.772 11.993-.217 16.095-6.774 4.102-6.557 1.705-15.921-10.267-18.934-9.333-2.335-12.847-.306-27.162 7.7 0 0 13.291-16.623 31.471-17.56 18.326-.566 34.02 20.095 24.188 37.287zM148.935 106.293c-4.487 2.843-16.147 3.358-16.147 3.358 2.087-.178 4.327-1.061 6.161-2.428 4.253-1.247 8.507-2.494 12.427-4.04-.007 1.077-.907 2.076-2.441 3.11zM23.805 152.18c-7.785-5.522-14.773-1.909-18.447 1.902-7.909 7.843-7.508 26.37-16.624 36.622 0 0 23.3-3.815 31.876-11.061 10.75-9.392 11.906-21.232 3.195-27.463zm-3.4 1.77c-.081.891-.275 2.041-.355 2.932 1.52 1.119 1.879 3.125.679 4.457-.6.667-1.46 1.22-2.354 1.143-.68 1.557-1.36 3.114-2.115 4.485 1.033 1.526 1.02 3.679-.181 5.011-1.127 1.518-2.88 1.995-4.554 1.58-7.729 8.846-17.63 13.823-17.63 13.823 5.347-3.397 10.75-9.392 15.184-15.651-2.139-3.237.87-7.645 4.662-6.777.827-1.185 1.58-2.556 2.294-3.482-1.073-1.08-1.172-2.974-.158-4.233.9-.999 2.207-1.514 3.433-1.138.567-1.298 1.094-2.15 1.094-2.15zM66.237 195.807c-10.053-.333-41.014 7.576-41.014 7.576s7.458 4.148 23.269 12.521c15.81 8.373 25.792 2.505 28.873-1.716 5.335-7.258-1.075-18.048-11.128-18.381zm7.705 6.414s-1.16.886-3.254 2.141l.073.186c.7 1.228.133 2.525-1.1 3.226-1.308.515-2.534.14-3.234-1.088l-.073-.186c-.933.368-2.054.81-3.247 1.065-.007 1.077-.387 2.301-1.507 2.742-1.42.775-2.98.101-3.753-1.313l-.147-.371c-1.007.182-2.087.178-3.353.247-.194 1.151-1.094 2.15-2.14 2.777-1.981.996-4.248.171-5.24-1.8l-.44-1.116c-11.613-1.007-17.991-5.151-17.991-5.151s6.979 3.478 17.998 4.074c.194-1.15 1.02-2.335 2.068-2.962 1.98-.996 4.246-.171 5.239 1.801l.366.929c1.007-.182 2.087-.178 3.094-.36.153-.705.68-1.557 1.614-1.925 1.233-.701 2.72-.213 3.606.941 1.193-.256 2.387-.511 3.693-1.026.154-.705.567-1.298 1.314-1.592.934-.368 1.827-.291 2.567.492 1.233-.701 2.54-1.216 3.847-1.731z"/><path d="M75.634 73.545s-.527.852-1.468 2.297c1.36 2.9 13.998 29.491 6.312 48.844.428-2.746 4.115-25.677-7.665-46.807-.714.926-1.541 2.11-2.441 3.11 3.025 4.392 11.172 22.873 7.08 39.305 0 0 2.107-20.375-8.28-37.973-1.088 1.073-2.101 2.332-3.375 3.478 1.806 2.94 10.428 17.153 6.684 31.73 0 0 1.891-15.995-7.658-30.917-.973.814-1.947 1.627-3.107 2.514 2.139 3.238 9.135 15.514 6.166 25.491-.306-4.605.603-12.695-7.026-24.937-1.72 1.107-3.7 2.103-5.64 2.653-11.495 3.671-16.291 13.938-16.291 13.938 3.75-9.64-3.63-14.678-3.63-14.678s-9.967 3.714-30.247 29.965c-20.468 26.324-21.515 72.914-21.515 72.914 25.223 9.817 70.648-11.739 93.086-48.934 22.437-37.196-.985-71.993-.985-71.993zm-45.73 79.882c18.37-13.04 24.409-31.099 24.409-31.099 1.464 9.732-15.595 27.195-22.79 34.112.44 1.116.586 1.487.84 2.676 13.962-11.088 23.64-27.575 23.64-27.575-2.943 11.685-17.26 25.705-23.255 31.289.026 1.708.14 1.449-.468 3.192 7.742-4.985 18.805-16.863 18.805-16.863-3.15 8.973-15.978 17.467-19.572 20.387l-1.054 1.704c13.55-10.496 16.92-1.944 16.92-1.944-3.912-5.546-12.68 2.85-20.77 9.69-1.54 2.11-2.693 1.921-4.567 3.733-11.056 10.802-37.202 11.228-37.202 11.228s4.423-10.12 7.766-20.243c.46-2.115.92-4.23 1.048-6.642 1.771-14.659 8.408-27.37 8.408-27.37-2.26 4.113-2.104 14.361-2.045 16.7 1.428-1.851 3.041-3.776 4.802-5.329 6.323-10.225 3.966-20.035 3.966-20.035 3.418 7.03 1.776 13.261.001 16.967 1.607-.848 3.027-1.622 4.667-1.839 7.798-13.598 4.628-24.376 4.628-24.376 5.417 8.818 1.18 18.865-1.98 23.977 1.453-.143 2.086-.178 3.386.383 15.93-15.945 11.075-30.998 11.075-30.998 8.256 13.284-2.668 26.61-8.03 32.16 1.114.635 2.3 1.456 3.3 2.351l-.666-.597c26.012-19.918 17.21-35.134 17.21-35.134 11.942 13.334-7.316 31.234-14.618 37.334 1.187.821 1.447.933 2.146 2.161z"/><path d="M159.893 202.491s-1.38.329-3.354.247c-2.809 8.195-8.812 20.871-18.867 26.553 1.46-1.22 12.436-11.131 17.341-26.595-.82.108-1.713.031-2.793.027-2.129 6.638-6.512 16.313-14.333 22.188 0 0 8.995-8.916 12.993-22.304-1.08-.004-2.234-.194-3.46-.569-1.302 5.453-4.444 13.349-11.292 18.411 0 0 7.309-7.176 10.139-18.601-.967-.263-1.933-.527-2.973-.976-.962 4.674-3.317 11.832-8.591 15.414 1.954-2.703 5.928-6.847 7.624-15.677-2.266-.825-4.379-2.355-6.005-4.291-7.317-8.714-26.05-8.633-26.05-8.633s9.655-7.242 9.924-14.221c0 0-18.257-10.201-38.504-6.301-20.247 3.901-36.032 20.217-51.553 24.617-15.594 4.214-28.955 8.621-28.955 8.621s32.942 14.078 45.716 31.164c12.775 17.087 33.762 36.951 65.637 25.89 0 0 3.691-11.979-5.921-17.211.333.298 47.618 2.063 53.277-37.753zm-77.469 12.494c-1.354 2.037-2.52 4.001-4.281 5.554 27.447 17.102 41.654 14.294 41.654 14.294-12.848 5.709-38.75-8.566-44.721-12.226-1.907 1.181-3.287 1.511-6.12 1.983 16.568 11.94 14.065 24.74 14.065 24.74.363-10.023-15.793-22.556-18.24-24.383-.893-.078-1.786-.155-2.866-.159l-2.98.1c3.697 9.927-.677 12.51-.677 12.51s2.06-1.886.302-6.348c-1.246-3.16-2.978-5.914-7.244-8.528-13.225-5.096-24.382-13.155-36.106-19.917 15.594-4.214 32.528-8.312 48.342-11.968 19.02-4.276 20.698-15.891 20.698-15.891-.536 7.944-10.985 17.002-12.259 18.149 2.526.937 4.826 2.393 6.826 4.182 14.634-5.554 19.598-18.679 19.598-18.679-1.29 9.315-12.779 17.924-17.566 21.1a16.304 16.304 0 012.832 5.542c21.76-1.704 27.31-13.342 27.31-13.342-3.518 14.058-20.244 14.852-26.918 15.979.1 1.894.012 3.861-.782 5.678 36.376 12.939 46.507-4.586 47.641-7.181l.114-.259-.114.259c-9.793 22.761-41.895 11.36-48.508 8.811zM15.736 224.734c-6.757-8.934-28.674-17.478-28.674-17.478 6.85 11.905 2.338 30.007 8.348 39.236 2.839 4.465 8.877 9.388 17.765 5.67 9.674-4.458 10.831-16.297 2.561-27.428zM5.322 228.41c1.714-.031 3.347.828 4.193 2.428.846 1.599.385 3.714-.815 5.046l1.198 4.682c.967.264 1.633.86 1.927 1.604.846 1.599.125 3.601-1.555 4.264-.007 1.076-.087 1.967-.354 2.931 0 0-.18-1.003-.84-2.676-1.266.07-2.566-.491-3.079-1.793-.773-1.413-.165-3.156.995-4.043l-1.539-3.904c-3.873.023-5.965-4.736-3.191-7.548-3.158-6.917-7.022-13.985-11.574-18.419.333.298 9.077 7.161 14.634 17.428z"/><path d="M63.002 269.678c-13.774-40.963-53.684-71.624-80.451-67.301 0 0-8.9 45.819 5.243 75.683 14.404 29.975 23.156 35.761 23.156 35.761s8.327-3.497 6.717-13.601c0 0 2.423 11.072 12.774 17.087 1.707 1.045 3.3 2.35 4.966 3.841 10.01-10.174 10.845-18.45 12.14-22.826.677 10.472-8.626 20.797-11.4 23.609.813.968 1.626 1.936 2.512 3.09 12.297-12.579 14.188-28.574 14.188-28.574.536 15.038-10.828 27.25-13.302 29.728.96 1.34 1.733 2.754 2.506 4.167 13.877-15.135 16.243-35.398 16.243-35.398.635 16.932-11.463 33.299-15.397 36.998.7 1.228 1.212 2.529 1.839 3.571 16.131-18.172 17.585-41.297 17.566-44.081 3.294 20.394-14.66 43.794-16.687 46.311l1.026 2.603S76.962 310.567 63 269.678zm-39.289-34.557l.733 1.859c2.805 3.834 13.608 14.825 14.666 24.073 0 0-8.363-14.101-14.8-20.584.212 1.635-.048 1.522-.282 3.118 4.538 6.588 15.526 23.52 15.896 35.401 0 0-5.914-18.287-17.11-31.915-.453 1.037-.753 1.371-1.467 2.296 5.384 8.187 18.284 28.876 14.761 37.996 0 0-2.26-18.868-17.235-35.517-.9.999-1.274 1.146-2.507 1.847 5.984 7.521 20.964 29.108 6.334 39.6 0 0 11.89-13.063-9.361-37.977l.86-.554c-1.234.701-2.54 1.216-3.847 1.731 4.09 6.549 11.626 21.835.976 33.121 0 0 7.984-13.671-4.183-32.501-1.453.143-2.16-.008-3.387-.383 1.899 5.91 3.842 16.312-3.32 23.86 0 0 5.576-9.93.794-24.798-1.56-.673-2.82-1.68-4.152-2.873.905 3.939 1.123 10.511-3.832 16.545 0 0 4.49-8.858.393-20.344-1.366-1.824-2.692-4.094-3.498-6.139-.647 2.188-2.91 12.316-1.598 16.739 0 0-3.71-13.788-2.198-28.559.127-2.412.328-4.639.342-6.793-1.124-10.51-3.214-21.285-3.214-21.285s25.398 5.883 33.954 18.834c1.512 2.195 2.665 2.385 3.731 4.542 6.538 8.377 13.288 18.388 18.383 13.803.26.112-4.856 7.928-15.832-5.143zM136.635 107.92l3.36-1.325c-.373.148-.673.481-.86.554-.933.368-1.68.662-2.5.771z"/><path d="M151.563 103.11c-4.107 1.619-8.174 2.792-12.428 4.039.374-.147.674-.48.86-.554 2.614-1.03 6.648-2.835 11.208-5.491.407.484.513 1.301.36 2.006z"/></g></svg>