<?xml version="1.0" encoding="utf-8"?><svg width="628" height="347" fill="none" xmlns="http://www.w3.org/2000/svg" viewBox="0 0 628 347"><path d="M111.19 317.392v10.447c0 2.85.631 5.066 1.894 6.015.948.634 2.527.95 4.421.634 1.895-.317 3.474-1.267 4.737-2.533s1.895-3.482 1.895-6.332v-17.728l-11.368 1.9v-11.714l11.052-1.582V281.62c0-2.85-.632-5.066-1.895-6.015-1.263-.95-2.842-1.267-4.736-.95-1.895.317-3.474 1.266-4.737 2.533-.632 1.582-1.263 3.482-1.263 6.648v7.597l-11.368 1.9v-6.965c0-6.648 1.579-12.03 4.421-15.829 3.158-4.115 7.578-6.648 13.578-7.597 6-.95 10.736 0 13.894 3.165 3.158 3.166 4.737 7.915 4.737 14.563v42.421c0 6.648-1.579 12.03-4.737 15.829-3.158 4.115-7.578 6.648-13.894 7.597-6 .95-10.736 0-13.894-3.165-3.158-3.166-4.737-7.915-4.737-14.563v-9.814l12-1.583zM160.451 306.312l-3.79 7.915v25.009l-12.315 1.9v-81.36l12.315-1.9v35.457l16.105-37.989 12.315-1.9-17.052 38.939 17.052 42.421-12.631 1.9-11.999-30.392zM226.447 297.765v10.763c0 6.648-1.579 12.03-4.736 15.829-3.158 4.116-7.579 6.648-13.894 7.598-6 .95-10.737 0-13.894-3.166-3.158-3.166-4.737-7.914-4.737-14.562v-42.105c0-6.648 1.579-12.029 4.737-15.828 3.157-3.799 7.578-6.648 13.894-7.598 5.999-.95 10.736 0 13.894 3.166 3.157 3.165 4.736 7.914 4.736 14.562v7.914l-11.683 1.9v-8.864c0-2.849-.632-5.065-1.895-6.015-1.263-.95-2.842-1.266-4.737-.95-1.894.317-3.473 1.266-4.736 2.533-1.263 1.266-1.895 3.482-1.895 6.648v44.004c0 2.849.632 5.065 1.895 6.015 1.263.949 2.842 1.266 4.736.949 1.895-.316 3.474-1.266 4.737-2.532 1.263-1.267 1.895-3.483 1.895-6.332v-12.03l11.683-1.899zM250.13 292.067l-3.789 7.914v25.009l-12.315 1.9v-81.36l12.315-1.899v35.456l16.104-37.989 12.316-1.899-17.052 38.938 17.052 42.421-12.631 1.9-12-30.391zM276.971 308.528c1.579-.316 2.526-.633 3.473-.949.948-.317 1.579-.633 2.211-1.583.631-.633.947-1.583 1.263-2.849.316-1.267.316-2.533.632-4.432l1.894-61.732 34.735-5.382v81.359l-12.631 1.9v-69.646l-10.736 1.582-.947 49.703c-.316 7.597-1.895 12.979-4.421 16.778-2.842 3.482-7.263 6.015-13.263 6.965l-1.894.316v-12.03h-.316zM352.441 273.389l-9.158 1.583v34.823l-12.315 1.899v-81.676l12.315-1.9v34.824l9.158-1.583v-15.512c0-6.648 1.579-12.03 4.736-15.829 3.158-4.116 7.895-6.648 13.894-7.598 6-.95 10.737 0 13.895 3.166 3.157 3.166 4.736 7.914 4.736 14.562v42.421c0 6.648-1.579 12.03-4.736 15.829-3.158 4.115-7.895 6.648-13.895 7.598-5.999.95-10.736 0-13.894-3.166-3.157-3.166-4.736-7.914-4.736-14.562v-14.879zm12.315 14.245c0 2.85.632 5.066 1.579 6.015 1.263.95 2.842 1.267 4.736.95 1.895-.316 3.474-1.266 4.737-2.532 1.263-1.267 1.579-3.483 1.579-6.649v-44.003c0-2.85-.632-5.066-1.579-6.015-1.263-.95-2.842-1.267-4.737-.95-1.894.317-3.473 1.266-4.736 2.533-1.263 1.266-1.579 3.482-1.579 6.648v44.003zM421.911 235.716c0-3.799-.632-6.015-1.579-6.964-1.263-.95-2.842-1.583-4.736-1.267-1.895.317-3.474 1.267-4.737 2.533s-1.895 3.482-1.895 6.648v6.648l-11.368 1.9v-6.015c0-6.648 1.579-11.714 4.421-15.829 3.158-3.799 7.579-6.332 13.579-7.281 5.999-.95 10.736 0 13.894 3.165 3.157 3.166 4.736 7.915 4.736 14.563v2.216c0 8.547-2.842 14.879-8.526 18.045 3.158.949 5.368 2.849 6.632 5.381 1.263 2.85 1.894 6.015 1.894 10.447v6.332c0 6.648-1.579 12.03-4.736 15.829-3.158 4.115-7.579 6.648-13.894 7.597-6 .95-10.737 0-13.894-3.165-3.158-3.166-4.737-7.915-4.737-14.563v-8.864l11.684-1.899v9.813c0 2.85.631 5.066 1.578 6.015 1.264.95 2.842 1.267 4.737.95 1.895-.317 3.474-1.266 4.737-2.533 1.263-1.266 1.578-4.115 1.578-7.597v-6.332c0-3.799-.631-6.331-1.894-7.598-1.263-1.266-3.474-1.899-6.316-1.266l-3.157.633v-11.713l3.789-.633c2.21-.317 4.105-1.266 5.368-2.849 1.263-1.583 1.895-3.799 1.895-6.965v-5.382h.947zM455.383 292.067l-12.631 1.899v-81.36l11.052-1.583v51.602l4.421-18.678 10.105-35.14 13.578-2.216v81.36l-11.052 1.9v-57.617l-5.052 20.894-10.421 38.939zM509.065 201.843c6.315-.95 11.052-.317 13.894 2.532 2.842 2.533 4.42 6.965 4.42 13.297v2.849c0 4.115-.631 7.597-1.894 10.763-1.263 2.849-3.158 5.382-6 6.965 3.474.633 5.684 2.532 7.263 5.382 1.263 2.849 2.21 6.331 2.21 10.763v6.648c0 6.332-1.579 11.397-4.736 15.196-3.158 3.799-7.895 6.331-13.894 7.281l-19.263 3.166v-81.676l18-3.166zm-6.316 12.663v21.527l4.737-.633c2.21-.317 4.105-1.267 5.368-2.849 1.263-1.583 1.894-3.799 1.894-6.965v-4.432c0-2.849-.631-5.065-1.578-6.015-.948-1.266-2.527-1.583-4.737-1.266l-5.684.633zm0 33.24v25.009l6.947-1.266c2.211-.316 3.789-1.266 4.737-2.532.947-1.267 1.579-3.483 1.579-6.648v-6.965c0-3.799-.632-6.332-1.895-7.598s-3.158-1.583-6-1.266l-5.368 1.266z" fill="#fff"/><path d="M20.643 255.757L.657 258.879V126.968l19.986-3.122v56.459l22.582-3.643v-56.459l20.246-3.122v131.911l-20.246 3.122v-56.459l-22.582 3.643v56.459zM142.896 236.243l-20.246 3.383-3.374-23.417-24.399 3.903-3.634 24.457-18.428 2.862L93.06 112.398l29.33-4.684 20.506 128.529zm-45.683-34.604l19.208-3.122-9.604-65.045-9.604 68.167zM181.57 98.348c10.123-1.561 17.65 0 22.322 4.683 4.932 4.683 7.268 12.489 7.268 23.156v17.172c0 10.667-2.336 19.253-7.268 25.498-4.932 6.244-12.459 10.147-22.322 11.968l-9.604 1.301v49.434l-19.986 3.122V103.031l29.59-4.683zm-9.604 20.294v44.751l9.344-1.561c3.115-.521 5.451-1.822 7.268-3.903 1.817-2.081 2.596-5.464 2.596-10.147v-19.774c0-4.683-.779-7.805-2.596-9.366-1.817-1.561-4.153-2.082-7.268-1.561l-9.344 1.561zM218.947 124.106c0-10.668 2.595-19.254 7.786-25.758 5.192-6.504 12.719-10.667 22.582-12.228 9.863-1.562 17.391 0 22.582 4.943 5.191 4.943 7.787 12.749 7.787 23.416v68.688c0 10.667-2.596 19.253-7.787 25.757-5.191 6.505-12.719 10.668-22.582 12.229-9.863 1.561-17.39 0-22.582-4.944-5.191-4.943-7.786-12.748-7.786-23.416v-68.687zm19.986 66.606c0 4.683 1.038 8.065 2.855 9.626s4.412 2.342 7.527 1.822c3.115-.521 5.71-1.822 7.527-4.163 1.817-2.342 2.856-5.724 2.856-10.407V116.3c0-4.683-1.039-8.065-2.856-9.626s-4.412-2.342-7.527-1.822c-3.115.521-5.71 1.822-7.527 4.163-1.817 2.342-2.855 5.724-2.855 10.408v71.289zM350.284 221.153v-17.692l-42.568 6.764v17.692l-19.467 3.123v-36.165l7.787-1.301c1.817-2.602 2.855-5.204 3.633-7.806.779-2.862 1.039-5.984 1.298-9.887l4.413-97.046 55.805-8.847v113.439l8.825-1.301v36.165l-19.726 2.862zm-29.85-48.914c-.259 4.943-.778 8.846-1.817 11.448-1.038 2.602-2.336 4.943-3.893 6.765l26.215-4.163V91.843l-16.871 2.602-3.634 77.794zM401.157 195.395l-19.986 3.122V66.867l19.986-3.123v56.459l22.582-3.642v-56.46l20.246-3.122V188.89l-20.246 3.123v-56.72l-22.582 3.643v56.459zM458.52 186.289V54.378l19.986-3.123v49.435l9.344-1.561c10.123-1.562 17.65 0 22.322 4.683 4.672 4.683 7.268 12.488 7.268 23.156v17.172c0 10.667-2.336 19.253-7.268 25.497-4.931 6.245-12.459 10.147-22.322 11.968l-29.33 4.684zm29.59-23.416c3.114-.521 5.45-1.822 7.267-3.903 1.817-2.082 2.596-5.464 2.596-10.147v-19.774c0-4.683-.779-7.805-2.596-9.366-1.817-1.561-4.153-2.082-7.267-1.561l-9.344 1.561v44.751l9.344-1.561zm41.27 12.228V43.19l19.986-3.122v131.911l-19.986 3.122zM584.406 166.515l-20.505 3.122V37.727l17.91-2.863v83.518l7.267-30.181 16.353-56.98 22.062-3.382V159.75l-17.91 2.862V69.728l-8.046 33.824-17.131 62.963zM616.851 0c0 6.504-1.817 11.708-5.191 16.131-3.634 4.423-8.825 7.025-16.093 8.066-7.008 1.04-12.199 0-15.573-3.122-3.375-3.123-5.191-8.066-5.451-14.31l12.459-2.082c.259 3.383 1.038 5.724 2.336 6.505 1.298 1.04 3.374 1.04 5.97.78 2.855-.52 4.931-1.3 6.489-2.602 1.557-1.3 2.336-3.902 2.595-7.285L616.851 0z" fill="#D7C08A"/><path d="M217.277 83.09l-4.756.78V53.648l14.983-2.34v30.156l-4.82.78V56.378l-5.407.844V83.09zM237.992 49.685c2.41-.39 4.169 0 5.341 1.04 1.173 1.104 1.759 2.859 1.759 5.264v3.899c0 2.47-.586 4.42-1.759 5.85-1.172 1.429-2.931 2.339-5.341 2.729l-2.28.325V80.1l-4.755.715V50.789l7.035-1.104zm-2.28 4.679v10.203l2.28-.325c.716-.13 1.303-.39 1.759-.845.39-.454.586-1.234.586-2.34V56.51c0-1.105-.196-1.82-.586-2.145-.391-.325-.978-.455-1.759-.325l-2.28.325zM251.997 60.278l6.514-1.04v4.29l-6.514 1.04v8.838l8.208-1.3v4.354l-12.963 2.015v-30.22l12.963-2.015v4.29l-8.208 1.3v8.448zM276.946 77.89v-4.03l-10.162 1.56v4.03l-4.625.715V71.91l1.889-.26c.391-.585.717-1.17.847-1.82.13-.65.261-1.364.326-2.274l1.107-22.227 13.289-2.08v25.931l2.085-.324v8.253l-4.756.78zm-7.1-11.178c-.065 1.17-.196 2.015-.391 2.664a4.678 4.678 0 01-.912 1.56l6.254-.975V48.32l-4.039.65-.912 17.742zM298.052 59.303v4.03c0 2.47-.586 4.419-1.824 5.913-1.172 1.495-2.931 2.405-5.276 2.795-2.345.39-4.104 0-5.277-1.17-1.172-1.105-1.824-2.924-1.824-5.329V49.815c0-2.47.587-4.42 1.824-5.914 1.173-1.495 2.932-2.405 5.277-2.795 2.345-.39 4.104 0 5.276 1.17 1.173 1.105 1.824 2.924 1.824 5.329v2.925l-4.495.714v-3.25c0-1.104-.195-1.819-.651-2.209-.456-.39-1.042-.52-1.824-.39s-1.368.455-1.824.975c-.456.52-.651 1.3-.651 2.405v16.312c0 1.105.195 1.82.651 2.21.456.39 1.042.455 1.824.39s1.368-.455 1.824-.91c.456-.52.651-1.3.651-2.405v-4.289l4.495-.78zM299.55 40.131l14.722-2.274v4.289l-4.95.78v25.866l-4.756.715V43.706l-4.95.78V40.13h-.066zM331.73 65.347l-4.82.715-.847-5.33-5.863.91-.847 5.59-4.364.65 4.82-30.935 6.971-1.105 4.95 29.505zm-10.878-7.864l4.56-.714-2.28-14.883-2.28 15.597zM341.111 33.697c2.475-.39 4.299-.065 5.406.91 1.108.975 1.694 2.6 1.694 4.94v1.104c0 1.56-.261 2.86-.717 3.964-.456 1.105-1.237 1.95-2.345 2.6 1.303.26 2.215.975 2.736 1.95.521 1.04.782 2.34.782 3.964v2.47c0 2.34-.586 4.224-1.824 5.589-1.238 1.43-2.996 2.274-5.407 2.664l-7.491 1.17v-30.22l7.166-1.105zm-2.411 4.68v7.993l1.889-.26c.912-.13 1.564-.455 2.085-1.04.521-.52.782-1.43.782-2.6v-1.689c0-1.105-.196-1.885-.587-2.274-.39-.456-.977-.585-1.824-.456l-2.345.325zm0 12.347v9.294l2.736-.455c.782-.13 1.433-.455 1.824-.91.391-.52.652-1.3.652-2.404v-2.6c0-1.43-.261-2.34-.717-2.794-.456-.455-1.238-.585-2.345-.39l-2.15.26zM350.1 58.263a7.057 7.057 0 001.368-.325c.391-.13.652-.325.912-.52.261-.26.391-.584.521-1.04.13-.454.196-.974.196-1.69l.781-22.94 13.419-2.08v30.155l-4.82.78V34.737l-4.169.65-.521 18.327c-.065 2.795-.652 4.81-1.759 6.174-1.107 1.365-2.801 2.21-5.146 2.6l-.717.13v-4.355h-.065zM370.033 59.433c.261-.585.391-1.17.456-1.755.066-.584.066-1.234.066-1.95V51.05c0-1.56.195-2.99.651-4.159.456-1.17 1.303-2.08 2.475-2.794-2.084-.65-3.126-2.535-3.126-5.654v-2.34c0-2.34.586-4.16 1.693-5.46 1.108-1.3 2.932-2.144 5.407-2.534l7.165-1.105v30.155l-4.755.715V45.59l-1.628.26c-1.108.195-1.889.585-2.345 1.235-.522.65-.717 1.69-.717 3.12v6.239c0 .39-.065.714-.065.974-.065.26-.065.52-.13.65l-.196.585-4.951.78zm7.752-27.1c-.847.13-1.433.454-1.824 1.04-.391.52-.586 1.364-.586 2.469v2.924c0 1.235.261 2.015.782 2.405.521.39 1.172.52 2.084.39l1.889-.26v-9.294l-2.345.326zM393.028 38.377l6.514-1.04v4.289l-6.514 1.04v8.838l8.208-1.3v4.29l-12.963 2.015v-30.09l12.963-2.015v4.289l-8.208 1.3v8.384zM402.8 24.144l14.721-2.275v4.29l-5.015.78v25.865l-4.756.715v-25.8l-4.95.78v-4.355z" fill="#fff"/></svg>