<?xml version="1.0" encoding="utf-8"?><svg width="174" height="173" fill="none" xmlns="http://www.w3.org/2000/svg" viewBox="0 0 174 173"><path d="M133.959 65.578c8.024 15.324 10.166 31.22 6.063 47.751-4.102 16.591-13.484 29.682-27.691 39.184-25.339 16.923-59.334 14.238-81.445-6.335C8.02 124.912 2.65 91.58 17.885 64.794c7.571-13.333 18.46-23.106 32.729-28.838 19.275-7.752 38.218-6.395 56.83 3.017 1.297-2.836 2.564-5.58 3.801-8.326-27.993-15.565-69.078-12.005-94.326 19.004-24.886 30.648-21.99 75.171 6.516 102.44 28.204 26.967 72.909 27.963 101.897 2.323 30.074-26.546 31.552-66.997 16.953-92.637-2.685 1.237-5.43 2.474-8.326 3.801z" fill="#EE312F"/><path d="M102.86 125.455a11.055 11.055 0 00-.785-.875 933.876 933.876 0 00-5.52-5.58c-5.972 5.701-12.82 8.627-20.813 8.627-8.054 0-14.962-2.926-20.663-8.386-2.233 2.202-4.404 4.314-6.546 6.425 15.565 16.169 41.778 13.967 54.327-.211zM122.887 24.433c1.146.483 1.84 1.207 2.323 2.353 1.417 3.258 2.926 6.486 4.404 9.744.211.482.482.935.874 1.659.362-.694.604-1.086.785-1.539.995-2.141 2.172-4.223 2.896-6.455 1.236-3.74 3.529-6.123 7.33-7.36 2.684-.875 5.188-2.323 8.144-3.68-.875-.423-1.327-.694-1.84-.935-3.288-1.509-6.546-3.047-9.864-4.495-1.056-.452-1.659-1.116-2.111-2.172-1.478-3.348-3.017-6.666-4.555-9.984A47.292 47.292 0 00130.458 0c-.362.724-.603 1.116-.784 1.569-1.569 3.408-3.077 6.847-4.736 10.256-.332.693-.995 1.387-1.689 1.719-3.379 1.629-6.817 3.167-10.256 4.736-.453.211-.905.482-1.599.845.724.361 1.146.603 1.599.814 3.318 1.538 6.576 3.077 9.894 4.494zM171.033 41.537c-3.318-1.508-6.666-2.986-9.985-4.585-.663-.302-1.297-.965-1.628-1.599-1.599-3.348-3.107-6.727-4.676-10.105-.241-.543-.513-1.026-.905-1.78-.362.664-.603 1.086-.814 1.539-1.539 3.318-3.077 6.636-4.525 10.014-.483 1.086-1.177 1.75-2.262 2.233-3.409 1.478-6.757 3.046-10.136 4.615-.362.18-.724.422-1.267.754.724.392 1.207.633 1.689.875 3.319 1.538 6.697 2.986 9.985 4.585.724.362 1.478 1.056 1.81 1.78 1.659 3.378 3.167 6.817 4.736 10.255.211.453.452.845.844 1.57 1.056-2.324 1.991-4.345 2.926-6.396 1.026-2.172 1.599-4.826 3.198-6.395 1.629-1.629 4.283-2.262 6.515-3.288 2.021-.965 4.073-1.87 6.486-3.016-.935-.543-1.448-.815-1.991-1.056zM113.237 61.355c1.629 3.379 3.167 6.818 4.736 10.256.211.483.482.935.844 1.63.393-.755.634-1.237.845-1.75 1.508-3.288 2.956-6.606 4.555-9.834.392-.814 1.176-1.629 1.991-2.021 3.318-1.629 6.727-3.107 10.105-4.676.453-.21.875-.482 1.569-.874-4.103-1.87-7.904-3.56-11.644-5.37-.814-.392-1.599-1.206-1.991-2.02-1.81-3.741-3.499-7.542-5.399-11.705-.393.785-.634 1.207-.845 1.63-1.237 2.684-2.594 5.338-3.65 8.083-.935 2.444-2.413 4.012-4.917 4.977-3.227 1.207-6.304 2.836-9.743 4.405.754.392 1.207.663 1.689.874 3.409 1.569 6.848 3.107 10.256 4.736.664.362 1.297 1.026 1.599 1.66zM47.779 84.643c-4.585 0-8.175 3.62-8.175 8.235 0 4.555 3.71 8.235 8.235 8.204 4.495-.03 8.235-3.77 8.205-8.295.03-4.525-3.65-8.144-8.265-8.144zM111.818 92.787c-.06-4.555-3.77-8.144-8.325-8.144-4.585 0-8.205 3.68-8.145 8.265.03 4.555 3.74 8.235 8.266 8.205 4.494-.061 8.265-3.892 8.204-8.326z" fill="#EE312F"/></svg>