<?xml version="1.0" encoding="utf-8"?><svg width="723" height="724" fill="none" xmlns="http://www.w3.org/2000/svg" viewBox="0 0 723 724"><circle cx="361.498" cy="362.252" r="361.254" fill="#D7C08A"/><path d="M612.911 234.793C568.889 142.509 474.558 78.597 365.454 78.597c-109.249 0-203.434 63.765-247.456 156.196-3.364 6.874.146 15.064 7.313 17.989l49.871 20.621c31.005-74.441 104.57-126.799 190.272-126.799 85.703 0 159.268 52.358 190.273 126.799l50.018-20.767c7.02-2.779 10.53-10.823 7.166-17.843z" fill="#E6E6E6"/><path opacity=".25" d="M365.454 146.604c85.703 0 159.267 52.358 190.272 126.799l4.388-1.755c-31.883-76.196-107.056-129.724-194.66-129.724S202.677 195.452 170.94 271.648l4.388 1.755c30.859-74.441 104.423-126.799 190.126-126.799z" fill="#000"/><path d="M172.988 272.526l83.509 34.662c7.021 2.925 14.918-.585 18.721-7.166 11.407-19.598 28.957-35.101 50.017-43.876l-39.78-95.94c-50.603 21.06-91.26 61.571-112.467 112.32z" fill="#1B1C1D"/><path d="M445.161 160.206l-39.78 95.94c21.206 8.775 38.756 24.424 50.164 44.022 3.802 6.581 11.7 10.091 18.72 7.166l83.363-34.515c-21.06-51.042-61.718-91.553-112.467-112.613z" fill="#EE312F"/><path d="M365.454 144.263c-28.372 0-55.282 5.704-79.852 15.795l39.78 95.941c12.285-5.119 25.886-8.044 40.072-8.044 14.187 0 27.642 2.779 39.927 7.898l39.78-95.941c-24.57-9.945-51.48-15.649-79.707-15.649z" fill="#BDA875"/><path d="M365.454 144.263c-86.726 0-161.022 52.943-192.466 128.262l83.509 34.662c7.021 2.925 14.918-.585 18.721-7.167 17.988-31.005 51.626-51.919 90.09-51.919 38.464 0 72.102 20.914 90.09 51.919 3.803 6.582 11.701 10.092 18.721 7.167l83.363-34.516c-31.006-75.319-105.301-128.262-192.028-128.408z" fill="url(#bfpaint0_radial)" style="mix-blend-mode:multiply" opacity=".5"/><rect x="515.947" y="244.082" width="100.913" height="42.413" rx="16.321" transform="rotate(-22.272 515.947 244.082)" fill="#EE312F"/><path d="M546.553 245.869c.419-.172.741-.357.965-.556.237-.204.409-.42.515-.646.105-.227.168-.467.187-.719.019-.252.019-.512.001-.78l1.453-.595 5.629 13.744-2.16.884-4.294-10.484-1.669.683-.627-1.531zM558.612 251.27c.204.497.447.811.729.94.29.11.605.096.945-.044.341-.139.569-.347.685-.624.123-.295.083-.691-.12-1.189l-3.04-7.421c-.204-.498-.451-.802-.74-.912-.282-.129-.594-.124-.934.015-.34.14-.572.357-.696.652-.116.277-.072.664.132 1.161l3.039 7.422zm-5.143-6.4c-.455-1.112-.522-2.078-.201-2.898.316-.832 1.005-1.466 2.065-1.9 1.06-.434 1.995-.466 2.804-.094.804.359 1.434 1.094 1.89 2.207l2.927 7.146c.456 1.113.525 2.086.209 2.918-.321.82-1.012 1.447-2.073 1.881-1.06.434-1.992.472-2.796.113-.81-.371-1.442-1.113-1.898-2.226l-2.927-7.147zM571.699 244.947l-2.524-10.361 3.004-1.23 5.629 13.744-2.042.836-4.036-9.856 2.544 10.467-2.042.836-5.59-9.059 3.98 9.719-1.885.772-5.628-13.744 3.004-1.23 5.586 9.106zM577.975 244.762c.248-.102.446-.198.592-.289a.856.856 0 00.34-.345.912.912 0 00.039-.521 3.979 3.979 0 00-.215-.806l-3.901-10.531 6.107-2.501 5.628 13.744-2.199.901-4.824-11.781-1.885.772 3.166 8.402c.475 1.273.574 2.279.296 3.019-.264.735-.933 1.323-2.006 1.762l-.334.137-.804-1.963zM590.378 241.952l-2.16.884-5.628-13.744 2.159-.884 2.413 5.89 2.454-1.005-2.412-5.89 2.199-.901 5.628 13.744-2.199.9-2.412-5.89-2.454 1.005 2.412 5.891z" fill="#fff"/><rect width="100.913" height="42.413" rx="16.321" transform="rotate(22.27 -463.091 406.724)" fill="#1A1B1C"/><path d="M139.577 239.83c-.204.497-.25.891-.14 1.181.129.282.364.492.704.632.341.139.649.151.926.035.295-.124.545-.434.748-.932l3.04-7.421c.203-.498.241-.888.112-1.17-.111-.29-.336-.504-.677-.643-.34-.14-.658-.148-.953-.024-.277.116-.517.423-.721.92l-3.039 7.422zm.823-8.169c.456-1.113 1.086-1.848 1.89-2.207.809-.371 1.744-.34 2.804.094 1.061.434 1.749 1.068 2.065 1.9.322.82.255 1.786-.201 2.898l-2.927 7.147c-.455 1.113-1.088 1.855-1.897 2.227-.804.358-1.736.32-2.797-.114-1.06-.434-1.751-1.061-2.073-1.88-.316-.833-.246-1.806.21-2.918l2.926-7.147zM153.34 244.503l5.468-9.155 3.005 1.23-5.629 13.744-2.042-.836 4.037-9.857-5.529 9.246-2.042-.837 2.37-10.378-3.98 9.719-1.885-.772 5.629-13.744 3.004 1.23-2.406 10.41zM157.943 248.772c.248.102.456.172.624.21a.853.853 0 00.485-.008.915.915 0 00.393-.343c.133-.175.27-.417.412-.726l4.606-10.241 6.107 2.5-5.629 13.744-2.199-.9 4.825-11.781-1.885-.772-3.637 8.209c-.554 1.24-1.189 2.027-1.907 2.36-.704.338-1.592.288-2.666-.152l-.334-.136.805-1.964zM168.754 255.47l-2.16-.885 5.629-13.744 2.16.885-2.413 5.89 2.455 1.005 2.412-5.89 2.199.9-5.629 13.744-2.199-.9 2.413-5.891-2.455-1.005-2.412 5.891z" fill="#fff"/><rect x="344.834" y="160.499" width="100.913" height="42.413" rx="16.321" transform="rotate(-90 344.834 160.499)" fill="#CAB582"/><path d="M368.724 128.72h1.379c.537 0 .912-.106 1.124-.318.213-.226.319-.523.319-.891s-.106-.658-.319-.87c-.212-.226-.587-.339-1.124-.339h-3.268c-.537 0-.912.113-1.124.339-.226.212-.339.502-.339.87s.113.665.339.891c.212.212.587.318 1.124.318h.446v2.207l-8.614-.424v-6.153h2.122v4.052l3.543.191c-.721-.438-1.082-1.117-1.082-2.037 0-.862.29-1.506.87-1.93.58-.439 1.421-.658 2.525-.658h3.309c1.203 0 2.129.297 2.78.891.636.58.954 1.443.954 2.588 0 1.146-.318 2.016-.954 2.61-.651.58-1.577.87-2.78.87h-1.23v-2.207zM369.212 114.171l-10.545-1.591v-3.247h14.852v2.207h-10.651l10.651 1.612v2.207l-10.503 1.74h10.503v2.037h-14.852v-3.247l10.545-1.718zM371.418 108.293c0-.268-.014-.488-.042-.657a.857.857 0 00-.191-.446.91.91 0 00-.467-.233 3.906 3.906 0 00-.827-.106l-11.224-.382V99.87h14.852v2.377h-12.73v2.036l8.974.255c1.358.043 2.327.332 2.907.87.58.523.87 1.365.87 2.525v.36h-2.122zM373.519 95.75v2.334h-14.852V95.75h6.365v-2.652h-6.365v-2.376h14.852v2.376h-6.365v2.652h6.365z" fill="#fff"/><defs><radialGradient id="bfpaint0_radial" cx="0" cy="0" r="1" gradientUnits="userSpaceOnUse" gradientTransform="translate(365.413 352.273) scale(208.043)"><stop offset=".5" stop-color="#fff"/><stop offset=".686" stop-color="#FDFDFD"/><stop offset=".753" stop-color="#F6F6F6"/><stop offset=".801" stop-color="#EBEBEB"/><stop offset=".84" stop-color="#DADADA"/><stop offset=".873" stop-color="#C4C4C4"/><stop offset=".902" stop-color="#A8A8A8"/><stop offset=".929" stop-color="#888"/><stop offset=".954" stop-color="#626262"/><stop offset=".976" stop-color="#373737"/><stop offset=".996" stop-color="#090909"/><stop offset="1"/></radialGradient></defs></svg>