<?xml version="1.0" encoding="utf-8"?><svg width="1432" height="1201" fill="none" xmlns="http://www.w3.org/2000/svg" viewBox="0 0 1432 1201"><path d="M725.534 576.503c.572.338.117.455.117.455s.572.338.117.455c-.455.116-2.159 1.038-6.373 1.634-4.213.595-9.908 1.086-14.81.889-2.509-.326-4.446-.314-5.928-.419-1.482-.105-2.509-.326-2.509-.326s1.027.221 2.392-.129c1.482.105 3.875-.024 6.267-.153 4.785-.257 10.481-.748 14.577-1.798 4.213-.596 5.579-.946 6.15-.608zM697.727 693.184c-.234-.909-.478-3.755-.407-11.044.094-3.418-.045-7.745-.301-12.526-.14-4.327-.851-8.992-1.9-13.086-.595-4.21-1.528-7.849-2.683-10.461l-.816-3.184-.233-.91.233.91c.233.91.922 1.703 1.272 3.067 1.155 2.612 2.543 6.134 3.592 10.228 1.05 4.093 2.216 8.642 2.927 13.307.711 4.665.851 8.992.873 12.864-.071 7.289-.853 9.914-1.531 11.057-.677 1.143-.91.233-.91.233l-.116-.455zM778.091 813.637c-.338.572-.899 2.17-1.914 3.884-1.471 1.832-3.164 4.689-6.677 8.014-3.514 3.324-7.821 7.337-12.933 10.102-4.995 3.22-10.563 6.102-15.908 7.957-5.345 1.856-9.897 3.023-13.538 3.956-1.821.467-3.303.363-4.214.596l4.097-1.05c3.641-.934 7.96-3.011 12.733-5.204 4.774-2.194 10.225-5.53 14.648-9.088 4.424-3.558 8.848-7.116 11.906-10.324 3.513-3.325 5.323-5.728 6.91-7.104 1.471-1.832 2.265-2.52 3.175-2.753 1.249-.805 1.027.221 1.027.221s.794-.688.688.793zM754.972 816.172c-.339.572-.899 2.17-4.074 4.923s-7.715 5.856-12.15 7.478c-2.16 1.038-3.98 1.505-5.801 1.972l-2.276.583s.911-.233 2.159-1.038c1.366-.35 3.07-1.272 5.229-2.31 4.319-2.077 8.742-5.635 11.462-8.271 2.72-2.637 3.852-3.896 4.307-4.013.91-.234.572.338 1.144.676-.572-.338-.233-.91 0 0zM495.287 452.309c1.809-2.402 4.75-6.065 7.12-10.066s4.507-8.911 6.643-13.822c1.682-4.794 3.363-9.587 4.706-13.81 2.347-7.873 3.923-11.185 4.6-12.328.794-.688.91-.234.91-.234.339-.571.222-1.026 1.133-1.259 11.458 10.634 23.372 21.152 34.83 31.787l.234.909c-.455.117-.339.572-.339.572-15.37 2.487-30.974 4.064-46.356 4.615-.455.117-1.365.35-1.937.012-1.016 1.715-1.693 2.858-2.825 4.118-2.825 4.117-5.883 7.325-8.264 9.39-1.133 1.26-1.926 1.948-2.72 2.636-.794.688-1.249.805-1.249.805l.677-1.143c.911-.233 1.704-.922 2.837-2.182zM382.014 648.104c-9.943-4.722-19.43-9.56-28.695-15.425-2.288-1.352-4.691-3.16-6.757-5.539-2.87-3.626-2.088-6.251 1.776-8.211a25.581 25.581 0 018.193-2.101c6.15-.607 12.301-1.215 17.541-1.589 3.419.093 6.267-.152 9.231.057 6.267-.153 12.534-.306 18.918-.003 8.893.628 17.33 1.373 26.34 2.456 19.617 2.726 38.791 7.504 57.066 14.452 2.054.443 3.769 1.457 5.823 1.9.455-.117 1.027.221 1.599.56 6.173 3.264 10.303 8.022 12.053 14.844 1.166 4.549.395 9.109-3.119 12.434-1.132 1.259-2.381 2.064-4.085 2.986-3.408 1.843-6.933 3.232-11.146 3.828-13.211 1.448-26.434.961-40.006-.891-21.788-3.624-43.821-10.093-64.732-19.758zM706.327 565.916c6.372-1.633 12.745-3.267 17.635-5.006 9.897-3.023 13.877-4.528 15.814-4.54 1.482.105.688.793.688.793s1.483.105.35 1.365c-1.132 1.26-4.879 3.674-15.231 6.814-4.89 1.738-11.262 3.372-18.323 4.213-6.489 1.179-13.55 2.02-19.817 2.173-6.267.153-12.079.189-15.954.213-1.937.012-3.419-.093-4.901-.198-1.027-.221-1.482-.104-1.482-.104s.455-.117 1.937-.012c.91-.234 2.848-.246 4.785-.258 3.875-.024 9.453-.97 15.604-1.577 6.033-1.063 12.522-2.242 18.895-3.876z" fill="#F3F3F3"/><path d="M470.471 1002.55c-1.143-.68-2.625-.78-3.652-1-2.509-.33-5.135-1.11-8.099-1.32-16.77-2.97-33.762-4.915-50.521-5.95-8.893-.628-17.669-.802-26.9-.858-11.169-.045-22.104.82-32.923 2.14-3.303.362-6.489 1.179-9.792 1.541-3.302.362-6.489 1.179-9.791 1.541-6.606.725-12.651-.149-17.914-3.647-6.29-3.719-12.696-7.894-19.102-12.068-.572-.338-1.144-.676-1.377-1.586l1.693-2.858c3.163-4.689 5.872-9.261 9.035-13.95 4.973-7.092 8.347-14.744 10.578-23.071 2.569-8.9 4.227-17.565 6.225-26.803 2.102-10.719 3.294-21.204 2.888-32.249-.151-6.263-.301-12.526-.907-18.672-.361-3.3-.839-7.056-1.2-10.356-.362-3.301-1.178-6.485-1.539-9.785-.478-3.756-1.411-7.394-1.889-11.15-.583-2.274-.594-4.21-.722-6.601.455-.117 1.027.222 1.482.105 6.5.757 13.456 1.397 19.956 2.154 5.018.652 9.465.966 14.599 2.073 7.644 1.434 15.066 3.893 22.372 5.898 1.027.221 2.17.898 3.652 1.002 1.46-3.767.655-5.015-2.543-6.134-.455.117-.571-.338-1.027-.221-22.721-7.262-45.547-13.043-68.479-17.343-14.261-2.645-28.86-4.718-43.798-6.22-8.438-.745-17.33-1.373-26.107-1.547-7.865-.407-15.731-.813-23.48-.765-10.597.293-20.739.47-31.336.763-7.177.386-14.354.772-21.415 1.613-5.24.375-10.936.865-16.176 1.24-3.758.478-7.632.502-11.39.981-.456.117-1.366.35-1.599-.559.794-.689 1.016-1.715 1.693-2.858 8.136-11.781 15.934-22.991 24.07-34.772 2.942-3.662 4.74-8.001 6.538-12.34 3.257-8.107 6.398-16.668 8.512-25.45 3.457-13.005 5.548-25.66 6.496-38.991.421-5.925.504-11.278.353-17.541-.278-8.654-1.351-16.62-2.54-25.04-.839-7.056-2.588-13.878-3.999-21.273l-10.729-41.844-1.75-6.823c1.482.105 2.626.781 3.77 1.457 31.192 13.815 61.93 27.747 93.123 41.562 1.598.56 3.314 1.574 4.912 2.134.572.338 1.027.221 1.821-.467l-.233-.91c-1.4-5.458-1.889-11.149-2.261-16.386-.268-6.717.376-13.669 2.046-20.399 3.234-11.978 8.756-22.604 16.449-32.332 3.735-4.351 7.926-8.819 12.35-12.377.338-.571 1.248-.805.898-2.169-1.026-.222-1.937.012-2.964-.21-2.731.7-5.578.946-8.309 1.646-7.855 1.529-15.709 3.059-23.902 5.159-2.276.584-4.552 1.168-6.945 1.296-7.177.386-13.899.656-21.077 1.042-3.874.024-7.294-.069-10.946-1.071l-10.958-3.007c-1.599-.56-2.743-1.236-3.209-3.055l-1.75-6.823c-2.915-11.371-6.286-22.625-10.567-33.646-12.155-32.269-28.512-62.007-49.981-88.98-9.871-12.011-19.403-24.593-28.025-37.409-2.299-3.289-4.481-6.123-7.118-8.84l-10.676-13.259c-.688-.793-.922-1.702-1.61-2.495 1.249-.805 2.043-1.494 2.836-2.182 5.218-4.246 10.89-8.609 15.991-13.31 4.762-4.13 9.069-8.142 12.572-13.403 2.486-3.546 4.517-6.975 7.004-10.521 2.708-4.573 5.416-9.145 7.098-13.939 3.596-8.678 7.53-17.927 11.126-26.605.339-.571.561-1.598 1.238-2.741 1.26 1.131 1.949 1.924 2.637 2.717 5.274 5.434 10.887 10.297 16.161 15.731 2.637 2.717 5.612 4.862 9.043 6.891 27.913 18.049 56.502 34.956 85.314 50.835 25.953 14.19 51.789 27.924 78.64 39.944 15.311 6.738 31.076 13.36 46.947 18.501 1.027.221 2.171.898 4.108.886l2.37-4.001c6.654-11.886 13.425-23.317 20.196-34.748l-5.914-17.388-24.997-6.679 20.765-15.504-1.291-25.845 21.284 14.902 24.334-9.148-5.032 16.317c6.899-9.04 13.797-18.08 21.84-26.443 14.614-14.897 30.838-27.297 50.049-35.616 11.706-5.426 24.451-8.694 37.546-10.597 6.15-.607 12.417-.76 18.346-.341 6.383.302 12.884 1.059 19.046 2.387 13.805 2.762 27.284 8.031 39.63 14.56 40.469 21.616 73.351 51.48 97.969 90.733 3.337 5.446 6.102 10.554 5.797 16.933.012 1.936.7 2.729 2.871 3.627 3.314 1.574 6.966 2.576 10.502 3.124 4.563.769 9.36 2.448 13.701 4.243 7.083 3.031 12.241 8.01 16.266 14.249.688.793.922 1.703 1.155 2.612l3.499 13.646c1.282 5.003 2.11 10.123 2.821 14.788.478 3.755 1.411 7.394 1.889 11.149.85 8.992 1.245 18.101.614 26.988-.433 3.989-.749 8.433-1.181 12.421-1.753 12.084-5.104 23.607-9.938 35.026-.899 2.17-2.031 3.429-4.074 4.923-18.955 13.101-39.532 21.77-61.146 28.281-8.193 2.101-16.387 4.202-25.151 5.965-5.124.829-9.792 1.541-14.916 2.37-3.302.362-6.605.724-9.791 1.541-5.696.491-11.73 1.553-17.425 2.044-6.15.608-12.417.76-18.568 1.368-.455.117-1.482-.105-1.937.012-.455.117-.91.233-1.249.805l.233.91c.689.793 1.377 1.586 1.949 1.924a235.545 235.545 0 0123.767 30.261c.805 1.248 2.066 2.379 2.987 4.081 7.573 8.723 13.78 17.796 18.855 28.128 5.075 10.333 8.445 21.587 9.996 33.308 1.188 8.42 1.467 17.074.38 26.078-2.08 14.591-6.902 27.946-15.038 39.727-1.016 1.715-2.148 2.975-3.619 4.806-.677 1.143-.899 2.169-.666 3.079l.467 1.819a434.967 434.967 0 0012.96 33.517c13.287 31.01 30.32 59.605 48.265 87.966.688.793 1.377 1.586 1.493 2.041 1.937-.012 3.186-.817 4.552-1.168 16.596-7.163 31.466-17.278 44.726-29.888 5.895-5.389 11.789-10.779 17.567-16.623.794-.688 1.133-1.26 2.381-2.065.689.793 1.377 1.586 1.611 2.496l5.18 8.851c14.396 25.878 28.793 51.756 44.894 76.712 9.544 14.518 19.088 29.037 28.97 42.984 6.896 9.866 14.585 19.043 23.406 26.961 5.846 5.772 12.264 11.882 18.11 17.654.572.339.805 1.248 1.377 1.586-.794.689-1.249.805-1.588 1.377-2.953 1.727-6.022 2.998-8.975 4.725-11.135 5.768-22.153 11.978-33.859 17.408-19.888 9.46-40.815 16.77-62.663 22.37-7.738 1.98-15.02 3.85-22.992 4.92-4.668.72-8.881 1.31-13.549 2.02-4.669.72-9.337 1.43-13.667 1.57-17.086 1.47-34.288 2.49-51.502 1.57-6.383-.3-12.767-.6-19.267-1.36-9.348-.51-19.385-1.82-28.849-2.78-16.082-2.18-31.825-4.93-47.684-8.13-8.216-1.78-16.887-3.43-25.219-5.66 0 0-35.605-8.32-43.938-10.54-8.787-2.11-17.575-4.22-25.907-6.45l-48.023-7.56zm146.404 12.87c15.86 3.21 31.603 5.96 47.801 8.59 9.581 1.42 19.501 2.27 28.965 3.24 6.956.64 14.25.71 21.089.89 11.74.38 23.364.31 35.21-.79 6.605-.72 12.756-1.33 19.361-2.05 5.579-.95 11.274-1.44 16.398-2.27 8.309-1.64 17.074-3.41 25.151-5.96 17.751-4.55 35.036-10.92 51.971-18.66 4.774-2.193 9.092-4.27 13.866-6.463.91-.234 1.704-.922 2.953-1.727-.688-.793-.922-1.703-1.494-2.041-12.38-12.337-22.834-26.622-32.95-41.479-19.309-28.011-37.253-56.372-54.065-85.993-.689-.793-.922-1.703-1.61-2.496 0 0-.572-.338-.689-.793-.455.117-1.365.35-1.704.922-1.132 1.26-2.836 2.181-3.968 3.441-16.33 13.882-35.074 24.02-55.09 31.092-9.781 3.477-19.678 6.499-29.925 8.157-7.855 1.529-15.709 3.059-23.797 3.678-5.24.374-10.363 1.203-15.72 1.123-8.088.619-16.409.329-24.275-.078-5.356-.08-11.285-.499-16.642-.58-7.982-.862-15.964-1.723-24.402-2.468-30.109-3.914-59.436-10.451-88.879-17.444l-6.162-1.329c-1.482-.104-1.599-.559-1.832-1.469l-.117-.455c-.921-1.702-1.061-6.029-2.039-17.412-.489-5.692-.756-12.409-1.595-19.465-.839-7.056-1.678-14.112-2.856-20.597-1.178-6.484-2.238-12.514-3.288-16.607l-1.749-6.823.466 1.82c.35 1.364 1.155 2.612 1.738 4.886 1.505 3.977 3.021 9.89 5.109 16.141 1.633 6.368 3.499 13.645 4.793 20.584l.466 1.819c.456-.116.572.339 1.027.222 8.799 4.045 17.936 7.519 27.074 10.993 25.697 9.408 52.292 16.646 79.554 20.805a352.377 352.377 0 0030.109 3.913c6.955.64 14.249.709 21.66 1.233 8.893.628 17.552.347 26.212.065l12.989-.422c3.303-.362 7.061-.841 10.935-.865-.233-.91.106-1.481-.466-1.819-.688-.793-1.493-2.041-1.727-2.951-14.257-21.55-27.604-43.335-38.909-66.612-9.916-19.755-18.467-39.861-25.197-60.433-.234-.91-1.039-2.158-1.272-3.067-1.144-.676-2.392.129-3.303.362-6.594 2.66-13.188 5.321-20.471 7.188-7.738 1.984-15.931 4.085-23.902 5.159-9.337 1.425-19.245 2.511-28.932 2.571l-11.623.072c16.058-1.694 31.767-4.752 47.698-8.837 11.38-2.918 21.954-7.083 31.945-13.523 16.235-10.465 25.493-25.442 28.343-44.593.655-5.015.854-9.913.598-14.695-.85-8.992-2.611-17.751-6.192-26.042-3.931-9.657-9.683-18.846-17.023-26.659l-6.545-8.501c-17.817-25.971-40.5-46.33-68.285-61.989-6.745-3.602-13.49-7.205-20.001-9.898-13.712-6.179-13.712-6.179-28.206-9.734-5.252-1.562-10.386-2.669-15.521-3.776-1.027-.221-1.599-.559-2.626-.781-.116-.454-.233-.909.105-1.481-2.847.246-5.356-.081-8.204.165-4.446-.314-8.321-.29-10.83-.616l-4.446-.314s1.937-.012 4.329-.141c2.848-.246 6.723-.27 10.936-.865 3.303-.362 7.632-.503 11.39-.982.911-.233 1.821-.467 3.303-.362 5.124-.829 10.364-1.203 15.487-2.032l15.371-2.487c4.213-.596 8.881-1.308 12.978-2.358 6.944-1.296 13.771-3.047 21.171-4.459-.501-7.628-.663-15.827-.136-23.233.526-7.406 1.402-13.447 2.629-18.125l1.109-5.131.444-2.053s-.338.571.011 1.936a81.828 81.828 0 01-.537 5.47c-.316 4.444-.621 10.823-.692 18.113-.071 7.289.884 14.8 1.84 22.311.956 7.51 2.366 14.904 3.882 20.817l3.499 13.645.455-.116c1.938-.012 3.992.43 5.929.418 3.419.093 6.955.641 9.92.85 3.874-.024 7.865.407 11.74.383 2.393-.129 4.902.197 6.839.185l28.709-1.544c6.606-.724 12.757-1.332 19.362-2.056 3.758-.479 7.516-.958 10.819-1.32 4.213-.596 8.881-1.308 12.978-2.358 8.31-1.646 16.503-3.747 24.696-5.848 15.359-4.423 30.251-10.665 44.106-19.065.793-.688 1.704-.921 2.497-1.61 1.704-.921 2.382-2.065 2.942-3.662a116.949 116.949 0 006.342-26.348c.876-6.042.842-11.85.808-17.658.094-3.417-.722-6.601-.512-9.564-.233-.909-.466-1.819-.244-2.845-.373-5.237-1.317-10.812-2.717-16.27-.711-4.665-2.332-9.097-3.043-13.762l-.817-3.183c-.921-1.703-2.298-3.289-4.352-3.732-3.314-1.574-6.512-2.693-10.048-3.24-4.563-.769-8.787-2.11-12.556-3.567-6.396-2.238-12.452-5.048-18.625-8.312-1.599-.56-2.859-1.691-4.119-2.822-.794.688-1.016 1.714-1.81 2.403-2.264 2.519-4.762 4.129-7.26 5.739-2.497 1.61-4.54 3.103-6.244 4.025 1.704-.922 3.63-2.87 5.673-4.363 1.926-1.948 4.307-4.013 6.116-6.416 1.809-2.403 3.619-4.805 4.518-6.975.899-2.169 1.459-3.767 1.681-4.794.222-1.026.561-1.598.561-1.598.222-1.026-.128-2.391-.817-3.183l-2.415-3.744c-12.764-19.51-27.792-36.5-45.202-51.426-12.941-10.739-26.559-20.335-41.647-28.1-11.203-5.853-22.511-10.225-34.834-12.882-7.189-1.55-14.144-2.19-21.438-2.258-16.981-.009-32.795 4.531-48.132 12.826-14.998 7.723-27.814 18.28-39.253 30.424-9.513 10.195-18.105 22.092-25.786 33.757-16.95 24.705-32.184 50.424-46.275 76.82-.677 1.143-.899 2.17-1.693 2.858-1.365.35-2.392.129-3.991-.431-12.895-2.995-25.569-7.016-37.904-11.61-21.472-8.067-42.384-17.731-62.84-27.513-31.543-15.18-62.07-32.074-91.92-50.111-15.893-9.013-31.448-18.597-47.12-28.636-.688-.793-1.715-1.015-2.859-1.691-.338.571-1.132 1.26-1.471 1.831-4.389 9.366-10.039 17.601-16.144 25.953-3.958 5.378-8.487 10.417-13.704 14.663l-2.381 2.065-.339.571c.117.455.805 1.248 1.494 2.041 1.493 2.041 2.87 3.627 4.363 5.668 8.506 12.361 17.805 24.034 27.105 35.707 22.612 27.649 39.657 58.179 53.072 91.58 4.048 10.111 7.186 20.455 10.323 30.8l.467 1.819c.116.455.233.91.805 1.248 1.937-.012 4.446.314 6.383.302 5.241-.374 10.142-.177 15.382-.551 2.393-.128 4.213-.595 6.489-1.179 8.193-2.101 16.503-3.746 24.357-5.276 5.124-.829 10.703-1.774 15.826-2.603 4.213-.596 8.426-1.191 12.756-1.332 8.543-.736 16.969-1.928 25.745-1.754 7.75-.048 15.044.021 22.793-.027 5.812-.036 11.74.382 17.669.801 6.383.302 13 1.514 19.839 1.7 1.027.221 1.599.559 2.626.781l.117.454 7.177-.386c7.633-.503 15.954-.213 22.909.428a185.553 185.553 0 0118.019 2.166c2.509.326 4.108.885 5.135 1.107l2.054.443s-.456.116-1.938.012c-1.482-.105-2.964-.21-5.473-.536-4.446-.314-10.83-.616-18.008-.23-7.177.386-14.81.889-22.325 1.847-7.516.957-14.916 2.37-20.494 3.316l-1.366.35c-15.931 4.085-30.94 9.872-45.599 17.024-8.182 4.037-16.247 8.529-23.169 13.697-6.921 5.167-13.154 11.128-17.555 18.558-4.856 7.547-8.114 15.654-9.201 24.658-.433 3.988-.41 7.861.185 12.071.955 7.511 3.498 13.645 7.068 20 4.492 8.059 10.349 15.767 16.884 22.332 6.651 7.02 13.301 14.04 20.746 20.372 2.52 2.262 5.951 4.291 9.382 6.319 4.003 2.367 8.344 4.163 12.113 5.62 3.769 1.457 7.539 2.914 10.164 3.695 2.626.781 4.225 1.341 4.225 1.341s-1.599-.56-4.108-.886a142.025 142.025 0 00-10.386-2.669c-4.225-1.34-8.449-2.681-12.907-4.931-2.742-1.236-5.601-2.927-7.888-4.279-43.761-19.318-87.522-38.636-130.711-57.616-1.144-.676-2.859-1.69-4.225-1.34.117.455-.221 1.026-.105 1.481 1.4 5.458 2.461 11.488 3.86 16.946.7 2.729.944 5.575 1.189 8.42.944 5.575.978 11.383 1.923 16.958.361 3.3.383 7.173.745 10.473-.106 1.481-.094 3.417-.2 4.899.174 10.135-.563 20.503-2.327 30.65-2.408 17.099-6.985 33.299-13.5 49.512a72.597 72.597 0 01-7.776 15.082l-1.015 1.714s.116.455-.222 1.027c.572.338 1.027.221 1.599.559 1.482.105 2.847-.245 4.33-.141 8.204-.164 15.837-.667 24.041-.832 5.812-.036 12.195.266 18.007.23 4.33-.14 8.776.174 12.651.15 4.902.197 9.803.394 14.821 1.047 5.929.419 11.857.837 17.903 1.711 7.527.978 14.937 1.502 22.01 2.597 22.126 3.052 43.692 7.702 65.037 13.378a477.817 477.817 0 0141.101 12.728c.572.339 1.143.677 2.17.898-.139-4.327-.395-9.109-.989-13.319-.501-7.627-1.223-14.228-1.479-19.01a210.52 210.52 0 01-1.072-7.966l1.982 7.732c1.167 4.549 2.461 11.488 3.416 18.999 2.367 14.905 4.301 33.798 4.263 46.896-.037 13.097-1.146 18.229-1.59 20.282-1.016 1.715-1.366.35-1.366.35s-.338.572-.91.234c-.91.233-1.599-.56-2.626-.781-12.335-4.593-25.125-9.07-37.682-12.636-5.251-1.562-10.502-3.124-16.092-4.115-1.027-.221-1.483-.104-2.509-.326-.222 1.027-.106 1.481-.444 2.053.011 1.936.022 3.872.489 5.691.967 9.447 1.023 19.128.964 28.353.139 4.327-.177 8.771-.948 13.331-1.963 15.046-5.07 29.415-9.204 43.563-2.231 8.328-5.488 16.434-10.344 23.981l-1.016 1.714c.922 1.703 2.404 1.808 4.224 1.341l3.187-.817c6.033-1.063 12.067-2.125 17.763-2.616 8.998-.853 17.879-2.161 26.655-1.987 2.393-.129 4.902.197 7.749-.048 9.57-.515 18.918-.004 28.266.508 21.205 1.349 41.85 4.296 62.611 7.698 26.468 4.847 52.258 10.838 78.621 17.17 22.021 4.53 43.704 9.63 65.27 14.28z" fill="#F3F3F3"/><path d="M420.897 262.461l11.579-7.816.598-14.696 11.108 9.27 13.877-4.527-5.277 13.471 8.389 11.907-14.25-.709-8.708 11.443-3.954-13.529-13.362-4.814zM835.854 849.724l-14.728-4.464 12.256-8.96-.091-15.488 12.136 9.491 14.671-5.216-5.044 14.382 8.96 12.244-15.043-.02-8.93 12.469-4.187-14.438zM633.278 254.539c-1.482-.104-3.198-1.119-6.967-2.576-1.715-1.014-3.886-1.912-6.628-3.148-2.743-1.236-6.057-2.809-9.826-4.267-7.539-2.914-17.131-6.271-27.401-8.486-10.269-2.214-20.761-3.402-30.447-3.341-2.393.128-4.902-.198-7.294-.069-2.393.129-4.33.141-6.723.269-1.937.012-4.213.596-5.695.491-1.821.467-3.758.479-5.123.829-3.303.362-5.579.946-7.4 1.413 1.821-.467 3.98-1.506 7.166-2.323l5.007-1.283c1.821-.467 3.642-.934 6.034-1.063 2.276-.583 4.213-.595 6.489-1.179 2.276-.583 4.668-.712 7.061-.841 9.908-1.086 21.193-.587 31.802 1.056 10.608 1.643 20.994 4.312 28.649 7.681 4.225 1.34 7.2 3.486 9.943 4.722 2.742 1.235 5.146 3.043 6.861 4.057 3.548 2.484 4.924 4.07 6.185 5.201 1.493 2.04-.444 2.052-.444 2.052s1.26 1.131-1.249.805zM157.727 471.484c-1.26-1.131-3.442-3.964-8.961-12.244s-12.881-19.965-19.66-29.376c-3.22-4.991-6.662-8.956-8.844-11.789-2.182-2.834-3.675-4.875-3.675-4.875s1.377 1.586 4.014 4.303c2.637 2.717 6.079 6.682 10.093 10.985 7.572 8.722 16.3 20.057 21.819 28.337 5.518 8.28 7.023 12.256 7.373 13.621.35 1.364-.794.688-.794.688s-.105 1.481-1.365.35zM222.078 601.375c-17.481-7.636-48.918-24.297-48.918-24.297s33.235 12.322 50.378 20.53c17.48 7.636 12.812 8.348 12.812 8.348s3.209 3.055-14.272-4.581zM585.33 220.783c-3.991-.43-6.956-.64-9.465-.966 2.393-.129 5.812-.036 9.687-.06 7.866.407 16.992 1.945 23.27 3.728 6.279 1.783 8.566 3.136 9.254 3.929.689.793.233.91.233.91s.572.338-.338.571c-.911.234-3.536-.547-9.815-2.331-6.511-2.693-15.299-4.802-22.826-5.781zM302 918.746c1.564-5.249 2.674-10.381 3.9-15.058.771-4.56 1.542-9.12 1.636-12.538.106-1.481.211-2.962.433-3.988.233.909.128 2.39.022 3.872-.093 3.417.046 7.744-.609 12.759-.654 5.015-1.192 10.485-2.757 15.734-1.109 5.132-2.674 10.38-4.589 14.264-3.257 8.107-5.522 10.626-6.199 11.77-.793.688-1.027-.222-1.027-.222s-.793.688-.688-.793c.105-1.481 1.343-4.222 4.6-12.328 1.915-3.885 3.596-8.678 5.278-13.472zM298.334 331.212c-10.176-5.631-27.679-17.139-27.679-17.139s18.857 9.222 28.578 14.97c10.175 5.631 7.211 5.422 7.211 5.422s2.065 2.379-8.11-3.253zM339.07 359.546c1.949 1.924.012 1.936.012 1.936s1.377 1.586-1.471 1.832c-2.848.245-9.581-1.422-26.374-8.265-8.227-3.707-18.053-7.974-27.657-13.267-10.059-5.177-19.779-10.925-28.473-16.452-8.693-5.527-16.36-10.832-22.078-14.213-2.859-1.691-4.807-3.615-6.523-4.629-1.715-1.015-2.403-1.808-2.403-1.808s3.43 2.029 9.604 5.294c5.717 3.381 14.061 7.543 23.432 11.927 9.37 4.383 19.429 9.56 29.71 13.71 9.943 4.722 19.652 8.534 27.879 12.242 15.766 6.621 22.394 9.769 24.342 11.693zM291.064 919.611c-.116-.455.106-1.481.771-4.56.666-3.08 1.554-7.185 2.103-10.719.549-3.534.76-6.497.76-6.497s.244 2.846.15 6.263c-.094 3.418-.865 7.978-1.53 11.057-.666 3.079-1.343 4.222-1.798 4.339.116.455.116.455-.456.117.572.338.117.455 0 0zM222.698 590.552c-7.888-4.279-21.728-12.849-21.728-12.849s14.856 6.855 22.744 11.134c7.889 4.279 5.951 4.291 5.951 4.291s.467 1.82-6.967-2.576zM990.787 275.33c-.688-.793-1.505-3.977-1.888-11.149-.956-7.511-.674-17.763-.042-26.65.315-4.444.865-7.978 1.075-10.94.327-2.508.771-4.561.771-4.561l-.316 4.444c-.21 2.962-.188 6.834-.048 11.161.278 8.654 1.023 19.127 1.862 26.183.839 7.056.629 10.019.524 11.5-.222 1.026-.911.233-.911.233s-.338.572-1.027-.221zM1183.96 237.916c5.83 1.9 4.46 2.25 4.46 2.25s1.26 1.131-5.02-.652c-5.82-1.9-16.67-6.388-16.67-6.388s10.95 3.007 17.23 4.79zM1311.03 432.677c.1-3.417.18-8.77.18-8.77s.49 5.691.39 9.108c-.09 3.418-.32 2.508-.32 2.508s-.34.572-.25-2.846zM1302.23 447.537c-.79.689-.46.117-.46.117s-.33.572-.57-.338c-.23-.91.67-3.079 2-9.237.67-3.08 1.67-6.73 2.22-10.264.55-3.534.98-7.523.96-11.395.09-3.417-.27-6.718-.4-9.109-.23-.909-.01-1.936-.24-2.846.12.455.35 1.365.7 2.73.58 2.274.94 5.574 1.3 8.875.48 3.755.5 7.627.07 11.616s-.98 7.523-1.65 10.602c-1.78 6.275-3.14 8.561-3.93 9.249zM1198.56 258.895c-1.6-.559-4.58-2.705-13.15-7.777-4-2.366-9.15-5.41-15.21-8.219-5.48-2.472-11.42-4.827-16.79-6.844-5.37-2.016-10.5-3.123-14.04-3.671-2.05-.443-3.08-.664-4.11-.886 1.03.222 2.51.327 4.45.315 3.99.43 9.01 1.083 14.72 2.528 5.7 1.445 11.98 3.228 17.92 5.583 5.94 2.355 11.54 5.282 15.54 7.648 4.58 2.705 7.1 4.968 8.93 6.437 1.83 1.469 2.64 2.717 3.33 3.51.8 1.248-.23 1.026-.23 1.026s.24.91-1.36.35zM1187.25 585.601c.11-1.481 1.34-4.223 3.92-11.186 1.46-3.767 2.81-7.989 3.46-13.005 1.23-4.677 1.88-9.692 2.2-14.136.31-4.443.17-8.77.39-11.733.1-1.481-.25-2.845-.37-3.3.24.91.47 1.819.37 3.3.24 2.846.83 7.056 1.09 11.838.26 4.782-.4 9.797-1.05 14.812-.66 5.016-1.88 9.693-3.34 13.46-2.92 7.535-4.73 9.938-5.41 11.081-.34.571-.57-.338-.57-.338s-.79.688-.69-.793zM1317.74 916.666c2.73-.7 4.21-.595 5.12-.829 1.94-.012.81 1.248.81 1.248s1.48.105-.11 1.481c-.79.689-2.04 1.494-4.66 2.649-2.61 1.155-6.71 2.205-12.62 3.722-6.04 1.063-13.1 1.904-20.73 2.407-7.75.048-15.62-.359-22.12-1.116-7.07-1.095-13.23-2.424-17.45-3.764-2.06-.443-3.66-1.003-5.26-1.562-1.02-.221-1.59-.56-1.59-.56s.57.339 2.05.443l5.13 1.107c4.57.769 10.61 1.643 17.45 1.828 6.84.186 14.59.138 21.65-.703 7.06-.841 14.12-1.682 20.04-3.199l12.29-3.152zM1270.81 686.331c.11.455-.56 1.598-2.49 3.546-1.93 1.948-5.22 4.246-7.83 5.401-1.37.35-2.62 1.155-3.64.934.91-.234 2.16-1.039 3.52-1.389 2.62-1.155 5.33-3.791 7.26-5.739 1.47-1.831 2.27-2.52 3.18-2.753zM1326.8 887.682c5.92-1.517 10.92-2.801 15.48-3.968 4.55-1.167 7.73-1.984 10.92-2.801 5.92-1.517 9.1-2.334 11.16-1.891 3.87-.024 2.06 2.379 2.06 2.379s2.97.209.25 2.845c-1.59 1.377-4.54 3.104-10.11 5.985a366.664 366.664 0 01-10.57 4.166c-4.44 1.622-9.33 3.36-15.82 4.539-12.29 3.152-28 6.21-43.72 7.333-16.17 1.239-32.58 1.568-47.52.066-3.99-.431-7.41-.523-10.95-1.071-3.53-.547-6.95-.64-10.03-1.304-3.08-.665-6.05-.874-9.13-1.538-2.62-.781-5.13-1.107-7.64-1.433-2.51-.327-4.57-.769-6.16-1.329-2.06-.443-3.54-.548-4.68-1.224-2.63-.781-4.11-.885-4.11-.885s1.48.104 3.99.43c1.48.105 2.96.21 5.02.653 1.93-.012 3.99.43 6.5.757 2.51.326 4.9.197 7.86.406l8.9.629c2.96.209 6.38.302 9.8.394 3.42.093 6.84.186 10.71.162 14.47-.318 30.65-1.557 46.02-4.044 14.8-2.825 29.48-6.105 41.77-9.256zM1023.45 383.778c-2.97-.209-4.91-.197-4.91-.197s1.94-.012 5.24-.374c3.31-.362 7.64-.503 12.42-.761 4.79-.257 10.48-.748 15.61-1.577 2.13-4.91 3.93-9.249 6.18-13.705 2.02-5.365 4.04-10.73 6.4-16.667 2.29 1.352 22.57 19.904 30.13 26.691.57.338.69.793 1.26 1.131-.79.688-1.7.922-2.61 1.155-1.37.35-2.4.129-3.76.479-5.58.946-11.28 1.436-16.97 1.927-1.37.35-3.3.362-5.13.829-8.42 1.191-20.38 1.835-30.19 1.44-6.26.153-10.71-.161-13.67-.371z" fill="#F3F3F3"/><path d="M941.058 151.385c2.486-3.546 2.592-5.028 10.457-4.621 7.866.407 14.833 2.983 19.885 9.444 5.169 6.915 5 36.527 5.734 45.065.606 6.146.757 12.409 1.024 19.127.989 13.319 1.979 26.638 2.397 39.618.244 2.846.606 6.147.85 8.992.256 4.782.967 9.447 1.223 14.229l.117.455c.711 4.665 1.305 8.875 2.472 13.424l3.265 12.735c.117.455.572.338.688.793.794-.688 1.016-1.715 1.81-2.403 3.618-4.806 6.665-9.95 10.28-14.756a232.55 232.55 0 0124.46-27.598c11.79-10.779 25.53-19.634 40.53-25.421 11.03-4.282 22.98-6.862 34.95-7.506 2.39-.128 4.9.198 7.29.069 5.81-.036 11.4.954 16.54 2.062a139.359 139.359 0 0135.29 12.764c35.89 18.911 64.54 45.498 86.05 80.215 2.53 4.198 4.16 8.63 4.41 13.411-.1 1.482.47 1.82 1.61 2.496 3.2 1.119 5.94 2.355 9.48 2.902 4.56.769 8.33 2.227 12.67 4.022 6.06 2.81 10.07 7.113 13.86 12.442.12.455.81 1.248.93 1.702 1.04 4.094 1.98 7.733 3.03 11.826 1.05 4.094 1.64 8.304 2.81 12.852.7 2.729.94 5.575 1.3 8.876.85 8.992 1.59 17.529.96 26.416-.1 3.417-.65 6.951-.86 9.914a152.036 152.036 0 01-8.37 29.777c-.9 2.169-2.03 3.429-4.08 4.922-18.61 12.53-39.3 20.744-60.7 26.229-6.83 1.751-14.22 3.164-21.29 4.005-6.03 1.062-12.18 1.669-17.76 2.615-.91.234-1.94.012-3.18.817.11.455-.11 1.481.01 1.936 1.63 6.368 2.69 12.397 3.41 18.999.24.909.35 1.364.13 2.39.71 4.665.97 9.447.77 14.346-.1 3.417-.19 6.834-.74 10.368-.09 3.418-.76 6.497-.85 9.914-1.32 8.094-3.21 15.85-6.02 23.84-.56 1.598-.55 3.534-.08 5.353 1.62 4.432 2.79 8.98 3.84 13.074a343.086 343.086 0 0015.06 41.704c11.66 26.578 26.17 50.974 41.69 75.592.12.455.69.793 1.26 1.131 1.49.105 2.74-.7 4.1-1.05 14.44-6.126 27.27-14.747 38.48-25.864 5.1-4.701 10.09-9.857 15.19-14.558.34-.571 1.25-.805 1.59-1.376 1.14.676 1.37 1.586 2.06 2.379 4.38 7.603 8.3 15.323 12.55 22.472 16.13 28.828 33.5 56.851 52.58 83.953 7.58 10.658 15.5 20.745 25.01 29.456 5.04 4.524 9.75 9.62 14.33 14.261.92 1.703 1.5 2.041 1.61 2.496-.34.571-.34.571-.79.688-2.16 1.038-3.86 1.96-6.02 2.998-9.43 4.842-18.75 10.139-28.18 14.981-17.61 8.878-35.81 15.483-54.92 20.385-7.29 1.867-15.02 3.851-22.54 4.809-4.21.595-7.85 1.529-12.07 2.124-4.67.713-8.88 1.308-13.66 1.566-7.64.503-15.72 1.122-23.47 1.17-3.88.024-7.3-.069-11.17-.045-3.42-.092-7.3-.068-10.72-.161-5.92-.419-11.85-.838-18.24-1.14-8.89-.628-17.9-1.711-26.57-3.366-5.02-.652-10.04-1.304-14.72-2.528l-5.86 11.198 13.26 25.201-27.95-4.952-20.06 20.169-3.81-28.107-25.6-12.825 25.91-12.461 1.1-7.068c-16.55-3.997-33.1-7.995-49.53-11.537-25.33-6.107-51.01-11.643-77.243-15.58-9.581-1.421-19.501-2.271-28.965-3.237-6.956-.641-14.25-.709-21.544-.778-10.713-.161-21.194.587-32.012 1.907-2.848.245-5.579.945-8.427 1.191-2.847.245-5.578.946-8.881 1.308-5.695.491-10.83-.617-15.404-3.322-5.147-3.043-10.409-6.541-15.556-9.584-.571-.338-1.143-.676-1.832-1.469l1.693-2.858c2.825-4.117 5.195-8.118 8.02-12.236 3.957-5.377 6.316-11.314 8.102-17.589 3.796-13.576 7.136-27.036 8.305-41.393.433-3.989.527-7.406.504-11.278-.034-5.809-.406-11.045-.895-16.737-.362-3.3-.723-6.601-.967-9.446-.245-2.846-.945-5.575-1.306-8.876-.361-3.3-1.178-6.484-1.422-9.33-.35-1.364-.7-2.729-.139-4.327l1.365-.35c6.045.874 12.429 1.176 18.474 2.05 5.018.652 9.465.966 14.144 2.19 5.707 1.445 10.958 3.007 16.782 4.907 1.026.221 1.715 1.014 3.08.664.678-1.143.783-2.624-.022-3.872-.233-.91-1.26-1.131-2.287-1.353-.572-.338-1.027-.221-1.599-.559-14.727-4.464-29.338-8.474-44.287-11.912-12.324-2.657-24.531-4.859-37.076-6.49l-23.948-2.585c-4.446-.314-8.892-.628-13.794-.825-6.384-.302-13.223-.488-19.606-.79-7.294-.069-14.017.201-21.194.587-5.812.036-11.962.644-17.658 1.134-10.935.865-21.415 1.614-32.467 2.024-.455.116-1.027-.222-1.937.012.677-1.143 1.47-1.832 1.692-2.858 7.121-10.066 13.787-20.016 20.907-30.082 2.148-2.975 4.18-6.404 5.639-10.172 4.95-10.964 8.302-22.487 10.51-34.687 1.098-7.068 2.313-13.681 2.839-21.087-.022-3.872.527-7.406.504-11.278-.395-9.109-.79-18.218-2.668-27.431-.711-4.665-1.538-9.785-2.705-14.334l-9.33-36.386-2.332-9.097c1.143.676 2.17.897 2.742 1.236 21.367 9.548 43.306 19.434 64.673 28.982 2.17.898 3.886 1.913 5.94 2.355.571.338 1.027.222 1.365-.35l-.233-.909-9.661-14.974c-.688-.793-1.26-1.131-2.742-1.236-2.848.246-5.812.036-8.438-.745-3.652-1.002-6.733-1.666-10.386-2.669-.572-.338-1.143-.676-1.599-.559l-.816-3.184c-1.399-5.458-2.682-10.461-4.537-15.803-10.112-33.762-25.909-65.098-47.611-92.98l-4.48-6.122c-7.234-9.295-14.468-18.589-21.247-28-1.61-2.495-3.675-4.874-5.741-7.253-3.558-4.42-7-8.384-10.442-12.349-.572-.338-.806-1.248-1.494-2.041.794-.688 1.587-1.376 2.836-2.181l13.272-10.674c3.968-3.442 7.482-6.766 10.307-10.884 2.825-4.117 5.988-8.806 8.813-12.924 1.693-2.858 3.269-6.17 4.39-9.366 3.374-7.652 6.293-15.186 9.328-22.266.222-1.027.444-2.053 1.693-2.858.688.793 1.26 1.131 2.404 1.807 4.469 4.187 8.938 8.373 13.524 13.014 2.637 2.717 6.184 5.2 9.615 7.229 24.365 15.566 49.524 30.443 75.021 44.749a924.348 924.348 0 0066.294 33.415c13.14 5.841 27.19 11.448 41.007 16.146 1.027.221 2.171.898 3.537.547.338-.571.677-1.143 1.47-1.831 6.094-10.288 11.733-20.459 17.827-30.747l.677-1.143c-.117-.455.222-1.026.105-1.481-3.081-.664-5.929-.419-8.893-.628l-8.893-.628-8.892-.629c-2.965-.209-5.929-.418-8.555-1.199-2.964-.21-5.928-.419-8.554-1.2-.466-1.82-.594-4.21-1.061-6.03-.594-4.21-1.644-8.304-2.238-12.514-.583-2.274-.595-4.21-1.178-6.484-.361-3.301-1.178-6.485-1.655-10.24-.595-4.21-.734-8.537-1.329-12.747-.967-9.447-.568-19.244-1.08-28.808l-.116-.455c.094-3.417.071-7.289.62-10.823.316-4.444.177-8.771.948-13.331.421-5.925 1.414-11.512 1.835-17.436 1.076-10.94 3.295-21.204 5.853-32.04 1.109-5.131 2.674-10.38 3.784-15.512 1.143.676 4.517-6.975 6.432-10.859zm31.99 656.375l-7.061.841 8.893.628c-.689-.793-1.261-1.131-1.832-1.469zm-18.347.341c1.483.105 2.393-.129 3.875-.024l13.211-1.448-31.144-24.977c-5.229 2.31-9.769 5.413-14.193 8.971l-.455.117c-5.217 4.246-10.201 9.402-14.614 14.896 6.162 1.329 12.662 2.086 19.046 2.388 2.392-.129 4.33-.141 6.722-.27 5.812-.036 11.741.383 17.552.347zm-37.132-16.17c1.027.222 2.626.781 3.653 1.003l-.35-1.365c-1.366.35-2.393.129-3.303.362zm1.467 17.075l-7.527-.979c-.338.572-.677 1.143-.899 2.17.91-.234 2.393-.129 3.303-.363 1.365-.35 3.186-.816 5.123-.828zm-19.918-15.252c-.794.688-1.471 1.831-2.148 2.974 0 0 .116.455-.339.572-1.798 4.339-3.712 8.223-5.627 12.107l-1.354 2.286c.35 1.365 1.26 1.131 2.287 1.353 1.482.104 2.848-.246 4.668-.713 3.186-.817 6.034-1.062 9.337-1.424 4.296-5.949 9.163-11.56 14.603-16.832-2.743-1.236-5.252-1.562-8.1-1.317-1.482-.105-3.08-.664-5.018-.652l-.455.117c-3.081-.665-5.928-.419-7.854 1.529zm11.414-133.322c2.053.443 4.119 2.822 6.628 3.148l1.365-.35c-4.691-3.16-9.043-6.891-13.512-11.077 1.727 2.95 3.908 5.784 5.519 8.279zM805.029 470.321c.467 1.819.7 2.729 1.727 2.95 1.365-.35 3.874-.024 8.659-.281 2.848-.245 6.723-.269 10.481-.748 3.757-.479 7.399-1.413 11.04-2.347 3.642-.933 6.256-2.088 8.532-2.672.91-.233 1.704-.922 2.614-1.155l.91-.233s-.455.116-.793.688c-.455.117-1.249.805-2.615 1.155-2.159 1.038-5.228 2.31-8.298 3.582-3.525 1.388-7.166 2.322-11.263 3.373l-3.186.817c3.104 4.536 6.779 9.41 9.883 13.947 11.959 18.262 21.875 38.017 29.516 58.356l.35 1.365c-.794.688-1.483-.105-2.51-.326-8.11-3.253-15.882-7.077-24.109-10.785-18.508-7.857-36.677-16.286-55.185-24.144-1.144-.676-2.287-1.352-3.653-1.002-.222 1.026.128 2.391.361 3.3.945 5.575 2.461 11.488 3.405 17.063.816 3.183.839 7.056 1.2 10.356.711 4.665.967 9.447 1.223 14.229.373 5.236.173 10.135-.364 15.605-.316 4.444-.632 8.887-1.403 13.448-1.963 15.045-5.525 29.531-11.141 43.574-2.359 5.937-5.173 11.991-8.558 17.706l-.677 1.143 1.143.677c1.027.221 1.938-.012 2.848-.246 2.848-.245 5.695-.491 8.66-.281 4.785-.258 9.57-.515 14.471-.318 5.357.081 11.169.045 16.525.126 2.965.209 6.384.302 9.348.511 4.902.198 9.803.395 14.822 1.047 4.446.314 9.464.967 13.911 1.281 8.892.628 17.563 2.283 26.118 3.483 10.608 1.642 21.332 3.74 31.602 5.954 2.393-.129 4.33-.141 6.606-.725-15.857-22.11-29.67-45.713-41.325-70.355-.233-.91.677-1.143.911-.233l28.645-32.067c3.28-4.234 6.782-9.495 3.562-14.486-6.301-5.655-12.486-10.856-18.787-16.512-5.612-4.862-13.279-10.167-17.304-16.406-6.557-10.438 1.94-18.918 5.187-28.96l-.117-.455c.444-2.053 1.343-4.222 1.215-6.613l-27.582-39.463c-1.494-2.041-2.987-4.082-4.936-6.006-.455.117-.91.234-1.027-.221l-.233-.91-.233-.909c-8.133-7.125-21.239-7.158-30.937-9.034-7.644-1.433-15.743-2.749-23.387-4.183 11.154 17.015 18.561 36.444 24.148 56.34zm97.119 81.74l4.19-4.467c-1.143-.677-1.948-1.924-3.092-2.601.467 1.82-.316 4.444-1.098 7.068zm-24.551-86.29c-8.239-5.643-16.138-11.858-22.789-18.878l.805 1.248c3.792 5.329 7.467 10.204 10.804 15.65.921 1.702 3.115 6.472 4.713 7.031 2.171.898 4.996-3.219 6.467-5.051zm-53.268-46.934c-3.197-1.119-6.278-1.783-9.02-3.019-2.509-.326-4.902-.197-7.294-.069 3.536.548 7.644 1.434 11.18 1.981 1.598.56 3.197 1.119 5.134 1.107zm-59.733-41.883c1.271 3.067 2.426 5.68 3.698 8.747 4.608 8.513 9.555 16.455 14.163 24.968 3.198 1.119 6.617 1.212 9.698 1.876l12.09 1.747c-11.797-10.063-16.556-24.839-30.395-33.409-3.431-2.029-7.317-3.941-10.748-5.969.572.338.805 1.247 1.494 2.04zm204.069-64.928l-.816-3.184c-1.283-5.003-2.449-9.552-2.822-14.788-.361-3.301-1.061-6.03-1.422-9.331l-.233-.909c-.373-5.237-.745-10.473-1.69-16.048-1.444-13.202-1.979-26.638-2.852-39.502-.512-9.564-1.024-19.127-2.107-29.029-.384-7.173-1.223-14.229-1.49-20.946l-.467-1.82c-.116-.455-.572-.338-.805-1.247-.222 1.026-.444 2.052-.782 2.624-2.675 10.38-4.777 21.099-6.425 31.701l-2.279 19.489c-.432 3.989-.293 8.316-.725 12.305-.538 5.47-.166 10.706-.248 16.06-.06 9.225.335 18.334 1.185 27.326.256 4.782.967 9.447 1.562 13.657.128 2.391.827 5.12.955 7.511.35 1.364.817 3.183.711 4.665.234.909.922 1.702 1.832 1.469 2.509.326 5.474.535 7.983.862l8.893.628.455-.117c1.599.56 1.937-.012 1.587-1.376zm313.705 538.576c21.97-3.211 43.25-9.152 63.49-17.249 8.41-3.127 16.59-7.164 24.32-11.084.91-.234 2.16-1.039 2.84-2.182-.12-.455-.24-.909-.81-1.248-13.07-13.13-23.18-27.987-33.87-43.182-14.83-21.888-28.75-44.011-41.87-66.821-.81-1.248-1.5-2.041-1.85-3.405l-.57-.339c-.91.234-1.7.922-2.5 1.61-7.93 6.883-16.11 12.856-25.42 18.152-12.27 7.024-25.57 11.89-39.56 15.962-5.47 1.401-11.38 2.918-16.96 3.864-10.25 1.658-21.19 2.523-31.67 3.271-6.72.269-12.98.422-19.37.12-5.93-.419-12.31-.721-18.24-1.14-10.83-.616-21.44-2.259-32.05-3.901-15.17-2.412-30-5.395-44.49-8.95-6.74-1.666-13.35-2.878-20.09-4.545-.45.117-1.02-.221-1.6-.559-.09 3.417-.76 6.496-.97 9.459-.77 4.56-1.66 8.666-2.32 11.745-.11 1.481-.78 2.624-1.01 3.65l-.22 1.027s-.11-.455.11-1.481c.22-1.027.44-2.053.55-3.534.21-2.963.64-6.952.96-11.395.31-4.444.39-9.797.14-14.579-.26-4.782-.51-9.564-.54-13.436-.5-7.627-.86-10.928-.64-11.954l-.11-.455c-.12-.455.1-1.481-.01-1.936 3.19 1.119 6.51 2.693 9.25 3.929 3.2 1.119 6.06 2.81 9.25 3.929 3.2 1.119 5.94 2.354 9.14 3.474 3.2 1.119 6.4 2.238 9.59 3.357 3.2 1.119 6.4 2.238 9.48 2.902 3.2 1.119 6.28 1.784 9.48 2.903 3.19 1.119 6.27 1.783 9.81 2.33 3.08.665 6.28 1.784 9.82 2.331 3.08.665 6.61 1.212 9.69 1.876 3.08.665 6.16 1.329 9.7 1.876 3.08.665 6.62 1.212 9.58 1.422 2.97.209 6.5.757 10.04 1.304 3.42.093 6.5.757 9.92.85 3.42.092 6.5.757 9.92.849 3.42.093 6.84.186 9.8.395 3.42.093 6.84.186 9.8.395 3.42.093 6.73-.269 10.15-.177 3.42.093 6.72-.269 10.02-.631s6.72-.27 10.03-.632c-.24-.909-.35-1.364-.47-1.819-.23-.91-.92-1.703-1.49-2.041-10.24-15.312-19.56-30.857-28.43-46.519-9.33-17.481-17.75-35.195-24.47-53.832-1.27-3.067-2.09-6.251-3.36-9.318-.23-.909-.58-2.274-1.27-3.067-1.48-.105-2.28.584-3.19.817l-14.67 5.216c-6.71 2.206-13.2 3.385-20.14 4.68-6.04 1.063-12.19 1.67-17.88 2.161-1.37.35-4.55 1.167-11.73 1.554-8.21.164-19.49-.335-28.62-1.873-4.56-.769-8.67-1.655-11.75-2.319-3.08-.664-4.68-1.224-4.68-1.224s1.94-.012 5.02.652c2.96.21 6.96.641 11.86.838 7.41.524 16.07.242 22.91.428-.38-5.237-1.32-10.812-2.15-15.932-.36-3.3-1.18-6.484-1.99-9.668-.59-2.274-.6-4.21-1.18-6.484-.24-2.846-.94-5.575-1.31-8.876-.58-2.274-.71-4.665-.83-7.056-.48-3.755-.84-7.056-1.32-10.811-.13-2.391-.71-4.665-.84-7.056-.12-.455-.23-.91-.35-1.364-.85-8.992-1.58-17.53-1.98-26.638-.41-11.045-.7-21.635-1.1-32.68-.26-4.782.4-9.797.14-14.579.19-6.834.83-13.785 2.05-20.398.34-.572.22-1.027.44-2.053-7.52.957-14 2.137-14 2.137s19.11-4.902 29.7-7.132c1.82-.467 3.76-.479 4.67-.712 1.36-.35 2.73-.7 3.75-.479 1.39 3.522 1.87 7.278 2.8 10.916.94 3.639 1.3 6.939 2.23 10.578 1.59-1.376 3.75-2.415 5.45-3.336 1.71-.922 3.07-1.272 3.98-1.506l1.82-.466-1.82.466c-.91.234-2.16 1.039-3.86 1.96-2.96 1.727-6.25 4.025-8.06 6.428-.33.572-.79.688-.79.688-2.15 2.975-4.18 6.404-5.64 10.172-3.82 9.704-7.06 19.746-8.37 29.777-.77 4.56-1.43 9.575-1.74 14.019-.31 6.379-.16 12.642.45 18.789 1.08 9.901 2.62 19.686 5.98 29.004 1.27 3.068 2.54 6.135 4.27 9.085.81 1.248 1.16 2.612 1.96 3.86 1.16 2.613 2.77 5.108 4.83 7.487 5.39 5.889 12.7 7.894 20.55 6.364 6.49-1.179 11.94-4.515 16.47-9.554 3.4-3.78 6.22-7.897 8.48-12.353 5.06-10.509 8.19-21.006 9.61-32.518 1.42-9.576 1.03-18.684.06-28.131-.73-8.537-2.5-17.296-5.17-25.821l-.11-.455c-.12-.455-.35-1.364-.7-2.729l-.12-.455c-.7-2.729-1.97-5.796-3.13-8.408-.35-1.365-1.03-2.158-1.38-3.522-.81-1.248-1.73-2.951-2.54-4.198-2.29-3.289-5.05-6.461-8.6-8.944-2.97-2.146-6.4-4.175-8.57-5.072-1.15-.677-2.17-.898-2.74-1.236.57.338 1.59.559 3.08.664 2.62.781 5.82 1.9 9.37 4.384 3.43 2.029 6.64 5.084 9.51 8.71 1.37 1.586 2.3 3.289 3.33 5.446.91-.233 1.94-.012 2.85-.245 8.21-.165 16.18-1.239 24.15-2.314 5.58-.945 10.82-1.319 16.4-2.265 6.48-1.179 12.97-2.358 19.35-3.992 10.46-2.685 21.27-5.94 31.27-10.444 6.14-2.544 11.59-5.88 17.5-9.334 1.7-.921 2.72-2.636 3.74-4.35 2.58-6.964 4.13-14.148 5.23-21.216 1.1-7.068 1.17-14.358.33-21.414-.6-4.21-1.19-8.42-1.79-12.63-.72-6.601-2.35-12.969-3.98-19.337-.59-2.274-1.51-3.977-3.22-4.991l-.46.117c-1.48-.105-5.81.036-15.97-3.66-4.8-1.678-10.74-4.033-16.8-6.843-6.05-2.81-11.77-6.191-17.37-9.117-5.15-3.043-9.84-6.203-12.82-8.349-1.71-1.014-2.97-2.145-3.66-2.938-.69-.793-1.26-1.131-1.26-1.131s.57.338 1.6.559c1.14.676 2.29 1.353 4 2.367 3.43 2.029 8.35 4.162 13.95 7.089l8.22 3.707-.11-.455c.34-.571.67-1.143 1.47-1.831 1.01-1.715 1.57-3.313 2.59-5.027.9-2.17.43-3.989-.49-5.692-.69-.793-.92-1.702-1.49-2.04-16.79-25.749-38.68-46.797-64.65-62.922-9.15-5.41-18.63-10.249-28.8-13.944-7.99-2.798-15.75-4.686-24.07-4.976-4.9-.198-10.26-.278-14.93.434-18.33 2.277-34.36 9.78-48.99 20.804-8.51 6.544-15.88 13.765-23.01 21.895-7.13 8.131-13.12 16.937-19.11 25.744-14.125 20.587-27.107 41.851-38.828 64.246-1.914 3.884-2.031 3.429-5.684 2.427-12.44-3.112-24.658-7.25-36.538-11.96-23.187-9.081-45.814-19.76-68.22-31.466-35.206-18.118-68.825-37.613-102.339-58.589-1.144-.676-1.832-1.469-3.314-1.573-3.375 7.651-8.009 14.171-12.527 21.147-4.634 6.52-10.412 12.364-16.762 17.87.689.793.922 1.703 1.494 2.041 2.298 3.289 4.48 6.122 6.779 9.411 6.09 8.618 12.636 17.119 19.52 25.049 2.065 2.378 3.559 4.419 5.624 6.798 7.2 3.486 14.4 6.972 21.262 11.03 13.384 8.686 17.805 24.034 29.94 33.525 6.489-1.179 13.106.033 19.501 2.271 5.368 2.017 10.62 3.579 12.929 8.803.572.339 1.261 1.131 1.949 1.924l.117.455 4.48 6.123c9.871 12.011 21.33 22.645 34.714 31.332l22.665-2.418.455-.117.338-.572c3.303-.362 6.723-.269 10.597-.293l.91-.233.456-.117.116.455s.572.338.234.909c-.106 1.482-2.254 4.456-7.11 12.003-2.486 3.546-5.65 8.235-8.242 13.262-3.163 4.689-5.638 10.171-8.347 14.744-2.708 4.572-4.506 8.911-6.082 12.223-1.121 3.196-2.137 4.911-2.137 4.911s.339-.572.561-1.598c.222-1.026.899-2.17 1.459-3.767l4.484-12.784c2.137-4.91 4.612-10.392 7.203-15.42 2.592-5.027 5.639-10.171 8.125-13.717.678-1.143 1.016-1.714 1.81-2.403-1.155-2.612-2.193-4.769-2.893-7.498l-.455.116-15.032 1.916c-.794.688-1.821.467-2.731.7-2.731.7-4.774 2.194-6.245 4.025-2.381 2.065-3.735 4.351-4.517 6.975-.106 1.481-.783 2.624-1.46 3.767-3.246 10.043-11.627 18.978-3.704 29.065 8.727 11.335 21.434 21.165 32.998 30.318l.455-.116c2.288 1.352 4.691 3.159 7.434 4.395l.116.455c.456-.117.572.338.234.91l-9.735 11.221c-.339.572-.794.688-1.133 1.26-9.396 10.65-18.454 20.728-27.851 31.378 9.461 19.872 20.288 39.394 32.702 57.54 5.846 5.772 11.459 10.634 17.982 15.263l.571.338c1.716 1.015 3.431 2.029 4.691 3.16 7.306 2.005 14.728 4.465 21.578 6.586 2.626.781 4.796 1.679 7.422 2.46-.361-3.301-.384-7.173-.745-10.474-.723-6.601-1.212-12.292-1.806-16.502-.595-4.211-.723-6.601-.723-6.601l1.633 6.367c1.05 4.094 1.994 9.669 3.172 16.153 2.355 12.969 4.383 28.445 4.906 39.945.406 11.045-.365 15.605-.925 17.203-.677 1.143-1.249.805-1.366.35l-.338.571c-.572-.338-1.599-.559-2.626-.78-10.164-3.696-20.212-6.936-30.26-10.177-5.251-1.562-10.502-3.124-15.637-4.231-1.027-.221-2.054-.443-2.965-.209-.105 1.481-.21 2.962.14 4.327a87.146 87.146 0 011.234 16.164c-.083 5.354.173 10.135.091 15.489.011 1.936-.433 3.989-.422 5.925.418 12.98-.063 28.131-6.379 39.445 7.983.862 15.732.814 23.703-.261 4.424-3.558 8.964-6.661 14.648-9.088l.455-.117.911-.233 36.523 28.929c5.018.653 10.036 1.305 14.938 1.502 9.469.967 19.159 2.843 28.739 4.264 21.91 4.078 44.05 9.066 65.73 14.171 19.06 4.323 37.78 9.218 56.72 13.087a779.5 779.5 0 0044.14 7.585c8.56 1.2 17 1.945 25.89 2.573 4.9.197 9.8.395 14.25.709 1.94-.012 4.44.314 6.84.185 8.66-.281 17.55.347 26.43-.961 1.37-.35 2.39-.128 3.76-.479 3.66 2.939 9.7 1.877 15.28.931z" fill="#F3F3F3"/><path d="M1286.73 680.31c-.34.571-.57 1.598-1.13 3.196-1.01 1.714-2.37 4.001-4.63 6.52-2.15 2.975-5.78 5.844-9.41 8.714s-7.83 5.401-11.24 7.245c-3.86 1.96-7.39 3.348-10.12 4.049l-3.18.817-.91.233s.45-.117.91-.233c.91-.234 1.82-.467 3.07-1.272 2.61-1.155 5.68-2.427 9.43-4.842 3.29-2.298 7.04-4.713 10.67-7.583 3.17-2.753 6.23-5.961 8.49-8.48 4.42-5.494 5.77-7.781 7.02-8.585.79-.689 1.03.221 1.03.221zM1006.79 498.568c-16.649-2.516-32.858-7.085-47.947-14.85-10.63-5.515-20.468-11.718-29.289-19.635-.572-.338-1.144-.676-.922-1.703 7.411.524 14.822 1.047 22.349 2.026-.467-1.82-.595-4.211-1.061-6.03-.256-4.782-.173-10.135.143-14.579.771-4.56 1.658-8.666 2.441-11.29.56-1.598.782-2.624 1.121-3.196l.677-1.143s.116.455-.222 1.027c-.339.571-.444 2.052-.666 3.079-.666 3.079-1.215 6.613-1.414 11.511-.316 4.444-.06 9.226.651 13.891.583 2.274.711 4.665 1.294 6.939.583 2.274 1.05 4.094 1.971 5.796 1.272 3.067 3.221 4.991 4.481 6.122 1.143.677 2.626.781 4.224 1.341 2.509.326 4.902.197 7.411.523 2.964.21 5.928.419 8.776.174 5.357.081 10.375.733 15.732.813 4.9.198 10.26.279 15.16.476 6.84.185 13.79.826 20.63 1.011 3.88-.024 6.38-1.634 7.38-5.285.44-2.052.89-4.105.88-6.041.22-1.027.32-2.508.2-4.899.31-4.443.5-11.278.58-16.631-.24-2.846-.37-5.237-.38-7.173-.01-1.936-.25-2.846-.25-2.846s.24.91.7 2.729c.47 1.82.6 4.211 1.3 6.94.71 4.665.74 10.473.88 14.8 3.3-.362 6.61-.724 10.36-1.203.46-.117 1.03.221 1.94-.012-.79.688-1.13 1.26-1.47 1.831-11.1 11.572-21.74 23.027-32.85 34.598-1.13 1.26-2.04 1.494-3.52 1.389-3.42-.093-7.29-.069-11.29-.5zM969.759 596.287c-.911.234-3.875.024-13.689-2.307-17.12-4.335-47.38-14.512-47.38-14.512s31.603 5.954 48.267 10.407c1.027.221 1.599.559 2.626.781-1.843-3.405-4.142-6.694-5.985-10.099-5.752-9.19-11.504-18.379-16.801-27.685-.688-.793-.921-1.703-1.61-2.496l.339-.571c1.027.221 2.17.897 3.197 1.119 20.446 7.845 41.335 13.638 63.237 17.716 9.25 1.993 18.83 3.414 28.29 4.381 1.03.221 2.39-.129 3.54.547-.22 1.027-.56 1.598-.79 2.624-2.34 7.873-4.69 15.746-7.04 23.619-1.34 4.222-2.8 7.99-3.12 12.433.12.455-.67 1.144-.89 2.17l-3.09-.664c-16.32-5.024-32.88-10.958-49.101-17.463zM721.747 279.844c-.56 1.598-1.459 3.768-2.697 6.509-1.354 2.286-2.591 5.027-4.517 6.975-1.81 2.403-3.736 4.351-5.778 5.844-3.63 2.87-5.451 3.337-6.361 3.57-.456.117-.572-.338-.572-.338s-.455.117-.117-.455c.339-.571 2.043-1.493 5.218-4.246 1.587-1.377 3.513-3.325 5.439-5.273 1.926-1.948 3.735-4.351 5.089-6.637 2.265-2.52 3.281-4.234 4.296-5.949.222-1.026.106-1.481.444-2.053.117.455-.105 1.482-.444 2.053zM779.258 487.108s.805 1.248-5.252-1.561c-6.511-2.693-17.597-8.091-17.597-8.091s12.218 4.138 18.274 6.948c6.395 2.238 4.575 2.704 4.575 2.704zM773.856 479.284c3.886 1.912 2.975 2.145 2.975 2.145s.689.793-3.197-1.119-10.748-5.97-10.748-5.97 7.084 3.032 10.97 4.944zM861.474 300.731c-11.774-6.191-32.592-19.273-32.592-19.273s22.055 10.341 33.83 16.532c11.774 6.191 8.355 6.099 8.355 6.099s2.181 2.833-9.593-3.358zM889.187 323.679c1.377 1.586-.105 1.481-.105 1.481s1.26 1.131-1.132 1.26c-1.938.012-7.528-.978-20.212-6.936-6.512-2.693-13.829-6.634-21.6-10.458-7.772-3.824-15.322-8.674-22.184-12.732-6.861-4.057-12.812-8.348-16.932-11.17-2.287-1.352-3.664-2.938-4.807-3.615-1.144-.676-1.832-1.469-1.832-1.469s2.859 1.691 7.316 3.941c4.458 2.25 10.748 5.97 17.948 9.456 7.2 3.486 14.972 7.31 23.199 11.017 7.655 3.369 15.31 6.739 21.822 9.432 12.113 5.619 17.142 8.207 18.519 9.793zM810.323 693.398c-8.438-.745-16.875-1.49-24.741-1.897-7.866-.407-15.043-.021-19.828.237-2.393.129-4.785.257-5.695.491-1.483-.105-2.393.128-2.393.128l2.276-.583c1.365-.35 3.186-.817 6.034-1.063 5.123-.828 12.184-1.669 19.817-2.172 8.087-.62 16.747-.901 25.185-.156 8.321.29 16.758 1.035 23.375 2.247 13.689 2.306 18.602 4.44 20.434 5.909 1.715 1.014-.105 1.481-.105 1.481s1.26 1.131-1.133 1.26c-1.82.467-7.41-.523-20.644-2.947-6.5-.757-14.144-2.19-22.582-2.935zM825.446 706.971c7.527.978 10.269 2.214 10.958 3.007 1.143.676.233.91.233.91s.688.793-.339.571c-.91.234-3.874.024-11.518-1.409-7.072-1.095-17.68-2.738-26.118-3.483-4.446-.314-8.321-.29-10.83-.616l-4.446-.314s1.82-.467 4.213-.595c2.847-.246 6.722-.27 11.052-.411 8.776.174 19.151.907 26.795 2.34zM1063.44 927.581l-10.68 5.647 1.87-11.629-8.94-8.372 12.07-2.125 5.06-10.509 5.65 10.671 11.97 1.292-8.49 8.481 2.12 12.059-10.63-5.515zM811.999 885.903l-2.038 1.751 8.051 9.358c.845-.685 1.555-1.725 2.131-3.12.569-1.404.951-3.397 1.146-5.981.221-3.015.555-5.151 1.002-6.41.456-1.265 1.065-2.224 1.827-2.879.879-.756 1.817-1.111 2.812-1.066.997.031 1.819.423 2.467 1.176.696.809.968 1.728.816 2.759-.151 1.031-.784 2.026-1.9 2.984l1.763 1.597c1.55-1.55 2.393-3.087 2.53-4.61.139-1.539-.363-2.971-1.504-4.297-1.242-1.444-2.668-2.116-4.276-2.017-1.616.091-3.044.67-4.285 1.737-1.1.945-1.906 2.143-2.42 3.595-.506 1.444-.9 3.701-1.184 6.77-.169 1.947-.314 3.239-.436 3.876a8.8 8.8 0 01-.527 1.722l-5.975-6.945z" fill="#F3F3F3"/></svg>