<?xml version="1.0" encoding="utf-8"?><svg width="375" height="812" fill="none" xmlns="http://www.w3.org/2000/svg" viewBox="0 0 375 812"><g clip-path="url(#bdclip0)"><path fill="#fff" d="M0 0h375v812H0z"/><path d="M207.558 272.122c.248.146.051.197.051.197s.247.146.05.196c-.197.051-.935.45-2.758.708-1.824.258-4.29.47-6.411.385-1.086-.142-1.925-.136-2.567-.182-.641-.045-1.086-.141-1.086-.141s.445.096 1.036-.056c.641.046 1.677-.01 2.713-.066 2.071-.111 4.536-.324 6.31-.778 1.824-.258 2.415-.41 2.662-.263zM195.521 322.631c-.101-.394-.207-1.625-.176-4.781.04-1.479-.02-3.352-.131-5.422a27.083 27.083 0 00-.822-5.665c-.258-1.822-.661-3.397-1.161-4.528l-.354-1.378-.101-.394.101.394c.101.393.399.737.551 1.327.5 1.131 1.1 2.656 1.555 4.428.454 1.772.959 3.741 1.267 5.76.308 2.019.368 3.893.378 5.569-.031 3.155-.37 4.291-.663 4.786-.293.495-.394.101-.394.101l-.05-.197zM230.309 374.773c-.146.248-.389.939-.829 1.682-.636.792-1.369 2.029-2.89 3.469-1.521 1.439-3.385 3.176-5.598 4.373-2.163 1.394-4.573 2.641-6.887 3.444-2.314.803-4.284 1.309-5.86 1.713-.788.202-1.43.156-1.824.257l1.773-.454c1.577-.404 3.446-1.303 5.512-2.253 2.067-.949 4.426-2.394 6.341-3.934s3.83-3.08 5.154-4.469c1.521-1.439 2.304-2.479 2.991-3.075.637-.793.981-1.091 1.375-1.192.54-.348.444.096.444.096s.344-.298.298.343zM220.301 375.871c-.146.247-.389.939-1.763 2.13-1.375 1.192-3.34 2.535-5.26 3.238-.935.449-1.723.651-2.511.853l-.985.253s.394-.101.934-.45c.592-.151 1.329-.55 2.264-1 1.869-.899 3.784-2.439 4.962-3.58 1.177-1.141 1.667-1.687 1.864-1.737.394-.101.248.146.495.293-.247-.147-.101-.394 0 0zM107.888 218.36c.783-1.04 2.056-2.625 3.082-4.357 1.026-1.732 1.951-3.858 2.876-5.984.727-2.075 1.455-4.15 2.037-5.978 1.016-3.408 1.698-4.842 1.991-5.336.344-.298.394-.101.394-.101.147-.248.096-.445.49-.546 4.96 4.604 10.118 9.157 15.078 13.76l.101.394c-.197.051-.147.248-.147.248a162.605 162.605 0 01-20.066 1.997c-.197.051-.592.152-.839.006-.44.742-.733 1.237-1.223 1.782-1.223 1.782-2.547 3.171-3.577 4.065-.491.545-.834.843-1.178 1.141-.343.298-.54.348-.54.348l.293-.494c.394-.101.737-.399 1.228-.945zM58.853 303.117c-4.303-2.044-8.41-4.139-12.421-6.678-.99-.585-2.03-1.367-2.925-2.397-1.242-1.57-.904-2.706.769-3.555 1.132-.5 2.314-.803 3.546-.909 2.663-.263 5.325-.526 7.594-.688 1.48.04 2.713-.066 3.996.025 2.713-.067 5.426-.133 8.189-.002 3.85.272 7.502.595 11.402 1.063 8.492 1.18 16.792 3.249 24.703 6.256.889.192 1.632.631 2.521.823.197-.051.444.096.692.242 2.672 1.413 4.46 3.473 5.217 6.426.505 1.969.171 3.943-1.349 5.382-.491.546-1.031.894-1.769 1.293-1.475.798-3.001 1.399-4.825 1.657-5.719.627-11.442.416-17.318-.386-9.431-1.568-18.97-4.369-28.022-8.552zM199.243 267.539c2.759-.707 5.517-1.415 7.634-2.167 4.285-1.309 6.007-1.96 6.846-1.965.642.045.298.343.298.343s.642.045.152.59c-.491.546-2.112 1.591-6.594 2.95-2.117.753-4.875 1.46-7.932 1.824-2.809.51-5.865.875-8.578.941-2.713.066-5.229.081-6.906.092a25.4 25.4 0 01-2.122-.086c-.444-.096-.641-.045-.641-.045s.197-.051.838-.005c.394-.101 1.233-.106 2.071-.112 1.678-.01 4.093-.419 6.755-.682 2.612-.46 5.421-.971 8.179-1.678z" fill="#C4C4C4"/><path d="M97.145 456.55c-.495-.292-1.136-.338-1.58-.434-1.087-.141-2.223-.479-3.507-.569-7.259-1.287-14.615-2.128-21.87-2.576-3.849-.272-7.648-.347-11.644-.372-4.834-.019-9.568.355-14.252.926-1.43.157-2.808.511-4.238.668-1.43.156-2.81.51-4.239.667-2.86.313-5.476-.065-7.754-1.579-2.723-1.61-5.496-3.417-8.27-5.224-.247-.146-.494-.293-.596-.687.294-.494.44-.742.733-1.237 1.37-2.03 2.542-4.009 3.912-6.039 2.152-3.07 3.613-6.382 4.578-9.987 1.113-3.852 1.83-7.603 2.695-11.602.91-4.64 1.426-9.179 1.25-13.96-.065-2.711-.13-5.422-.392-8.083-.157-1.429-.363-3.054-.52-4.483-.156-1.429-.51-2.807-.666-4.236-.207-1.626-.61-3.201-.817-4.826-.253-.985-.258-1.823-.313-2.858.197-.05.444.096.641.045 2.814.328 5.825.605 8.64.933 2.171.282 4.096.418 6.319.897 3.309.621 6.522 1.686 9.684 2.553.445.096.94.389 1.581.434.632-1.63.284-2.171-1.1-2.655-.198.05-.248-.146-.445-.096a246.413 246.413 0 00-29.644-7.507 230.158 230.158 0 00-18.96-2.693c-3.652-.322-7.501-.594-11.3-.669-3.405-.176-6.81-.353-10.165-.332-4.587.127-8.977.204-13.564.331-3.107.167-6.214.334-9.27.698-2.27.162-4.735.375-7.003.536-1.627.208-3.304.218-4.93.425-.198.051-.592.152-.693-.242.344-.298.44-.742.733-1.237 3.522-5.1 6.898-9.952 10.42-15.052 1.273-1.585 2.052-3.464 2.83-5.342 1.41-3.509 2.77-7.215 3.685-11.017a89.348 89.348 0 002.812-16.878c.182-2.565.218-4.882.152-7.594-.12-3.746-.584-7.194-1.099-10.839-.363-3.054-1.12-6.008-1.731-9.208l-4.645-18.114-.757-2.954c.642.046 1.137.338 1.632.631 13.502 5.98 26.808 12.011 40.311 17.992.692.242 1.435.681 2.127.923.247.147.444.096.788-.202l-.101-.394c-.606-2.362-.818-4.826-.979-7.093a31.634 31.634 0 01.886-8.83c1.4-5.186 3.79-9.785 7.12-13.997 1.617-1.883 3.431-3.817 5.346-5.357.147-.248.54-.349.39-.939-.445-.096-.84.005-1.284-.091-1.182.303-2.415.409-3.597.712-3.4.662-6.8 1.324-10.347 2.234-.985.252-1.97.505-3.006.561-3.107.167-6.017.284-9.124.451-1.677.01-3.157-.03-4.738-.464l-4.744-1.302c-.692-.242-1.187-.535-1.389-1.322l-.757-2.954c-1.262-4.922-2.721-9.794-4.575-14.564-5.261-13.969-12.342-26.842-21.635-38.518-4.273-5.2-8.4-10.646-12.132-16.194-.995-1.424-1.94-2.651-3.081-3.827l-4.622-5.739c-.298-.344-.399-.737-.697-1.081.54-.348.884-.646 1.228-.944 2.259-1.838 4.714-3.727 6.922-5.762 2.062-1.787 3.926-3.524 5.442-5.802 1.077-1.535 1.956-3.019 3.032-4.554 1.172-1.979 2.345-3.959 3.073-6.034 1.556-3.756 3.26-7.76 4.816-11.517.147-.247.243-.692.536-1.186.546.489.844.833 1.142 1.176 2.283 2.352 4.712 4.457 6.995 6.809 1.142 1.176 2.43 2.105 3.915 2.983 12.083 7.814 24.459 15.132 36.931 22.006 11.234 6.143 22.418 12.088 34.042 17.291 6.628 2.917 13.452 5.784 20.323 8.009.444.096.94.388 1.778.383l1.026-1.732c2.88-5.145 5.811-10.093 8.742-15.041l-2.56-7.527-10.82-2.891 8.988-6.712-.559-11.188 9.214 6.451 10.534-3.96-2.179 7.064c2.987-3.914 5.973-7.827 9.454-11.448 6.327-6.448 13.35-11.816 21.666-15.417 5.068-2.349 10.585-3.763 16.253-4.587 2.662-.263 5.375-.329 7.942-.148 2.763.131 5.577.458 8.244 1.034 5.977 1.195 11.811 3.476 17.156 6.302 17.518 9.358 31.752 22.285 42.409 39.277 1.444 2.357 2.641 4.569 2.509 7.33.005.838.303 1.182 1.243 1.57 1.435.682 3.016 1.115 4.546 1.352 1.976.333 4.052 1.06 5.931 1.837 3.066 1.312 5.299 3.468 7.041 6.168.298.344.399.737.5 1.131l1.515 5.907c.555 2.166.914 4.382 1.221 6.402.207 1.625.611 3.2.818 4.826.368 3.892.539 7.835.266 11.683-.188 1.726-.324 3.65-.512 5.377-.758 5.23-2.209 10.219-4.301 15.162-.39.939-.88 1.484-1.764 2.131-8.205 5.671-17.113 9.423-26.469 12.242-3.547.91-7.094 1.819-10.888 2.582-2.218.359-4.238.667-6.456 1.026-1.43.157-2.86.314-4.239.667-2.465.213-5.077.673-7.543.885-2.662.263-5.375.329-8.038.592-.197.051-.641-.045-.838.005-.197.051-.394.101-.541.349l.101.394c.298.343.596.686.844.833a101.969 101.969 0 0110.288 13.099c.349.54.894 1.03 1.293 1.767 3.278 3.776 5.965 7.703 8.162 12.176 2.197 4.473 3.656 9.345 4.327 14.418.515 3.645.635 7.392.165 11.289-.901 6.316-2.988 12.098-6.51 17.197-.44.743-.93 1.288-1.567 2.081-.293.495-.389.939-.288 1.333l.202.787a188.8 188.8 0 005.61 14.509c5.752 13.424 13.126 25.802 20.893 38.079.298.343.596.686.647.883.839-.005 1.379-.353 1.97-.505 7.185-3.101 13.622-7.479 19.362-12.938 2.551-2.333 5.103-4.666 7.604-7.196.344-.298.49-.545 1.031-.894.298.344.596.687.697 1.081l2.242 3.831c6.232 11.202 12.464 22.404 19.434 33.207 4.132 6.285 8.263 12.57 12.541 18.608 2.985 4.27 6.313 8.243 10.132 11.67 2.531 2.499 5.309 5.144 7.839 7.643.248.146.349.54.596.686-.343.298-.54.349-.687.596-1.278.748-2.607 1.298-3.885 2.046-4.82 2.495-9.59 5.186-14.657 7.535-8.609 4.096-17.668 7.258-27.126 9.683-3.349.859-6.502 1.667-9.952 2.132-2.021.309-3.845.567-5.866.875-2.021.308-4.042.616-5.916.677-7.396.638-14.843 1.078-22.294.681-2.764-.131-5.527-.262-8.341-.589-4.047-.222-8.391-.787-12.488-1.205-6.962-.943-13.776-2.133-20.642-3.52-3.556-.767-7.31-1.483-10.917-2.447 0 0-15.413-3.602-19.019-4.566-3.804-.913-7.608-1.826-11.215-2.79l-20.788-3.273zm63.376 5.573c6.866 1.387 13.681 2.578 20.692 3.717 4.148.616 8.442.983 12.539 1.402 3.011.277 6.169.307 9.129.387 5.082.166 10.114.134 15.242-.341 2.859-.314 5.522-.577 8.381-.89 2.415-.409 4.88-.622 7.098-.981 3.597-.712 7.392-1.475 10.888-2.582 7.684-1.97 15.166-4.728 22.497-8.076 2.067-.95 3.936-1.849 6.003-2.798.394-.102.737-.399 1.278-.748-.298-.343-.399-.737-.647-.883-5.359-5.341-9.884-11.525-14.263-17.956-8.359-12.126-16.127-24.403-23.404-37.225-.298-.343-.399-.737-.697-1.08 0 0-.248-.147-.298-.344-.197.051-.591.152-.738.399-.49.546-1.228.945-1.718 1.49-7.069 6.009-15.183 10.398-23.847 13.459-4.234 1.505-8.519 2.814-12.954 3.531-3.4.662-6.8 1.324-10.302 1.592-2.268.162-4.486.521-6.805.486-3.501.268-7.103.143-10.508-.033-2.318-.035-4.885-.216-7.204-.251-3.455-.373-6.911-.746-10.563-1.069-13.034-1.694-25.729-4.524-38.474-7.551l-2.668-.575c-.641-.045-.692-.242-.793-.636l-.05-.197c-.399-.737-.46-2.61-.883-7.538-.212-2.463-.328-5.371-.691-8.426-.363-3.054-.726-6.109-1.236-8.916-.51-2.807-.969-5.417-1.423-7.189a17158.28 17158.28 0 01-.556-2.166c.152.591.5 1.131.753 2.116.651 1.721 1.308 4.281 2.211 6.987.707 2.756 1.515 5.907 2.075 8.91l.202.788c.197-.051.248.146.445.096 3.808 1.751 7.764 3.255 11.719 4.759 11.124 4.072 22.637 7.205 34.438 9.006 4.395.761 8.739 1.326 13.034 1.694 3.011.277 6.168.307 9.376.533 3.849.272 7.598.15 11.347.029l5.622-.183c1.43-.157 3.057-.364 4.734-.375-.101-.393.046-.641-.202-.787-.298-.343-.646-.884-.747-1.277-6.172-9.329-11.95-18.759-16.843-28.836-4.293-8.551-7.995-17.255-10.908-26.16-.101-.394-.449-.934-.55-1.328-.495-.293-1.036.056-1.43.157-2.855 1.151-5.709 2.303-8.862 3.111-3.349.859-6.896 1.769-10.347 2.234-4.041.616-8.33 1.087-12.524 1.113l-5.031.031c6.951-.733 13.751-2.057 20.648-3.826 4.926-1.263 9.503-3.066 13.828-5.854 7.028-4.529 11.035-11.013 12.269-19.303.284-2.171.37-4.291.259-6.361-.368-3.893-1.13-7.684-2.68-11.274-1.702-4.18-4.192-8.158-7.369-11.54l-2.834-3.68c-7.712-11.242-17.531-20.055-29.559-26.834-2.92-1.559-5.839-3.119-8.658-4.284-5.936-2.675-5.936-2.675-12.21-4.214-2.273-.676-4.496-1.155-6.719-1.634-.444-.096-.692-.243-1.136-.339-.051-.196-.101-.393.045-.641-1.233.106-2.319-.035-3.551.072-1.925-.136-3.602-.126-4.689-.267l-1.924-.136s.838-.005 1.874-.061c1.233-.106 2.91-.117 4.734-.375 1.429-.156 3.304-.217 4.93-.424.395-.102.789-.203 1.43-.157 2.218-.359 4.486-.521 6.704-.88l6.654-1.076c1.824-.258 3.845-.567 5.618-1.021 3.006-.561 5.961-1.319 9.164-1.93-.216-3.302-.286-6.852-.058-10.058.227-3.205.607-5.821 1.138-7.845l.48-2.222.192-.889s-.146.248.005.839c-.046.641-.091 1.282-.233 2.367a132.475 132.475 0 00-.299 7.841c-.031 3.156.383 6.407.796 9.658.414 3.251 1.025 6.452 1.681 9.012l1.515 5.907.197-.051c.838-.005 1.727.187 2.566.181 1.48.04 3.011.277 4.294.368 1.677-.01 3.405.176 5.082.166 1.036-.056 2.122.085 2.961.08l12.428-.668c2.859-.314 5.521-.577 8.381-.891 1.627-.207 3.253-.414 4.683-.571 1.824-.258 3.845-.566 5.618-1.021 3.597-.712 7.144-1.622 10.691-2.531 6.648-1.915 13.095-4.617 19.092-8.253.344-.298.738-.399 1.082-.697.737-.399 1.03-.894 1.273-1.585a50.573 50.573 0 002.745-11.406c.379-2.615.365-5.129.35-7.644.041-1.479-.313-2.857-.221-4.14-.101-.393-.202-.787-.106-1.231-.162-2.267-.57-4.681-1.176-7.043-.308-2.02-1.01-3.938-1.318-5.957l-.353-1.379c-.399-.737-.995-1.423-1.884-1.615-1.435-.681-2.819-1.166-4.35-1.403-1.975-.333-3.804-.913-5.435-1.544-2.769-.969-5.39-2.185-8.063-3.598-.692-.242-1.237-.732-1.783-1.222-.343.298-.439.743-.783 1.041-.98 1.09-2.061 1.787-3.143 2.484-1.081.697-1.965 1.343-2.703 1.742.738-.399 1.572-1.242 2.456-1.888.833-.843 1.864-1.737 2.647-2.777.784-1.041 1.567-2.081 1.956-3.02.389-.939.632-1.631.728-2.075.096-.444.243-.692.243-.692.096-.444-.056-1.035-.354-1.378l-1.045-1.62c-5.526-8.446-12.031-15.801-19.568-22.262-5.601-4.649-11.496-8.803-18.028-12.164-4.849-2.534-9.744-4.426-15.079-5.576-3.112-.671-6.123-.948-9.28-.978-7.351-.004-14.197 1.961-20.836 5.552-6.492 3.344-12.04 7.914-16.992 13.17-4.118 4.413-7.837 9.564-11.162 14.613-7.337 10.695-13.932 21.828-20.032 33.254-.293.495-.389.94-.732 1.237-.592.152-1.036.056-1.728-.186-5.582-1.297-11.069-3.037-16.408-5.026-9.295-3.492-18.347-7.676-27.203-11.91-13.654-6.571-26.869-13.884-39.79-21.692-6.88-3.902-13.614-8.051-20.398-12.396-.298-.344-.742-.439-1.237-.732-.147.247-.49.545-.637.793-1.9 4.054-4.346 7.619-6.989 11.234-1.713 2.328-3.673 4.509-5.932 6.348l-1.03.893-.147.248c.05.197.348.54.646.883.647.884 1.243 1.57 1.89 2.454 3.681 5.35 7.707 10.404 11.732 15.457 9.789 11.968 17.167 25.185 22.975 39.643 1.752 4.377 3.11 8.855 4.468 13.333l.202.788c.05.196.101.393.349.54.838-.006 1.924.136 2.763.13 2.268-.161 4.39-.076 6.659-.238 1.035-.056 1.823-.258 2.809-.51 3.546-.91 7.143-1.622 10.543-2.284 2.218-.359 4.633-.768 6.851-1.127 1.824-.258 3.648-.516 5.522-.577 3.698-.319 7.346-.834 11.145-.759 3.354-.021 6.512.009 9.866-.012 2.516-.016 5.082.166 7.649.347 2.763.131 5.627.655 8.588.736.444.096.692.242 1.136.338l.051.197 3.107-.168c3.304-.217 6.906-.092 9.917.186 3.208.226 5.825.604 7.8.937 1.086.141 1.778.384 2.223.479l.889.192s-.197.051-.839.005c-.641-.045-1.283-.09-2.37-.231-1.924-.136-4.687-.267-7.794-.1-3.107.167-6.411.385-9.665.799-3.253.415-6.456 1.026-8.871 1.436l-.591.151c-6.897 1.769-13.394 4.274-19.74 7.37-3.541 1.747-7.033 3.692-10.029 5.929-2.996 2.237-5.694 4.817-7.6 8.034-2.101 3.266-3.512 6.776-3.982 10.673a20.634 20.634 0 00.08 5.226c.413 3.251 1.514 5.906 3.06 8.658 1.944 3.488 4.48 6.825 7.308 9.667 2.88 3.039 5.758 6.077 8.98 8.818 1.092.979 2.577 1.858 4.062 2.736 1.733 1.024 3.612 1.802 5.244 2.432 1.631.631 3.263 1.262 4.4 1.6a44.94 44.94 0 011.828.58s-.692-.242-1.778-.383a61.257 61.257 0 00-4.496-1.155c-1.829-.581-3.657-1.161-5.587-2.135-1.187-.535-2.425-1.267-3.415-1.852a36742.165 36742.165 0 00-56.582-24.941c-.495-.293-1.238-.732-1.829-.58.05.197-.096.444-.046.641.606 2.363 1.066 4.973 1.671 7.335.303 1.182.41 2.414.515 3.645.409 2.414.424 4.928.832 7.341.157 1.429.166 3.105.323 4.534-.046.641-.04 1.479-.086 2.12a70.753 70.753 0 01-1.008 13.268c-1.042 7.402-3.024 14.415-5.844 21.433a31.423 31.423 0 01-3.366 6.529l-.44.742s.051.197-.095.444c.247.147.444.096.692.243.641.045 1.232-.107 1.874-.061 3.552-.072 6.855-.289 10.407-.361 2.516-.015 5.28.116 7.795.1 1.874-.061 3.8.075 5.476.065 2.122.085 4.244.171 6.416.453 2.567.181 5.133.363 7.75.741 3.258.423 6.466.65 9.528 1.124 9.578 1.321 18.914 3.334 28.153 5.791a206.773 206.773 0 0117.792 5.51c.248.146.495.293.94.389-.06-1.873-.171-3.943-.429-5.766-.216-3.302-.529-6.159-.64-8.229-.308-2.02-.464-3.448-.464-3.448l.858 3.347c.505 1.969 1.066 4.972 1.48 8.224 1.024 6.452 1.86 14.631 1.845 20.3-.017 5.67-.497 7.892-.689 8.78-.44.742-.591.152-.591.152s-.147.247-.394.101c-.394.101-.692-.242-1.137-.338-5.34-1.989-10.876-3.926-16.312-5.47-2.273-.676-4.546-1.352-6.966-1.781-.444-.096-.642-.046-1.086-.141-.096.444-.046.641-.192.888.005.838.01 1.676.212 2.464.418 4.089.443 8.28.417 12.273a28.974 28.974 0 01-.41 5.771c-.85 6.513-2.195 12.733-3.985 18.858-.965 3.605-2.376 7.114-4.478 10.381l-.44.742c.4.737 1.041.782 1.83.58l1.379-.353c2.611-.46 5.224-.92 7.689-1.133 3.895-.369 7.74-.935 11.539-.86 1.035-.056 2.121.085 3.354-.021 4.143-.223 8.19-.001 12.236.22 9.18.584 18.116 1.86 27.103 3.333 11.458 2.098 22.622 4.691 34.034 7.43 9.532 1.963 18.919 4.172 28.254 6.185z" fill="#C4C4C4"/><path d="M75.686 136.178l5.012-3.384.259-6.361 4.808 4.013 6.008-1.96-2.285 5.832 3.632 5.154-6.169-.307-3.77 4.953-1.711-5.856-5.784-2.084zM255.314 390.395l-6.376-1.933 5.306-3.878-.04-6.705 5.254 4.109 6.35-2.258-2.183 6.225 3.879 5.301-6.512-.009-3.866 5.398-1.812-6.25zM167.622 132.749c-.642-.045-1.384-.485-3.016-1.115-.743-.439-1.682-.828-2.869-1.363-1.187-.535-2.622-1.216-4.254-1.847-3.263-1.262-7.415-2.715-11.861-3.673-4.446-.959-8.987-1.473-13.18-1.447-1.036.056-2.122-.086-3.158-.03-1.035.056-1.874.061-2.91.117-.838.005-1.824.258-2.465.212-.788.202-1.627.208-2.218.359-1.43.157-2.415.409-3.203.612.788-.203 1.723-.652 3.102-1.006l2.167-.555c.789-.203 1.577-.405 2.612-.46.986-.253 1.824-.258 2.809-.511.986-.252 2.021-.308 3.057-.364 4.289-.47 9.174-.254 13.766.457 4.592.711 9.088 1.867 12.402 3.325 1.829.58 3.117 1.509 4.304 2.044 1.187.535 2.228 1.317 2.97 1.757 1.536 1.075 2.132 1.761 2.678 2.251.646.883-.193.888-.193.888s.546.49-.54.349zM-38.236 226.661c-.546-.49-1.49-1.716-3.88-5.301-2.389-3.584-5.575-8.642-8.51-12.716-1.394-2.16-2.884-3.877-3.828-5.103-.945-1.227-1.591-2.111-1.591-2.111s.596.687 1.737 1.863c1.142 1.176 2.632 2.893 4.37 4.755 3.277 3.776 7.055 8.683 9.444 12.267 2.39 3.584 3.04 5.306 3.192 5.896.152.591-.343.298-.343.298s-.046.641-.591.152zM-10.38 282.888c-7.567-3.305-21.176-10.517-21.176-10.517s14.387 5.334 21.808 8.887c7.567 3.305 5.546 3.614 5.546 3.614s1.39 1.322-6.178-1.984zM146.866 118.137c-1.728-.187-3.011-.278-4.097-.419 1.036-.056 2.516-.015 4.193-.026 3.405.176 7.355.842 10.073 1.614 2.718.772 3.708 1.357 4.006 1.701.298.343.101.394.101.394s.248.146-.146.247-1.531-.237-4.249-1.009c-2.819-1.166-6.623-2.079-9.881-2.502zM24.217 420.273c.677-2.272 1.158-4.493 1.688-6.518.334-1.974.668-3.948.709-5.428.045-.641.09-1.282.187-1.726.1.393.055 1.035.01 1.676-.041 1.479.02 3.352-.264 5.523-.283 2.171-.516 4.539-1.194 6.811-.48 2.222-1.157 4.494-1.986 6.175-1.41 3.509-2.39 4.6-2.684 5.095-.343.298-.444-.096-.444-.096s-.344.298-.298-.343c.046-.642.581-1.828 1.991-5.337.83-1.682 1.557-3.757 2.285-5.832zM22.63 165.939c-4.405-2.437-11.982-7.419-11.982-7.419s8.163 3.992 12.371 6.48c4.405 2.438 3.122 2.347 3.122 2.347s.894 1.03-3.511-1.408zM40.264 178.205c.844.833.005.838.005.838s.596.686-.637.792c-1.232.107-4.147-.615-11.416-3.577-3.562-1.605-7.815-3.452-11.973-5.743-4.354-2.241-8.562-4.73-12.325-7.122-3.763-2.392-7.082-4.689-9.557-6.153-1.238-.732-2.081-1.564-2.824-2.004-.742-.439-1.04-.782-1.04-.782s1.485.878 4.157 2.292c2.475 1.463 6.087 3.265 10.143 5.163 4.057 1.897 8.411 4.138 12.862 5.935 4.303 2.044 8.506 3.694 12.068 5.299 6.824 2.866 9.694 4.229 10.537 5.062zM19.483 420.647c-.05-.196.046-.641.334-1.974.288-1.333.672-3.11.91-4.64.238-1.529.329-2.812.329-2.812s.106 1.232.065 2.711c-.04 1.48-.374 3.454-.662 4.787-.289 1.333-.582 1.827-.779 1.878.05.197.05.197-.197.05.248.147.05.197 0 0zM-10.111 278.203c-3.415-1.852-9.406-5.562-9.406-5.562s6.43 2.968 9.845 4.82c3.415 1.852 2.577 1.857 2.577 1.857s.201.788-3.016-1.115zM322.382 141.749c-.298-.343-.652-1.722-.818-4.827-.414-3.251-.291-7.689-.018-11.536.137-1.924.374-3.453.466-4.736.141-1.085.333-1.974.333-1.974l-.136 1.924c-.092 1.282-.082 2.958-.021 4.831.12 3.747.443 8.28.806 11.335.363 3.054.272 4.336.226 4.978-.096.444-.394.101-.394.101s-.146.247-.444-.096zM406.005 125.553c2.52.822 1.929.974 1.929.974s.546.49-2.172-.282c-2.521-.823-7.219-2.766-7.219-2.766s4.744 1.302 7.462 2.074zM461.01 209.862c.041-1.479.077-3.797.077-3.797s.212 2.464.171 3.943c-.041 1.48-.142 1.086-.142 1.086s-.146.247-.106-1.232zM457.2 216.295c-.343.298-.197.05-.197.05s-.146.248-.247-.146.288-1.333.864-3.999c.288-1.333.723-2.913.961-4.443.238-1.53.425-3.256.415-4.933.041-1.479-.116-2.908-.171-3.943-.101-.393-.005-.838-.106-1.232l.303 1.182c.252.984.409 2.413.565 3.842.207 1.625.217 3.302.029 5.028-.187 1.727-.424 3.257-.713 4.59-.773 2.716-1.359 3.706-1.703 4.004zM412.323 134.635c-.692-.243-1.98-1.171-5.693-3.367-1.733-1.025-3.96-2.342-6.582-3.558-2.374-1.07-4.946-2.089-7.269-2.962a31.35 31.35 0 00-6.078-1.59l-1.778-.383c.445.096 1.086.141 1.925.136 1.728.186 3.9.469 6.37 1.094 2.471.626 5.188 1.398 7.76 2.417a49.778 49.778 0 016.728 3.311c1.98 1.171 3.071 2.15 3.865 2.786.793.636 1.141 1.176 1.439 1.52.349.54-.096.444-.096.444s.101.394-.591.152zM407.428 276.06c.045-.641.581-1.828 1.698-4.842.632-1.631 1.213-3.459 1.497-5.63.53-2.024.814-4.195.95-6.119.137-1.923.077-3.797.168-5.079.046-.641-.106-1.232-.156-1.429.101.394.202.788.156 1.429.106 1.232.363 3.055.474 5.124.111 2.07-.173 4.241-.456 6.412-.283 2.171-.814 4.196-1.446 5.827-1.263 3.262-2.047 4.302-2.34 4.797-.146.247-.247-.147-.247-.147s-.344.298-.298-.343zM463.914 419.373c1.182-.303 1.824-.258 2.218-.359.838-.005.348.54.348.54s.642.046-.045.641c-.344.298-.885.647-2.016 1.147-1.132.5-2.905.955-5.467 1.611-2.612.46-5.668.824-8.972 1.042-3.355.021-6.76-.155-9.574-.483-3.061-.474-5.728-1.049-7.557-1.63-.889-.191-1.581-.433-2.273-.676-.445-.095-.693-.242-.693-.242s.248.147.89.192l2.222.479c1.976.333 4.592.711 7.553.791 2.96.081 6.315.06 9.371-.304 3.057-.364 6.113-.728 8.675-1.385l5.32-1.364zM443.597 319.664c.051.197-.242.692-1.076 1.535-.834.844-2.259 1.838-3.39 2.339-.592.151-1.132.5-1.577.404.394-.101.935-.45 1.526-.601 1.132-.5 2.309-1.642 3.143-2.485.637-.793.98-1.091 1.374-1.192zM467.836 406.826l6.699-1.718 4.729-1.212c2.562-.657 3.941-1.011 4.83-.819 1.677-.01.894 1.03.894 1.03s1.283.091.106 1.232c-.687.596-1.965 1.343-4.375 2.591-1.329.55-2.855 1.151-4.578 1.803-1.92.702-4.037 1.454-6.846 1.965-5.32 1.364-12.12 2.688-18.925 3.174-7.002.536-14.105.679-20.571.029-1.728-.187-3.208-.227-4.739-.464-1.531-.237-3.011-.277-4.345-.565-1.333-.287-2.616-.378-3.95-.665-1.137-.338-2.223-.48-3.309-.621-1.086-.141-1.975-.333-2.667-.575-.889-.192-1.531-.237-2.026-.53-1.137-.338-1.778-.383-1.778-.383s.641.045 1.727.186c.642.046 1.284.091 2.173.283.838-.005 1.727.186 2.814.327 1.086.142 2.121.086 3.405.177l3.849.272c1.283.09 2.764.13 4.244.17 1.48.041 2.96.081 4.637.07 6.265-.137 13.267-.674 19.921-1.75 6.406-1.223 12.761-2.643 18.081-4.007zM336.519 188.694c-1.283-.09-2.122-.085-2.122-.085s.839-.005 2.268-.162c1.43-.157 3.304-.218 5.376-.329 2.071-.112 4.537-.324 6.754-.683.925-2.126 1.704-4.004 2.679-5.933a411.508 411.508 0 012.77-7.215c.99.586 9.769 8.617 13.042 11.554.247.147.298.344.545.49-.343.298-.737.399-1.131.5-.591.152-1.036.056-1.627.207-2.415.41-4.88.622-7.346.835-.591.151-1.43.156-2.218.359-3.647.515-8.826.794-13.069.623a57.819 57.819 0 01-5.921-.161z" fill="#C4C4C4"/><path d="M300.855 88.095c1.076-1.535 1.122-2.176 4.527-2 3.405.176 6.42 1.291 8.607 4.088 2.238 2.993 2.165 15.812 2.483 19.508.262 2.66.327 5.371.443 8.279.428 5.766.856 11.531 1.037 17.151.106 1.231.263 2.66.368 3.892.111 2.07.419 4.09.53 6.159l.05.197c.308 2.02.565 3.842 1.07 5.811l1.414 5.513c.05.197.247.147.298.343.343-.297.44-.742.783-1.04 1.567-2.08 2.886-4.307 4.452-6.387a100.32 100.32 0 0110.586-11.947c5.103-4.666 11.05-8.499 17.547-11.004a49.387 49.387 0 0115.126-3.249c1.036-.056 2.122.085 3.158.029 2.516-.015 4.936.413 7.158.893a60.302 60.302 0 0115.277 5.525c15.538 8.187 27.938 19.695 37.252 34.724 1.095 1.817 1.797 3.736 1.908 5.806-.045.641.202.787.697 1.08 1.384.484 2.571 1.019 4.102 1.256 1.975.333 3.607.964 5.486 1.741 2.622 1.216 4.359 3.079 6.001 5.386.05.197.348.54.399.737l1.313 5.119c.454 1.772.711 3.595 1.216 5.564.303 1.181.409 2.413.565 3.842.368 3.892.686 7.588.412 11.435-.04 1.479-.278 3.009-.369 4.291a65.986 65.986 0 01-3.625 12.89c-.389.94-.879 1.485-1.763 2.131-8.059 5.424-17.017 8.98-26.277 11.354a72.316 72.316 0 01-9.215 1.734c-2.612.46-5.275.723-7.69 1.132-.394.101-.838.005-1.379.354.051.197-.045.641.005.838a57.424 57.424 0 011.479 8.224c.101.394.151.59.055 1.035a32.31 32.31 0 01.332 6.21c-.04 1.479-.081 2.958-.319 4.488-.04 1.479-.328 2.812-.369 4.291-.572 3.504-1.391 6.862-2.604 10.32-.242.692-.237 1.53-.035 2.318.701 1.918 1.206 3.887 1.661 5.659a148.166 148.166 0 006.518 18.053c5.05 11.505 11.328 22.066 18.05 32.723.051.197.298.343.546.489.642.046 1.182-.303 1.773-.454 6.25-2.652 11.803-6.384 16.659-11.196 2.208-2.035 4.365-4.267 6.573-6.302.147-.248.541-.349.687-.596.495.293.596.687.894 1.03 1.894 3.291 3.591 6.633 5.435 9.728 6.979 12.479 14.499 24.61 22.757 36.341 3.283 4.614 6.713 8.981 10.829 12.752 2.183 1.958 4.218 4.164 6.203 6.173.399.737.647.883.697 1.08-.146.248-.146.248-.343.298-.935.45-1.673.849-2.608 1.298-4.082 2.096-8.114 4.389-12.196 6.485-7.624 3.843-15.501 6.702-23.776 8.824-3.153.809-6.502 1.667-9.756 2.082-1.824.258-3.4.662-5.224.92-2.021.308-3.844.566-5.916.677-3.304.218-6.805.486-10.159.507-1.677.01-3.158-.03-4.835-.019-1.48-.04-3.157-.03-4.638-.07-2.566-.182-5.132-.363-7.896-.494-3.849-.272-7.749-.74-11.503-1.457-2.172-.282-4.344-.564-6.37-1.094l-2.537 4.847 5.737 10.909-12.099-2.143-8.681 8.731-1.65-12.168-11.083-5.551 11.217-5.394.475-3.06c-7.163-1.73-14.327-3.461-21.44-4.994-10.967-2.644-22.081-5.04-33.437-6.745-4.148-.615-8.442-.983-12.539-1.401-3.011-.277-6.168-.307-9.326-.336-4.637-.07-9.174.254-13.857.825-1.233.106-2.415.409-3.648.516-1.233.106-2.415.409-3.845.566-2.465.212-4.688-.267-6.668-1.438-2.228-1.317-4.506-2.832-6.733-4.149a2.8 2.8 0 01-.794-.636l.733-1.237c1.223-1.782 2.249-3.514 3.472-5.297 1.713-2.327 2.734-4.897 3.507-7.614 1.643-5.877 3.089-11.703 3.595-17.918.188-1.727.228-3.206.218-4.882-.014-2.515-.176-4.782-.387-7.245a183.546 183.546 0 01-.419-4.09c-.106-1.232-.409-2.413-.565-3.842-.156-1.428-.51-2.807-.616-4.039-.151-.59-.303-1.181-.06-1.873l.591-.151c2.617.378 5.38.509 7.997.887 2.173.282 4.097.418 6.123.948a109.69 109.69 0 017.264 2.124c.445.096.743.439 1.334.288.293-.495.339-1.136-.01-1.676-.101-.394-.545-.49-.99-.586-.247-.146-.444-.096-.692-.242-6.375-1.933-12.7-3.668-19.171-5.156-5.335-1.151-10.619-2.104-16.05-2.81l-10.366-1.119c-1.925-.136-3.85-.272-5.971-.357-2.764-.131-5.724-.211-8.488-.342-3.157-.03-6.067.087-9.174.254-2.516.016-5.178.279-7.644.491-4.734.375-9.27.699-14.054.876-.197.051-.445-.096-.839.005.293-.495.637-.792.733-1.237 3.082-4.357 5.968-8.664 9.05-13.022.93-1.288 1.809-2.772 2.441-4.403 2.143-4.746 3.594-9.734 4.549-15.016.476-3.059 1.002-5.922 1.23-9.128-.01-1.676.227-3.206.218-4.882-.171-3.943-.343-7.886-1.155-11.874-.308-2.02-.666-4.236-1.171-6.205l-4.039-15.751-1.01-3.938c.495.293.94.388 1.187.535 9.25 4.133 18.747 8.413 27.996 12.546.94.389 1.682.828 2.571 1.019.248.147.445.096.592-.151l-.101-.394-4.182-6.482c-.298-.343-.546-.489-1.187-.535-1.233.106-2.516.016-3.653-.322-1.581-.434-2.915-.722-4.496-1.156-.247-.146-.495-.292-.692-.242l-.353-1.378c-.606-2.363-1.162-4.529-1.964-6.841-4.378-14.615-11.216-28.18-20.61-40.249l-1.94-2.651c-3.131-4.023-6.263-8.046-9.197-12.12-.697-1.08-1.591-2.11-2.485-3.14-1.541-1.913-3.031-3.629-4.521-5.346-.247-.146-.348-.54-.646-.883a9.859 9.859 0 011.227-.944l5.745-4.621c1.718-1.49 3.239-2.929 4.462-4.711 1.223-1.783 2.592-3.812 3.815-5.595a23.451 23.451 0 001.901-4.054c1.46-3.313 2.724-6.574 4.038-9.639.096-.444.192-.889.733-1.237.298.343.545.49 1.04.782 1.935 1.812 3.869 3.625 5.854 5.634 1.142 1.176 2.677 2.251 4.163 3.129 10.547 6.738 21.438 13.178 32.475 19.371a399.766 399.766 0 0028.698 14.465c5.688 2.528 11.77 4.956 17.751 6.989.445.096.94.389 1.531.237.146-.247.293-.495.636-.792 2.638-4.454 5.079-8.857 7.717-13.31l.293-.495c-.05-.197.096-.444.046-.641-1.334-.288-2.567-.182-3.85-.272l-3.849-.272-3.85-.272c-1.283-.091-2.566-.181-3.703-.519-1.283-.091-2.566-.182-3.703-.52-.202-.787-.257-1.822-.459-2.61-.257-1.823-.712-3.595-.969-5.417-.253-.985-.257-1.823-.51-2.807-.156-1.429-.51-2.807-.716-4.433-.258-1.822-.318-3.695-.575-5.518-.419-4.089-.246-8.33-.468-12.47l-.05-.197c.04-1.479.03-3.155.268-4.685.137-1.924.077-3.797.41-5.771.183-2.565.612-4.983.795-7.548.465-4.736 1.426-9.179 2.533-13.87.481-2.22 1.158-4.493 1.638-6.714.495.292 1.956-3.02 2.785-4.701zm13.848 284.134l-3.057.364 3.85.272c-.298-.343-.546-.49-.793-.636zm-7.942.148c.641.045 1.035-.056 1.677-.011l5.719-.627-13.482-10.812c-2.263 1-4.229 2.344-6.144 3.884l-.197.05c-2.258 1.839-4.416 4.07-6.326 6.449 2.668.575 5.481.902 8.245 1.033 1.035-.055 1.874-.061 2.91-.116 2.516-.016 5.082.165 7.598.15zm-16.074-7c.444.096 1.136.338 1.581.434l-.152-.591c-.591.152-1.035.056-1.429.157zm.635 7.391l-3.258-.423c-.147.247-.294.495-.39.939.394-.101 1.036-.056 1.43-.157.591-.151 1.379-.354 2.218-.359zm-8.623-6.602c-.343.298-.636.793-.929 1.288 0 0 .05.197-.147.247-.778 1.878-1.607 3.56-2.436 5.241l-.586.99c.151.59.545.489.99.585.642.045 1.233-.106 2.021-.308 1.379-.354 2.612-.46 4.042-.617a54.833 54.833 0 016.321-7.286c-1.187-.535-2.273-.676-3.506-.57-.642-.045-1.334-.288-2.172-.282l-.197.05c-1.334-.287-2.567-.181-3.401.662zm4.941-57.713c.889.192 1.783 1.222 2.87 1.363l.591-.152c-2.031-1.367-3.915-2.983-5.85-4.795.748 1.277 1.692 2.504 2.389 3.584zm-45.67-82.296c.202.788.303 1.182.748 1.277.591-.151 1.677-.01 3.748-.121 1.233-.107 2.91-.117 4.537-.324 1.627-.208 3.203-.612 4.779-1.016s2.708-.904 3.693-1.157c.394-.101.738-.399 1.132-.5l.394-.101s-.197.051-.343.298c-.197.051-.541.349-1.132.5-.935.45-2.264 1-3.592 1.551-1.526.601-3.102 1.005-4.876 1.46l-1.379.353c1.343 1.964 2.934 4.074 4.278 6.038 5.177 7.905 9.469 16.457 12.777 25.261l.151.591c-.343.298-.641-.045-1.086-.141-3.511-1.408-6.875-3.064-10.436-4.668-8.012-3.402-15.877-7.051-23.889-10.452-.495-.293-.99-.586-1.581-.434-.096.444.055 1.035.156 1.429.409 2.413 1.065 4.973 1.474 7.386.353 1.378.363 3.054.519 4.483.308 2.019.419 4.089.53 6.159.161 2.267.075 4.388-.158 6.755-.137 1.924-.273 3.848-.607 5.822-.85 6.513-2.392 12.784-4.823 18.863-1.021 2.57-2.239 5.19-3.705 7.664l-.293.495.495.293c.445.096.839-.005 1.233-.107 1.233-.106 2.465-.212 3.749-.121 2.071-.112 4.142-.223 6.264-.138 2.319.035 4.835.02 7.154.055 1.283.09 2.763.13 4.046.221 2.122.085 4.244.171 6.416.453 1.925.136 4.097.419 6.022.555 3.849.271 7.603.988 11.306 1.507 4.592.711 9.235 1.619 13.68 2.578 1.036-.056 1.874-.061 2.86-.314-6.864-9.571-12.844-19.789-17.889-30.456-.101-.393.293-.494.394-.101l12.4-13.881c1.42-1.833 2.936-4.11 1.542-6.271-2.728-2.448-5.405-4.699-8.132-7.147-2.43-2.105-5.749-4.402-7.491-7.102-2.839-4.518.84-8.19 2.245-12.537l-.05-.197c.192-.888.581-1.827.525-2.862l-11.939-17.083c-.647-.883-1.293-1.767-2.137-2.6-.197.051-.394.101-.444-.096l-.101-.393-.101-.394c-3.521-3.084-9.194-3.098-13.392-3.911-3.309-.62-6.815-1.19-10.124-1.81 4.828 7.365 8.035 15.776 10.453 24.388zm42.041 35.384l1.814-1.934c-.495-.292-.843-.833-1.338-1.125.202.787-.137 1.923-.476 3.059zm-10.628-37.353c-3.566-2.443-6.985-5.134-9.865-8.172l.349.54c1.641 2.307 3.232 4.417 4.677 6.774.399.737 1.348 2.802 2.04 3.044.94.389 2.163-1.394 2.799-2.186zm-23.058-20.317c-1.384-.485-2.718-.772-3.905-1.307-1.086-.141-2.122-.086-3.158-.03 1.531.237 3.309.62 4.84.857.692.243 1.384.485 2.223.48zm-25.858-18.131c.551 1.328 1.051 2.459 1.601 3.787 1.995 3.685 4.136 7.123 6.131 10.808 1.384.484 2.864.524 4.198.812l5.234.756c-5.107-4.356-7.167-10.752-13.158-14.462-1.485-.878-3.167-1.706-4.652-2.584.247.146.348.54.646.883zm88.338-28.106l-.353-1.378c-.555-2.166-1.06-4.135-1.221-6.402-.157-1.429-.46-2.61-.616-4.039l-.101-.394c-.161-2.267-.322-4.533-.731-6.947-.626-5.715-.857-11.531-1.235-17.099-.222-4.14-.443-8.28-.912-12.566-.166-3.105-.53-6.16-.645-9.068l-.202-.787c-.051-.197-.248-.147-.349-.54-.096.444-.192.888-.338 1.135-1.158 4.494-2.068 9.134-2.781 13.723l-.987 8.437c-.187 1.727-.127 3.6-.314 5.326-.233 2.368-.072 4.635-.107 6.953-.026 3.993.145 7.936.513 11.829.111 2.069.418 4.089.676 5.911.055 1.035.358 2.217.413 3.252.152.59.354 1.378.308 2.019.101.394.399.737.793.636 1.086.141 2.37.232 3.456.373l3.849.272.197-.05c.692.242.839-.006.687-.596zm135.796 233.141c9.513-1.39 18.723-3.962 27.484-7.467 3.643-1.354 7.185-3.101 10.529-4.798.394-.101.935-.45 1.228-.945-.05-.197-.101-.393-.348-.54-5.658-5.684-10.036-12.115-14.663-18.693-6.419-9.475-12.445-19.051-18.126-28.926-.349-.54-.647-.883-.798-1.474l-.248-.146c-.394.101-.737.399-1.081.697-3.436 2.979-6.973 5.565-11.005 7.858-5.31 3.04-11.069 5.146-17.127 6.909-2.364.607-4.926 1.263-7.341 1.673-4.435.717-9.169 1.092-13.706 1.416-2.91.116-5.623.182-8.386.052-2.566-.182-5.33-.312-7.896-.494-4.688-.266-9.28-.978-13.873-1.689a237.04 237.04 0 01-19.262-3.874c-2.915-.721-5.779-1.246-8.694-1.967-.197.05-.445-.096-.692-.242-.041 1.479-.329 2.812-.42 4.094a112.03 112.03 0 01-1.006 5.085c-.046.641-.339 1.136-.435 1.58l-.096.444s-.051-.197.045-.641.193-.889.238-1.53c.091-1.282.278-3.009.415-4.933.137-1.923.173-4.24.062-6.31-.111-2.07-.222-4.14-.231-5.817-.217-3.301-.373-4.73-.277-5.174l-.051-.197c-.05-.197.046-.641-.005-.838 1.384.484 2.819 1.165 4.006 1.7 1.384.485 2.622 1.217 4.006 1.701 1.384.485 2.571 1.019 3.955 1.504l4.153 1.453c1.384.485 2.768.969 4.102 1.257 1.384.484 2.718.772 4.102 1.256 1.384.484 2.718.772 4.248 1.009 1.334.288 2.718.772 4.249 1.009 1.334.288 2.864.525 4.198.812 1.334.288 2.667.575 4.198.812 1.334.288 2.864.525 4.147.615 1.284.091 2.814.328 4.345.565 1.48.04 2.814.328 4.294.368 1.48.04 2.814.328 4.294.368 1.48.04 2.961.08 4.244.171 1.48.04 2.96.08 4.243.171 1.481.04 2.91-.117 4.391-.077 1.48.04 2.91-.117 4.339-.273 1.43-.157 2.91-.117 4.34-.274l-.202-.787a1.557 1.557 0 00-.646-.884c-4.43-6.628-8.465-13.357-12.303-20.137-4.041-7.567-7.687-15.236-10.595-23.303-.551-1.328-.904-2.706-1.455-4.034-.101-.393-.252-.984-.55-1.327-.642-.046-.985.252-1.379.353l-6.351 2.258c-2.905.955-5.714 1.465-8.72 2.026-2.612.46-5.274.723-7.74.936-.591.151-1.97.505-5.077.672-3.552.071-8.437-.145-12.387-.811-1.976-.332-3.754-.716-5.087-1.003-1.334-.288-2.026-.53-2.026-.53s.838-.005 2.172.282c1.283.091 3.011.277 5.133.363 3.208.226 6.956.105 9.917.185-.161-2.267-.57-4.68-.929-6.897-.156-1.428-.509-2.806-.863-4.185-.252-.984-.257-1.822-.509-2.807-.106-1.232-.409-2.413-.566-3.842-.252-.984-.307-2.019-.363-3.054-.207-1.626-.363-3.055-.57-4.68-.055-1.035-.308-2.02-.363-3.055l-.152-.59c-.368-3.893-.685-7.588-.856-11.531-.176-4.781-.302-9.366-.478-14.147-.111-2.07.173-4.241.062-6.311.081-2.958.36-5.967.886-8.83.146-.247.096-.444.192-.889-3.254.415-6.063.925-6.063.925s8.276-2.122 12.858-3.087c.788-.202 1.627-.207 2.021-.308.591-.152 1.182-.303 1.627-.207.601 1.524.807 3.15 1.211 4.725.404 1.575.56 3.004.964 4.579.688-.596 1.622-1.045 2.36-1.444a7.02 7.02 0 011.723-.652l.788-.202-.788.202c-.394.101-.935.45-1.673.849-1.278.747-2.703 1.742-3.486 2.782-.147.248-.344.298-.344.298-.929 1.288-1.809 2.772-2.44 4.403-1.653 4.201-3.058 8.548-3.625 12.89-.334 1.974-.617 4.145-.754 6.069a55.74 55.74 0 00.196 8.133c.469 4.286 1.135 8.522 2.589 12.556.551 1.327 1.101 2.655 1.849 3.932.348.541.5 1.131.848 1.671.5 1.131 1.197 2.212 2.091 3.241 2.334 2.549 5.496 3.417 8.896 2.755 2.809-.51 5.168-1.954 7.129-4.136a24.566 24.566 0 003.669-5.347c2.193-4.549 3.548-9.093 4.16-14.077.617-4.145.446-8.088.027-12.177-.317-3.696-1.079-7.487-2.236-11.178l-.05-.196-.303-1.182-.051-.197c-.303-1.181-.853-2.509-1.353-3.64-.151-.59-.449-.934-.601-1.524-.348-.54-.747-1.277-1.096-1.818-.995-1.423-2.187-2.796-3.722-3.871-1.288-.929-2.774-1.807-3.713-2.196-.495-.293-.94-.388-1.187-.535.247.147.692.242 1.333.288 1.137.338 2.521.822 4.057 1.897 1.485.879 2.874 2.201 4.116 3.771.596.687.995 1.424 1.445 2.358.394-.101.839-.006 1.233-.107 3.551-.071 7.002-.536 10.452-1.001 2.415-.41 4.683-.571 7.098-.981 2.809-.51 5.618-1.021 8.377-1.728 4.532-1.162 9.21-2.571 13.54-4.521 2.657-1.101 5.017-2.545 7.573-4.04.738-.399 1.178-1.141 1.617-1.884 1.117-3.014 1.79-6.124 2.265-9.184.476-3.059.507-6.215.143-9.269l-.772-5.468c-.312-2.857-1.019-5.614-1.726-8.37-.252-.985-.651-1.722-1.394-2.161l-.197.051c-.641-.046-2.516.015-6.916-1.584a82.62 82.62 0 01-7.269-2.963c-2.622-1.216-5.097-2.68-7.522-3.947a77.29 77.29 0 01-5.546-3.613c-.743-.44-1.288-.929-1.586-1.272-.298-.344-.546-.49-.546-.49s.248.146.692.242l1.733 1.025c1.485.878 3.612 1.802 6.037 3.068l3.561 1.605-.051-.197c.147-.247.294-.495.637-.792.44-.743.682-1.434 1.122-2.177.389-.939.187-1.726-.212-2.463-.298-.344-.399-.737-.646-.884-7.268-11.146-16.744-20.257-27.983-27.238-3.96-2.342-8.067-4.436-12.467-6.036-3.461-1.211-6.82-2.028-10.422-2.154-2.122-.085-4.441-.12-6.462.188-7.936.986-14.873 4.234-21.209 9.006-3.684 2.833-6.872 5.958-9.959 9.478-3.088 3.519-5.68 7.332-8.272 11.144-6.115 8.912-11.734 18.117-16.808 27.811-.829 1.681-.879 1.485-2.461 1.051-5.385-1.347-10.674-3.139-15.816-5.177-10.038-3.932-19.833-8.555-29.532-13.622-15.24-7.843-29.793-16.282-44.301-25.362-.495-.293-.793-.636-1.434-.681-1.461 3.312-3.467 6.135-5.423 9.154-2.006 2.823-4.507 5.353-7.256 7.736.298.343.399.737.647.883.995 1.424 1.939 2.651 2.934 4.074 2.637 3.731 5.47 7.411 8.45 10.843.894 1.03 1.541 1.914 2.435 2.943 3.117 1.509 6.233 3.018 9.204 4.775 5.794 3.76 7.707 10.404 12.96 14.513 2.809-.511 5.674.014 8.442.983 2.324.873 4.597 1.549 5.597 3.81.247.147.545.49.843.833l.051.197 1.939 2.65c4.273 5.2 9.234 9.803 15.028 13.564l9.811-1.047.197-.051.146-.247c1.43-.157 2.91-.117 4.587-.127l.394-.101.197-.051.051.197s.247.147.101.394c-.046.641-.975 1.929-3.078 5.196-1.076 1.535-2.445 3.565-3.567 5.741-1.37 2.03-2.441 4.403-3.614 6.382-1.172 1.979-1.95 3.858-2.633 5.291-.485 1.384-.924 2.126-.924 2.126s.146-.247.242-.692c.096-.444.389-.939.632-1.63l1.941-5.534c.925-2.126 1.996-4.499 3.118-6.675 1.122-2.176 2.441-4.403 3.517-5.938.293-.495.44-.742.784-1.04-.5-1.131-.95-2.065-1.253-3.246l-.197.05-6.507.829c-.343.298-.788.202-1.182.303a5.005 5.005 0 00-2.703 1.743c-1.031.894-1.617 1.883-1.956 3.019-.045.641-.339 1.136-.632 1.631-1.405 4.347-5.033 8.215-1.603 12.582 3.778 4.906 9.279 9.162 14.284 13.124l.197-.051c.99.586 2.031 1.368 3.218 1.903l.051.197c.197-.05.247.146.101.394l-4.215 4.857c-.146.248-.343.298-.49.546-4.067 4.61-7.988 8.973-12.056 13.583 4.096 8.602 8.782 17.053 14.156 24.908 2.531 2.498 4.96 4.603 7.784 6.607l.248.147c.742.439 1.485.878 2.03 1.367 3.163.868 6.375 1.933 9.341 2.851 1.136.338 2.076.727 3.213 1.065-.157-1.429-.167-3.105-.323-4.534-.313-2.857-.524-5.321-.782-7.143-.257-1.823-.312-2.858-.312-2.858l.706 2.757c.455 1.772.863 4.185 1.373 6.992 1.02 5.614 1.898 12.313 2.124 17.291.176 4.781-.158 6.755-.4 7.447-.293.495-.541.349-.591.152l-.147.247c-.248-.146-.692-.242-1.137-.338-4.4-1.6-8.749-3.002-13.099-4.405-2.273-.676-4.546-1.352-6.769-1.832-.444-.096-.889-.191-1.283-.09-.046.641-.091 1.282.06 1.873.409 2.413.57 4.68.535 6.997-.036 2.318.075 4.387.039 6.705.005.838-.187 1.727-.183 2.565.181 5.619-.027 12.177-2.761 17.075 3.456.373 6.81.352 10.261-.113 1.915-1.54 3.88-2.884 6.34-3.934l.198-.051.394-.101 15.81 12.523c2.172.283 4.345.565 6.466.651 4.097.418 8.295 1.23 12.443 1.845 9.482 1.766 19.065 3.925 28.452 6.134 8.249 1.872 16.352 3.991 24.551 5.666a337.696 337.696 0 0019.111 3.283c3.703.52 7.355.842 11.205 1.114 2.122.085 4.244.171 6.168.307.839-.005 1.925.136 2.961.08 3.748-.122 7.598.15 11.443-.416.591-.151 1.035-.056 1.626-.207 1.586 1.272 4.198.812 6.613.403z" fill="#C4C4C4"/><path d="M450.489 317.058c-.147.247-.243.692-.486 1.383-.439.743-1.026 1.732-2.006 2.823-.93 1.288-2.501 2.53-4.072 3.772-1.572 1.242-3.391 2.338-4.866 3.136-1.672.849-3.198 1.45-4.38 1.753l-1.38.354-.394.101.394-.101c.395-.101.789-.203 1.329-.551 1.132-.5 2.461-1.051 4.083-2.096 1.424-.995 3.046-2.04 4.618-3.282 1.374-1.192 2.698-2.581 3.678-3.671 1.91-2.379 2.496-3.368 3.037-3.717.344-.298.445.096.445.096zM329.311 238.385c-7.209-1.089-14.226-3.067-20.757-6.428-4.602-2.388-8.86-5.073-12.679-8.5-.248-.147-.495-.293-.399-.737 3.208.226 6.416.453 9.674.877-.202-.788-.257-1.823-.459-2.611a53.245 53.245 0 01.062-6.31c.333-1.975.718-3.752 1.056-4.888.243-.692.339-1.136.486-1.383l.293-.495s.05.197-.096.444c-.147.248-.192.889-.288 1.333-.289 1.333-.526 2.863-.613 4.983-.136 1.924-.026 3.994.282 6.013.253.985.308 2.02.56 3.004.253.985.455 1.772.854 2.509.55 1.328 1.394 2.161 1.939 2.65.495.293 1.137.339 1.829.581 1.086.141 2.122.085 3.208.226 1.283.091 2.566.182 3.799.075 2.319.035 4.491.318 6.81.353 2.122.085 4.441.12 6.562.206 2.961.08 5.972.357 8.932.437 1.677-.01 2.759-.707 3.193-2.287.193-.889.385-1.778.38-2.616.096-.444.141-1.085.086-2.12.137-1.924.218-4.882.254-7.2a40.017 40.017 0 01-.166-3.105c-.005-.838-.106-1.232-.106-1.232l.303 1.182c.202.787.257 1.822.56 3.004.308 2.019.322 4.533.383 6.406 1.43-.156 2.859-.313 4.486-.52.197-.051.445.095.839-.006-.344.298-.49.546-.637.793-4.805 5.009-9.414 9.968-14.219 14.977-.49.546-.884.647-1.526.601-1.48-.04-3.157-.029-4.885-.216zM313.279 280.686c-.394.101-1.677.01-5.926-.999-7.411-1.876-20.51-6.282-20.51-6.282s13.681 2.578 20.894 4.505c.445.096.692.242 1.137.338-.798-1.474-1.793-2.897-2.591-4.372-2.49-3.977-4.98-7.955-7.273-11.984-.298-.343-.399-.737-.697-1.08l.147-.248c.445.096.94.389 1.384.485 8.851 3.396 17.893 5.904 27.375 7.669 4.001.863 8.149 1.478 12.246 1.896.444.096 1.036-.056 1.531.237-.096.445-.243.692-.339 1.136l-3.048 10.224c-.581 1.828-1.213 3.459-1.35 5.383.05.196-.293.494-.389.939l-1.334-.288c-7.067-2.175-14.235-4.743-21.257-7.559zM205.919 143.703c-.243.692-.632 1.631-1.168 2.817-.586.99-1.122 2.176-1.955 3.02-.784 1.04-1.617 1.883-2.502 2.53-1.571 1.242-2.359 1.444-2.753 1.545-.197.051-.248-.146-.248-.146s-.197.05-.05-.197c.146-.248.884-.647 2.258-1.838.688-.596 1.521-1.44 2.355-2.283a15.316 15.316 0 002.203-2.873c.98-1.091 1.42-1.833 1.86-2.575.096-.444.045-.641.192-.889.05.197-.046.642-.192.889zM230.814 233.424s.349.54-2.273-.676c-2.819-1.166-7.618-3.502-7.618-3.502s5.289 1.791 7.911 3.007c2.768.969 1.98 1.171 1.98 1.171zM228.476 230.037c1.682.828 1.288.929 1.288.929s.298.343-1.384-.485c-1.683-.827-4.653-2.584-4.653-2.584s3.066 1.312 4.749 2.14zM266.404 152.745c-5.097-2.68-14.108-8.343-14.108-8.343s9.547 4.476 14.644 7.156c5.097 2.68 3.617 2.64 3.617 2.64s.944 1.227-4.153-1.453zM278.401 162.678c.596.687-.046.642-.046.642s.546.489-.49.545c-.839.005-3.258-.424-8.749-3.003-2.819-1.165-5.986-2.871-9.351-4.527-3.364-1.655-6.632-3.755-9.603-5.511-2.97-1.757-5.546-3.614-7.329-4.836-.99-.585-1.586-1.271-2.081-1.564-.495-.293-.793-.636-.793-.636s1.237.732 3.167 1.706c1.93.974 4.652 2.584 7.769 4.093s6.481 3.164 10.043 4.769c3.313 1.459 6.627 2.917 9.446 4.083 5.244 2.432 7.421 3.553 8.017 4.239zM244.262 322.724c-3.653-.323-7.305-.645-10.71-.821-3.405-.177-6.512-.009-8.584.102-1.035.056-2.071.111-2.465.212-.641-.045-1.036.056-1.036.056l.986-.252a14.532 14.532 0 012.612-.46c2.217-.359 5.274-.723 8.578-.941 3.501-.268 7.25-.39 10.902-.067 3.602.125 7.255.448 10.119.972 5.926.999 8.052 1.922 8.845 2.558.743.439-.045.642-.045.642s.545.489-.49.545c-.788.202-3.208-.227-8.937-1.276-2.814-.328-6.123-.948-9.775-1.27zM250.808 328.599c3.259.424 4.446.959 4.744 1.302.495.293.101.394.101.394s.298.343-.147.247c-.394.101-1.677.01-4.986-.61-3.062-.474-7.654-1.185-11.306-1.508-1.925-.136-3.602-.125-4.688-.266l-1.925-.136s.788-.202 1.824-.258c1.232-.106 2.91-.117 4.784-.178 3.799.075 8.29.393 11.599 1.013zM353.831 424.098l-4.623 2.444.809-5.034-3.869-3.624 5.224-.92 2.193-4.549 2.444 4.619 5.184.56-3.679 3.671.919 5.22-4.602-2.387zM244.987 406.056l-.882.758 3.485 4.051c.366-.297.674-.747.923-1.351.246-.607.411-1.47.496-2.589.095-1.305.24-2.23.434-2.774.197-.548.46-.964.79-1.247.381-.327.787-.481 1.218-.461a1.41 1.41 0 011.068.509c.301.35.418.748.353 1.194-.066.446-.34.877-.823 1.292l.764.691c.67-.671 1.035-1.336 1.095-1.996.06-.666-.157-1.286-.651-1.86-.538-.625-1.155-.916-1.851-.873-.7.04-1.318.29-1.855.752a3.593 3.593 0 00-1.048 1.556c-.219.626-.39 1.602-.512 2.931-.073.843-.136 1.402-.189 1.678-.056.272-.132.52-.228.745l-2.587-3.006z" fill="#C4C4C4"/><circle cx="188" cy="460" r="264" fill="#D7C08A"/><path d="M-108.569 501.905L487 410.611V1105h-910V525.881L388.047 406l-496.616 95.905z" fill="url(#bdpaint0_linear)"/><path d="M109.001 540.999l322-49.5v376.499h-492V553.999l438.5-65-268.5 52z" fill="#110F0F"/><path d="M121 577l322-49.5v376.499H-49V590l438.5-65L121 577z" fill="#1B1C1D"/><path d="M364.27 365.715c-31.335-65.689-98.481-111.182-176.142-111.182-77.764 0-144.806 45.389-176.141 111.182-2.394 4.893.104 10.722 5.205 12.804l35.499 14.679c22.07-52.988 74.433-90.257 135.437-90.257 61.005 0 113.368 37.269 135.438 90.257l35.603-14.783c4.997-1.978 7.495-7.703 5.101-12.7z" fill="#E6E6E6"/><path opacity=".25" d="M188.128 302.941c61.004 0 113.368 37.269 135.438 90.257l3.123-1.249c-22.695-54.238-76.203-92.339-138.561-92.339-62.357 0-115.866 38.101-138.456 92.339l3.123 1.249c21.966-52.988 74.329-90.257 135.333-90.257z" fill="#000"/><path d="M51.13 392.573l59.442 24.673c4.997 2.082 10.619-.417 13.326-5.101 8.12-13.95 20.612-24.985 35.603-31.231l-28.316-68.291c-36.02 14.99-64.96 43.827-80.055 79.95z" fill="#1B1C1D"/><path d="M244.865 312.623l-28.316 68.291c15.095 6.246 27.587 17.385 35.707 31.335 2.707 4.684 8.328 7.183 13.325 5.101l59.339-24.568c-14.991-36.332-43.932-65.169-80.055-80.159z" fill="#EE312F"/><path d="M188.129 301.275c-20.196 0-39.351 4.06-56.84 11.243l28.316 68.292a74.194 74.194 0 0128.524-5.726c10.098 0 19.675 1.978 28.42 5.622l28.316-68.292c-17.489-7.079-36.644-11.139-56.736-11.139z" fill="#BDA875"/><path d="M188.129 301.275c-61.733 0-114.617 37.686-137 91.298l59.443 24.673c4.997 2.082 10.619-.417 13.326-5.101 12.804-22.07 36.748-36.957 64.127-36.957 27.379 0 51.322 14.887 64.127 36.957 2.707 4.684 8.328 7.183 13.325 5.101l59.339-24.569c-22.07-53.612-74.954-91.297-136.687-91.402z" fill="url(#bdpaint1_radial)" style="mix-blend-mode:multiply" opacity=".5"/><rect x="295.25" y="372.326" width="71.831" height="30.19" rx="15.095" transform="rotate(-22.272 295.25 372.326)" fill="#EE312F"/><path d="M314.471 375.554c.356-.146.628-.303.819-.472.201-.173.347-.356.436-.548.09-.192.143-.396.159-.61.016-.214.017-.434.001-.661l1.233-.505 4.776 11.66-1.833.75-3.643-8.895-1.416.58-.532-1.299zM324.702 380.136c.173.422.379.688.618.797.246.094.513.082.802-.036.289-.119.482-.295.581-.53.105-.25.071-.586-.102-1.008l-2.579-6.297c-.173-.422-.382-.68-.628-.774-.239-.109-.503-.105-.792.014-.289.118-.485.302-.59.553-.099.234-.062.563.111.985l2.579 6.296zm-4.363-5.429c-.387-.944-.444-1.764-.171-2.459.268-.706.852-1.244 1.752-1.612.899-.368 1.692-.395 2.379-.08.682.304 1.217.928 1.603 1.872l2.483 6.064c.387.943.446 1.769.178 2.475-.273.695-.859 1.227-1.759 1.595-.899.369-1.69.401-2.372.097-.687-.315-1.223-.945-1.61-1.889l-2.483-6.063zM335.805 374.772l-2.141-8.79 2.548-1.044 4.776 11.66-1.733.71-3.424-8.362 2.158 8.88-1.732.709-4.743-7.685 3.377 8.245-1.599.655-4.775-11.66 2.548-1.044 4.74 7.726zM341.129 374.615c.211-.087.378-.168.502-.245a.73.73 0 00.289-.293.784.784 0 00.033-.442 3.362 3.362 0 00-.183-.684l-3.309-8.934 5.181-2.122 4.775 11.66-1.866.764-4.093-9.994-1.599.655 2.686 7.128c.403 1.08.487 1.933.252 2.562-.225.623-.792 1.121-1.703 1.494l-.283.116-.682-1.665zM351.652 372.23l-1.833.751-4.775-11.66 1.832-.751 2.047 4.998 2.082-.853-2.047-4.997 1.866-.764 4.775 11.66-1.865.764-2.047-4.997-2.082.852 2.047 4.997z" fill="#fff"/><rect x="13.122" y="345.103" width="71.831" height="30.19" rx="15.095" transform="rotate(22.27 13.122 345.103)" fill="#1A1B1C"/><path d="M24.851 369.778c-.173.422-.212.756-.118 1.002.109.239.308.418.597.536.289.119.55.129.785.03.25-.105.462-.368.635-.79l2.578-6.297c.173-.422.205-.752.095-.992-.093-.245-.285-.428-.573-.546-.29-.118-.559-.125-.81-.02-.234.099-.438.359-.61.781l-2.579 6.296zm.698-6.93c.387-.944.921-1.568 1.604-1.872.686-.315 1.48-.289 2.379.079.9.369 1.483.906 1.752 1.613.272.695.216 1.514-.171 2.458l-2.483 6.064c-.387.944-.923 1.573-1.61 1.888-.682.305-1.473.272-2.372-.096-.9-.368-1.486-.9-1.759-1.595-.268-.707-.21-1.532.177-2.476l2.483-6.063zM36.527 373.743l4.64-7.767 2.548 1.043-4.775 11.661-1.732-.71 3.424-8.362-4.69 7.844-1.733-.71 2.011-8.804-3.376 8.245-1.6-.655 4.776-11.66 2.548 1.044-2.041 8.831zM40.432 377.365c.211.086.388.146.53.178.153.037.29.035.411-.007a.769.769 0 00.334-.291c.112-.148.229-.354.349-.616l3.908-8.689 5.18 2.122-4.774 11.66-1.866-.764 4.093-9.994-1.6-.655-3.085 6.964c-.47 1.052-1.009 1.72-1.617 2.002-.597.287-1.351.244-2.262-.128l-.283-.116.682-1.666zM49.604 383.047l-1.832-.751 4.775-11.66 1.832.751-2.046 4.997 2.082.853 2.047-4.998 1.865.764-4.775 11.66-1.865-.764 2.046-4.997-2.082-.852-2.047 4.997z" fill="#fff"/><rect x="173.45" y="312.831" width="71.831" height="30.19" rx="15.095" transform="rotate(-90 173.45 312.831)" fill="#CAB582"/><path d="M190.67 292.661h1.17c.456 0 .774-.09.954-.27.18-.192.27-.444.27-.756s-.09-.558-.27-.738c-.18-.192-.498-.288-.954-.288h-2.772c-.456 0-.774.096-.954.288-.192.18-.288.426-.288.738s.096.564.288.756c.18.18.498.27.954.27h.378v1.872l-7.308-.36v-5.22h1.8v3.438l3.006.162c-.612-.372-.918-.948-.918-1.728 0-.732.246-1.278.738-1.638.492-.372 1.206-.558 2.142-.558h2.808c1.02 0 1.806.252 2.358.756.54.492.81 1.224.81 2.196 0 .972-.27 1.71-.81 2.214-.552.492-1.338.738-2.358.738h-1.044v-1.872zM191.084 280.318l-8.946-1.35v-2.754h12.6v1.872h-9.036l9.036 1.368v1.872l-8.91 1.476h8.91v1.728h-12.6v-2.754l8.946-1.458zM192.956 275.332c0-.228-.012-.414-.036-.558a.728.728 0 00-.162-.378.774.774 0 00-.396-.198 3.347 3.347 0 00-.702-.09l-9.522-.324v-5.598h12.6v2.016h-10.8v1.728l7.614.216c1.152.036 1.974.282 2.466.738.492.444.738 1.158.738 2.142v.306h-1.8zM194.738 264.69v1.98h-12.6v-1.98h5.4v-2.25h-5.4v-2.016h12.6v2.016h-5.4v2.25h5.4z" fill="#fff"/></g><defs><radialGradient id="bdpaint1_radial" cx="0" cy="0" r="1" gradientUnits="userSpaceOnUse" gradientTransform="translate(188.1 449.339) scale(148.087)"><stop offset=".5" stop-color="#fff"/><stop offset=".686" stop-color="#FDFDFD"/><stop offset=".753" stop-color="#F6F6F6"/><stop offset=".801" stop-color="#EBEBEB"/><stop offset=".84" stop-color="#DADADA"/><stop offset=".873" stop-color="#C4C4C4"/><stop offset=".902" stop-color="#A8A8A8"/><stop offset=".929" stop-color="#888"/><stop offset=".954" stop-color="#626262"/><stop offset=".976" stop-color="#373737"/><stop offset=".996" stop-color="#090909"/><stop offset="1"/></radialGradient><linearGradient id="bdpaint0_linear" x1="79.165" y1="595.964" x2="32.264" y2="238.129" gradientUnits="userSpaceOnUse"><stop stop-color="#EE312F"/><stop offset="1" stop-color="#060000"/></linearGradient><clipPath id="bdclip0"><path fill="#fff" d="M0 0h375v812H0z"/></clipPath></defs></svg>