<?xml version="1.0" encoding="utf-8"?><svg width="144" height="144" fill="none" xmlns="http://www.w3.org/2000/svg" viewBox="0 0 144 144"><mask id="bma" maskUnits="userSpaceOnUse" x="0" y="0" width="144" height="144"><circle cx="71.936" cy="72.208" r="71.243" fill="#C4C4C4"/></mask><g mask="url(#bma)"><path d="M45.674 111.221l100.8-29.69v225.82H-7.543V119.019l137.269-38.987-84.052 31.189z" fill="#EE312F"/><path d="M50.763 102.668c-9.042 6.051-20.967 9.136-30.325 7.158l1.185-1.463c9.397 1.977 21.638-1.542 30.167-8.187.908-1.859 2.093-3.717 3.633-5.576 3.514-4.35 8.212-8.108 13.504-11.035.631-7.633-4.423-13.921-14.294-15.978-15.005-3.164-35.498 4.548-45.724 17.204-10.267 12.656-6.397 25.51 8.607 28.674 9.872 2.096 22.112-.554 32.22-6.17a20.38 20.38 0 011.027-4.627zM19.57 87.046l-1.738-.356c6.87-8.503 20.651-13.724 30.76-11.588l-1.185 1.463c-9.121-1.898-21.599 2.769-27.837 10.48zm8.015 1.7c3.199-3.955 9.635-6.367 14.294-5.378 4.699.988 5.883 5.022 2.685 8.977s-9.595 6.328-14.294 5.34c-4.659-.99-5.883-4.984-2.685-8.939z" fill="#fff"/><path d="M72.283 81.865c.434-.198.868-.396 1.263-.593.04-8.108-5.686-14.634-16.307-16.888l-.711.87c10.385 2.215 15.913 8.661 15.755 16.61zM69.756 93.176c.592-.95 1.105-1.938 1.58-2.887-.633.395-1.264.83-1.857 1.265a33.62 33.62 0 01-3.514 5.221l.118.04c1.067-1.266 2.33-2.492 3.673-3.64zM49.776 109.668c-10.898 5.695-23.691 8.266-34.115 6.091l-.711.87c10.661 2.254 23.73-.356 34.905-6.091-.04-.277-.079-.553-.079-.87zM110.386 75.576l-.711.87c16.505 3.48 20.73 17.64 9.477 31.561-11.253 13.922-33.84 22.425-50.344 18.944l-.71.87c17.057 3.599 40.432-5.22 52.12-19.616 11.609-14.396 7.226-29.03-9.832-32.629z" fill="#fff"/><path d="M116.388 107.414c10.266-12.656 6.396-25.51-8.608-28.674-15.004-3.164-35.497 4.549-45.724 17.204-10.266 12.656-6.397 25.51 8.608 28.674 15.004 3.203 35.458-4.509 45.724-17.204zm-43.671-9.176l-1.737-.356c6.87-8.542 20.65-13.723 30.719-11.588l-1.184 1.464c-9.121-1.899-21.599 2.768-27.798 10.48zm8.016 1.661c3.198-3.955 9.634-6.367 14.293-5.378 4.699.988 5.884 5.022 2.685 8.977-3.198 3.955-9.634 6.368-14.293 5.379-4.7-.989-5.884-4.983-2.685-8.978zm-7.147 21.12l1.184-1.463c11.648 2.452 27.601-3.56 35.577-13.408l1.737.356c-8.608 10.679-25.863 17.165-38.498 14.515z" fill="#fff"/><path d="M95.974 103.142c2.527-3.124 1.58-6.328-2.132-7.118-3.712-.791-8.805 1.146-11.372 4.271-2.527 3.124-1.58 6.328 2.132 7.119 3.712.791 8.845-1.147 11.372-4.272z" fill="#fff"/></g></svg>