<?xml version="1.0" encoding="utf-8"?><svg width="143" height="144" fill="none" xmlns="http://www.w3.org/2000/svg" viewBox="0 0 143 144"><mask id="bla" maskUnits="userSpaceOnUse" x="0" y="0" width="143" height="144"><circle cx="71.39" cy="72.208" r="71.243" fill="#C4C4C4"/></mask><g mask="url(#bla)"><path d="M45.127 111.221l100.8-29.689v225.819H-8.09V119.019L129.18 80.033 45.127 111.22z" fill="#EE312F"/><path fill="#000" d="M36.387 107.214l67.641-9.886 2.859 19.56-67.641 9.885z"/><path d="M46.377 109.388l5.707-.834.245 1.679-1.93.282 1.472 10.071-1.846.27-1.472-10.071-1.93.282-.246-1.679zM58.475 119.621a5.383 5.383 0 00-.099-.208 2.69 2.69 0 01-.104-.242 9.967 9.967 0 01-.09-.382l-.085-.587-.27-1.846c-.08-.549-.232-.921-.455-1.117-.223-.196-.547-.263-.972-.201l-.638.093.7 4.784-1.847.27-1.718-11.75 2.787-.407c.962-.141 1.689-.018 2.18.367.501.384.818 1.029.95 1.936l.136.923c.176 1.208-.11 2.062-.86 2.56.497.122.862.388 1.094.8.241.399.407.907.497 1.522l.265 1.813c.042.291.09.547.146.767.053.21.141.42.263.63l-1.88.275zm-3.486-9.777l.528 3.609.721-.106c.347-.05.603-.179.767-.386.175-.208.228-.548.16-1.018l-.17-1.158c-.062-.425-.185-.721-.37-.889-.173-.169-.422-.23-.746-.182l-.89.13zM65.23 118.634a4.759 4.759 0 00-.1-.208 2.69 2.69 0 01-.104-.242 10.441 10.441 0 01-.09-.382l-.086-.587-.27-1.847c-.08-.548-.231-.92-.454-1.116-.223-.196-.547-.263-.973-.201l-.637.093.699 4.784-1.847.27-1.717-11.75 2.787-.407c.962-.141 1.688-.018 2.18.367.501.384.818 1.029.95 1.936l.136.923c.176 1.208-.11 2.062-.86 2.56.497.122.862.388 1.094.8.24.399.406.907.496 1.522l.265 1.813c.043.291.091.547.147.767.053.209.14.42.263.63l-1.88.275zm-3.487-9.777l.527 3.609.722-.106c.347-.05.602-.179.767-.386.175-.209.228-.548.16-1.018l-.17-1.158c-.062-.425-.185-.722-.37-.889-.173-.169-.422-.23-.746-.182l-.89.13zM71.983 117.647a4.759 4.759 0 00-.1-.208 2.693 2.693 0 01-.103-.242 10.52 10.52 0 01-.09-.382l-.086-.587-.27-1.847c-.08-.548-.231-.92-.455-1.116-.222-.196-.547-.263-.972-.201l-.638.093.7 4.784-1.847.27-1.717-11.75 2.786-.407c.963-.141 1.69-.018 2.18.367.502.384.819 1.029.951 1.935l.135.924c.177 1.208-.11 2.062-.86 2.56.498.121.863.388 1.094.8.241.399.407.906.497 1.522l.265 1.813c.042.291.091.547.146.767.054.209.142.419.264.63l-1.88.275zm-3.486-9.777l.527 3.609.722-.106c.347-.05.602-.179.766-.386.176-.209.229-.548.16-1.018l-.17-1.158c-.061-.425-.185-.722-.369-.889-.173-.169-.422-.23-.747-.182l-.89.13zM78.737 116.66a4.873 4.873 0 00-.1-.208 2.693 2.693 0 01-.103-.242c-.026-.1-.056-.227-.09-.382l-.086-.587-.27-1.847c-.08-.548-.232-.92-.455-1.116-.223-.196-.547-.263-.972-.201l-.638.093.7 4.784-1.847.27-1.718-11.75 2.787-.407c.962-.141 1.689-.018 2.18.367.501.384.819 1.029.951 1.935l.135.924c.177 1.208-.11 2.062-.86 2.56.498.121.862.388 1.094.8.241.399.407.906.497 1.522l.265 1.813c.042.291.09.546.146.767.053.209.141.419.264.63l-1.88.275zm-3.487-9.777l.528 3.609.721-.106c.348-.05.603-.179.767-.386.175-.209.229-.548.16-1.018l-.17-1.158c-.061-.425-.185-.722-.37-.889-.173-.169-.421-.23-.746-.182l-.89.13zM85.49 115.673a5.608 5.608 0 00-.099-.209 2.463 2.463 0 01-.104-.242 10.319 10.319 0 01-.09-.381l-.086-.587-.27-1.847c-.08-.548-.231-.92-.454-1.116-.223-.196-.547-.263-.972-.201l-.638.093.699 4.784-1.847.27-1.717-11.75 2.787-.407c.962-.141 1.689-.019 2.18.367.501.384.818 1.029.95 1.935l.136.924c.176 1.208-.11 2.062-.86 2.56.497.121.862.388 1.094.8.24.399.406.906.496 1.522l.265 1.813c.043.291.092.546.147.767.053.209.141.419.263.63l-1.88.275zm-3.486-9.777l.527 3.609.722-.106c.347-.051.603-.179.767-.386.175-.209.228-.548.16-1.018l-.17-1.158c-.062-.425-.185-.722-.37-.889-.173-.169-.422-.23-.746-.182l-.89.13zM94.359 114.377l-1.863.272-.63-2.085-2.267.331-.007 2.178-1.696.248.163-12.025 2.703-.395 3.597 11.476zm-4.758-3.111l1.78-.26-1.759-5.812-.02 6.072zM95.074 111.615l-.856-4.213-.716-4.901 1.846-.27.716 4.902.386 4.281-1.376.201zm1.698.592l.26 1.779-1.78.26-.26-1.779 1.78-.26z" fill="#fff"/></g></svg>