<?xml version="1.0" encoding="utf-8"?><svg width="143" height="143" fill="none" xmlns="http://www.w3.org/2000/svg" viewBox="0 0 143 143"><mask id="bja" maskUnits="userSpaceOnUse" x="0" y="0" width="143" height="143"><circle cx="71.39" cy="71.539" r="71.243" fill="#C4C4C4"/></mask><g mask="url(#bja)"><path d="M45.127 110.552l100.8-29.69v225.819H-8.09V118.349L129.18 79.363l-84.052 31.189z" fill="#EE312F"/><path fill="#000" d="M41.482 104.653l75.57-11.044 2.858 19.559-75.57 11.044z"/><path d="M51.037 106.891c.928-.136 1.653.01 2.172.437.531.425.866 1.114 1.005 2.065l.223 1.527c.14.952.015 1.707-.371 2.266-.376.558-1.028.905-1.957 1.041l-.873.127.645 4.415-1.846.27-1.718-11.75 2.72-.398zm-.628 1.806l.582 3.979.872-.128c.291-.042.504-.153.638-.333.133-.18.17-.482.107-.907l-.258-1.763c-.062-.425-.183-.705-.362-.838-.18-.134-.415-.18-.706-.137l-.873.127zM62.338 117.241l-1.863.272-.63-2.085-2.267.331-.007 2.178-1.696.248.163-12.025 2.703-.395 3.597 11.476zm-4.758-3.111l1.78-.26-1.759-5.812-.02 6.072zM69.174 116.242l-1.864.272-.63-2.085-2.266.331-.008 2.178-1.695.248.163-12.025 2.702-.395 3.598 11.476zm-4.758-3.111l1.78-.26-1.759-5.812-.021 6.072zM76.01 115.243l-1.864.272-.63-2.085-2.267.331-.007 2.178-1.695.248.163-12.025 2.702-.395 3.597 11.476zm-4.759-3.111l1.78-.26-1.758-5.812-.022 6.072zM82.845 114.244l-1.863.272-.63-2.085-2.267.331-.007 2.178-1.696.248.163-12.025 2.703-.395 3.597 11.476zm-4.758-3.111l1.78-.26-1.759-5.812-.02 6.072zM89.68 113.245l-1.863.272-.63-2.085-2.266.331-.008 2.178-1.695.248.163-12.025 2.702-.395 3.598 11.476zm-4.757-3.111l1.78-.26-1.759-5.812-.021 6.072zM94.2 109.532a7.996 7.996 0 01-.216 1.455c-.1.415-.27.771-.513 1.069-.232.286-.559.516-.979.692-.409.174-.935.285-1.58.334l-.24-1.645c.475-.035.838-.134 1.088-.296.25-.163.384-.462.4-.899l.002-.103-3.876-8.692 1.83-.267 1.593 3.865.973 2.669.037-2.8.25-4.151 1.93-.282-.7 9.051zM99.24 111.848l-1.847.27-1.718-11.751 1.847-.269.736 5.035 2.098-.306-.736-5.036 1.88-.275 1.717 11.75-1.88.275-.736-5.036-2.098.307.736 5.036zM110.125 111.868l-.231-1.578-3.945.577.231 1.578-1.796.262-.471-3.223.722-.105c.127-.224.201-.458.223-.701.033-.245.035-.543.007-.893l-.834-8.639 5.17-.755 1.477 10.105.805-.118.471 3.223-1.829.267zm-3.452-4.381c.043.451.036.794-.021 1.031a1.362 1.362 0 01-.272.606l2.418-.353-1.232-8.427-1.561.228.668 6.915zM112.607 107.237l-.855-4.213-.717-4.901 1.847-.27.716 4.901.386 4.281-1.377.202zm1.698.591l.26 1.78-1.779.26-.26-1.779 1.779-.261z" fill="#fff"/></g></svg>